<?xml version="1.0" standalone="no"?>
<!DOCTYPE svg PUBLIC "-//W3C//DTD SVG 1.1//EN" "http://www.w3.org/Graphics/SVG/1.1/DTD/svg11.dtd">
<svg xmlns="http://www.w3.org/2000/svg">
<defs >
<font id="ArchivoNarrow" horiz-adv-x="959" ><font-face
    font-family="Archivo Narrow"
    units-per-em="2048"
    panose-1="2 0 0 0 0 0 0 0 0 0"
    ascent="1916"
    descent="-434"
    alphabetic="0" />
<glyph unicode=" " glyph-name="space" horiz-adv-x="467" />
<glyph unicode="!" glyph-name="exclam" horiz-adv-x="467" d="M354 1405Q351 1376 348 1312T340 1162T331 973T321 763T310 549T301 350H174Q162 615 150 878T123 1405H354ZM342 0H137V222H342V0Z" />
<glyph unicode="&quot;" glyph-name="quotedbl" horiz-adv-x="596" d="M517 1104Q503 1035 493 968T471 834H391Q380 901 370 968T348 1104V1405H517V1104ZM244 1104Q233 1035 222 968L200 834H121Q109 901 99 968T76 1104V1405H244V1104Z" />
<glyph unicode="#" glyph-name="numbersign" horiz-adv-x="934" d="M784 996H907V840H749L680 523H826V367H645L563 0H408L489 367H305L224 0H67L149 367H18V523H184L254 840H99V996H289L385 1426H541L444 996H628L725 1426H881L784 996ZM410 840L340 523H525L594
840H410Z" />
<glyph unicode="$" glyph-name="dollar" horiz-adv-x="934" d="M515 1264Q584 1259 637 1234T725 1169T779 1078T798 971Q798 960 797 948T796 931H630V950Q630 978 625 1005T606 1054T570 1094T515 1119V794Q568 776 622 755T721 697T792 607T820 471Q820 391
797 332T734 232T637 169T515 141V-101H414V141Q331 148 274 177T179 249T126 345T109 455Q109 476 110 486T111 499H279V479Q279 392 316 347T414 287V653Q363 671 313 693T222 749T158 833T133 959Q133 1023 152 1075T208 1165T297 1228T414 1262V1481H515V1264ZM515
285Q573 294 612 334T651 446Q651 480 641 506T612 552T569 588T515 616V285ZM414 1119Q379 1112 357 1096T323 1058T306 1014T301 971Q301 917 332 886T414 834V1119Z" />
<glyph unicode="%" glyph-name="percent" horiz-adv-x="1493" d="M400 0H256L1112 1405H1258L400 0ZM354 1430Q416 1430 464 1412T547 1351T598 1237T616 1059Q616 952 599 881T547 768T465 708T354 690Q292 690 244 708T162 768T111 882T93 1059Q93 1165 110
1236T162 1351T244 1412T354 1430ZM354 1309Q317 1309 294 1292T258 1243T239 1169T234 1075V1044Q234 993 239 950T257 876T294 828T354 811Q391 811 414 828T451 876T470 950T475 1044V1075Q475 1126 470 1169T452 1243T415 1291T354 1309ZM1157 594Q1120 594
1097 577T1060 528T1041 454T1036 360V329Q1036 278 1041 235T1059 162T1096 114T1157 97Q1194 97 1217 114T1254 161T1273 235T1278 329V360Q1278 411 1273 454T1255 528T1218 576T1157 594ZM1157 715Q1218 715 1267 697T1350 636T1402 522T1420 344Q1420 237
1402 166T1350 53T1267 -6T1157 -24Q1095 -24 1047 -7T965 53T913 167T895 344Q895 450 913 521T964 636T1046 697T1157 715Z" />
<glyph unicode="&amp;" glyph-name="ampersand" horiz-adv-x="1120" d="M525 1430Q618 1430 696 1403T831 1325T918 1203T950 1044V1008H782V1026Q782 1091 763 1138T709 1216T627 1261T523 1276Q473 1276 428 1263T350 1220T297 1145T277 1034Q277 972 294 926T341
849T409 803T491 788H596V639H495Q448 639 405 628T327 589T273 512T252 389Q252 320 271 271T326 190T411 144T521 129Q782 129 782 391V788H1093V637H950V398Q950 302 922 224T838 91T699 6T507 -24Q411 -24 331 3T194 82T104 208T71 377Q71 447 87 503T130 602T196
674T279 721V729Q240 751 207 780T149 847T111 933T97 1044Q97 1138 127 1210T214 1331T350 1405T525 1430Z" />
<glyph unicode="&apos;" glyph-name="quotesingle" horiz-adv-x="322" d="M240 1104Q229 1035 218 968L196 834H117Q105 901 95 968T71 1104V1405H240V1104Z" />
<glyph unicode="(" glyph-name="parenleft" horiz-adv-x="559" d="M529 1505Q471 1412 421 1303T335 1076T277 836T256 594Q256 474 277 352T334 111T421 -117T529 -321H418Q337 -227 275 -120T169 103T104 341T82 590Q82 716 104 839T169 1079T274 1303T418 1505H529Z" />
<glyph unicode=")" glyph-name="parenright" horiz-adv-x="559" d="M141 1505Q222 1411 284 1304T389 1079T454 839T477 590Q477 464 455 342T390 103T285 -120T141 -321H31Q88 -227 138 -118T224 110T282 351T303 594Q303 714 282 836T225 1075T138 1302T31 1505H141Z" />
<glyph unicode="*" glyph-name="asterisk" horiz-adv-x="653" d="M377 1224L529 1329L598 1210L430 1133L598 1055L529 933L377 1040L396 858H256L275 1040L123 933L53 1055L222 1133L53 1210L123 1329L275 1222L256 1405H396L377 1224Z" />
<glyph unicode="+" glyph-name="plus" horiz-adv-x="981" d="M574 608H891V436H574V0H404V436H88V608H404V1046H574V608Z" />
<glyph unicode="," glyph-name="comma" horiz-adv-x="467" d="M336 18L238 -254H131L213 0H131V222H336V18Z" />
<glyph unicode="-" glyph-name="hyphen" horiz-adv-x="559" d="M537 453H20V653H537V453Z" />
<glyph unicode="." glyph-name="period" horiz-adv-x="467" d="M336 0H131V222H336V0Z" />
<glyph unicode="/" glyph-name="slash" horiz-adv-x="467" d="M147 -101H2L323 1505H467L147 -101Z" />
<glyph unicode="0" glyph-name="zero" horiz-adv-x="934" d="M467 1430Q557 1430 628 1397T749 1281T825 1058T852 703Q852 488 826 348T750 125T629 9T467 -24Q377 -24 306 9T185 125T109 348T82 703Q82 917 108 1057T184 1280T305 1396T467 1430ZM467 1280Q404
1280 363 1242T298 1137T264 977T254 774V630Q254 520 263 428T297 268T363 163T467 125Q530 125 571 163T636 268T670 427T680 630V774Q680 884 671 976T637 1136T571 1242T467 1280Z" />
<glyph unicode="1" glyph-name="one" horiz-adv-x="934" d="M604 149H911V0H103V149H436V1149H101V1256Q144 1260 199 1273T313 1305T431 1350T539 1405H604V149Z" />
<glyph unicode="2" glyph-name="two" horiz-adv-x="934" d="M471 1430Q547 1430 614 1409T730 1344T809 1231T838 1065Q838 977 811 899T740 749T640 613T527 486T416 364T323 244Q311 225 302 207T287 172H844V0H80V26Q80 110 105 186T178 332Q220 393 272 451T377
568T482 684T572 803T636 930T660 1067Q660 1102 651 1139T621 1206T562 1255T469 1274Q414 1274 377 1253T316 1195T283 1109T273 1006V921H99Q97 931 96 944Q93 966 93 1004Q93 1117 123 1197T206 1330T326 1406T471 1430Z" />
<glyph unicode="3" glyph-name="three" horiz-adv-x="934" d="M461 1430Q543 1430 610 1405T726 1331T801 1210T828 1044Q828 982 814 934T776 847T718 780T645 729V721Q690 704 727 675T793 602T836 503T852 377Q852 283 824 209T744 83T622 4T467 -24Q371 -24
297 6T173 91T97 224T71 398V414H244V391Q244 260 297 193T455 125Q505 125 546 140T617 187T663 270T680 389Q680 464 661 512T609 588T535 628T448 639H332V788H453Q493 788 530 803T594 848T638 925T655 1034Q655 1099 640 1145T598 1222T536 1266T463 1280Q421
1280 385 1265T323 1219T283 1139T268 1026V1008H97V1044Q97 1132 124 1203T199 1324T314 1402T461 1430Z" />
<glyph unicode="4" glyph-name="four" horiz-adv-x="934" d="M576 1430Q556 1335 526 1237T461 1045T387 863T314 704T248 577T198 495H584V938Q599 975 610 1009T632 1076T651 1144T670 1220H751V495H895V346H751V0H584V346H41V497Q96 598 148 711T247 944T334
1187T406 1430H576Z" />
<glyph unicode="5" glyph-name="five" horiz-adv-x="934" d="M807 1232H313L287 805Q304 822 328 841T382 876T451 902T535 913Q604 913 664 886T769 802T840 661T866 459Q866 343 839 253T762 102T639 8T475 -24Q386 -24 314 7T190 98T110 243T82 436H256Q256
364 273 306T319 208T389 145T475 123Q522 123 561 143T630 206T675 311T692 459Q692 532 677 588T635 683T571 742T489 762Q422 762 367 718T281 600L121 626L168 1405H807V1232Z" />
<glyph unicode="6" glyph-name="six" horiz-adv-x="934" d="M475 1430Q565 1430 629 1395T735 1299T796 1154T816 973H645Q645 1119 601 1199T467 1280Q403 1280 362 1243T298 1137T265 970T254 749Q299 812 362 847T501 883Q590 883 656 848T765 751T830 607T852
430Q852 325 825 241T748 98T632 8T485 -24Q391 -24 316 10T189 123T110 335T82 662Q82 882 108 1029T185 1266T309 1392T475 1430ZM475 735Q422 735 383 711T319 646T281 549T268 430Q268 367 280 312T318 215T383 149T475 125Q528 125 566 149T630 214T668 311T680
430Q680 493 668 548T631 645T567 711T475 735Z" />
<glyph unicode="7" glyph-name="seven" horiz-adv-x="934" d="M866 1297Q818 1224 767 1139T668 960T577 762T502 551T451 331T432 105V56Q432 45 432 32T434 0H244Q244 181 282 355T381 687T514 984T655 1232H67V1405H866V1297Z" />
<glyph unicode="8" glyph-name="eight" horiz-adv-x="934" d="M467 1430Q555 1430 622 1399T734 1315T801 1191T824 1038Q824 938 786 855T670 721Q766 673 809 586T852 385Q852 301 830 227T762 97T642 9T467 -24Q365 -24 292 8T173 96T104 226T82 385Q82 499
124 586T262 721Q187 772 149 855T111 1038Q111 1119 133 1190T201 1315T312 1399T467 1430ZM467 643Q362 643 308 574T254 385Q254 325 267 277T308 196T374 144T467 125Q519 125 559 143T626 195T666 277T680 385Q680 506 626 574T467 643ZM467 1280Q380 1280
330 1216T279 1036Q279 922 329 857T467 792Q554 792 605 857T657 1036Q657 1151 606 1215T467 1280Z" />
<glyph unicode="9" glyph-name="nine" horiz-adv-x="934" d="M448 1430Q543 1430 618 1396T745 1282T824 1070T852 743Q852 524 826 377T751 140T630 14T467 -24Q375 -24 309 10T201 106T139 251T119 432H289Q289 286 335 206T475 125Q536 125 575 162T637 267T669
433T680 653Q633 591 572 557T432 523Q343 523 277 558T168 654T103 798T82 975Q82 1080 109 1164T186 1308T302 1398T448 1430ZM459 1280Q406 1280 367 1256T303 1191T266 1094T254 975Q254 912 266 857T303 760T367 694T459 670Q512 670 551 694T615 759T653
856T666 975Q666 1038 654 1093T616 1190T551 1256T459 1280Z" />
<glyph unicode=":" glyph-name="colon" horiz-adv-x="467" d="M336 0H131V222H336V0ZM336 856H131V1077H336V856Z" />
<glyph unicode=";" glyph-name="semicolon" horiz-adv-x="467" d="M336 18L238 -254H131L213 0H131V222H336V18ZM336 856H131V1077H336V856Z" />
<glyph unicode="&lt;" glyph-name="less" horiz-adv-x="981" d="M893 848L256 521L893 192V8L91 410V628L893 1032V848Z" />
<glyph unicode="=" glyph-name="equal" horiz-adv-x="981" d="M891 651H88V824H891V651ZM891 217H88V387H891V217Z" />
<glyph unicode="&gt;" glyph-name="greater" horiz-adv-x="981" d="M893 628V410L91 8V192L727 521L91 848V1032L893 628Z" />
<glyph unicode="?" glyph-name="question" horiz-adv-x="934" d="M483 1430Q559 1430 624 1403T736 1328T811 1213T838 1065Q838 966 818 900T769 785T705 702T641 632T591 556T571 453V369H394V483Q394 552 413 601T460 690T522 765T584 839T632 926T651 1042Q651
1056 649 1079T641 1127T622 1179T589 1225T540 1259T469 1272Q404 1272 366 1242T307 1169T281 1079T275 996V973Q275 964 276 956Q276 947 277 940H95Q93 954 91 967Q89 978 89 990T88 1012Q88 1098 112 1174T186 1307T310 1397T483 1430ZM584 0H379V222H584V0Z"
/>
<glyph unicode="@" glyph-name="at" horiz-adv-x="1704" d="M875 1430Q1033 1430 1167 1387T1400 1250T1554 1010T1610 657Q1610 541 1593 451T1546 292T1477 177T1395 101T1307 58T1222 45Q1178 45 1147 54T1095 80T1060 120T1040 172H1032Q994 112 932 78T792
43Q757 43 713 53T630 92T564 175T537 317Q537 419 574 483T678 583T834 632T1032 645V772Q1032 807 1026 836T1002 887T954 919T877 931Q834 931 805 918T759 882T735 832T727 776V754H576Q574 763 574 772V794Q574 862 597 913T662 998T762 1050T889 1067Q1037
1067 1110 996T1184 792V256Q1184 214 1201 196T1254 178Q1294 178 1336 200T1412 277T1469 425T1491 660Q1491 834 1446 958T1319 1162T1123 1279T872 1317Q719 1317 597 1269T388 1124T256 880T210 535Q210 167 357 -16T809 -200Q841 -200 883 -195T969 -182T1052
-161T1117 -135V-258Q1087 -270 1047 -280T964 -298T880 -309T809 -313Q643 -313 511 -264T285 -110T143 154T93 537Q93 700 121 830T202 1059T326 1228T485 1343T671 1409T875 1430ZM1032 509Q958 509 896 502T790 476T722 421T697 327Q697 243 731 211T830 178Q866
178 902 193T967 238T1014 313T1032 420V509Z" />
<glyph unicode="A" glyph-name="A" horiz-adv-x="1120" d="M831 313H274L178 0H-2L444 1405H676L1122 0H928L831 313ZM324 477H780L590 1102Q584 1119 579 1145T568 1197Q563 1226 557 1257H549Q543 1225 538 1196Q533 1171 527 1145T516 1102L324 477Z" />
<glyph unicode="B" glyph-name="B" horiz-adv-x="1120" d="M133 1405H666Q744 1405 810 1381T925 1311T1000 1203T1028 1061Q1028 1000 1012 948T966 855T898 783T813 737V729Q865 713 910 681T989 603T1042 499T1061 373Q1061 284 1030 215T944 98T819 25T666
0H133V1405ZM313 637V164H641Q691 164 733 179T806 223T854 296T872 397Q872 445 855 488T807 565T730 617T629 637H313ZM313 1241V801H612Q664 801 706 819T778 867T824 937T840 1022Q840 1132 781 1186T625 1241H313Z" />
<glyph unicode="C" glyph-name="C" horiz-adv-x="1212" d="M639 1430Q746 1430 836 1397T991 1298T1092 1132T1129 897H944Q944 989 923 1058T861 1172T765 1241T639 1264Q454 1264 365 1138T275 754V651Q275 393 364 267T639 141Q710 141 767 163T865 231T928
344T950 503H1129Q1129 367 1093 268T991 104T836 8T639 -24Q366 -24 226 156T86 703Q86 1068 226 1249T639 1430Z" />
<glyph unicode="D" glyph-name="D" horiz-adv-x="1212" d="M143 0V1405H580Q704 1405 802 1362T970 1234T1075 1021T1112 723Q1112 543 1076 408T970 182T803 46T580 0H143ZM324 1241V164H563Q646 164 712 195T826 290T898 448T924 672V774Q924 891 899 979T826
1125T713 1212T563 1241H324Z" />
<glyph unicode="E" glyph-name="E" horiz-adv-x="1120" d="M143 0V1405H1010V1241H324V801H920V637H324V164H1022V0H143Z" />
<glyph unicode="F" glyph-name="F" horiz-adv-x="1026" d="M143 0V1405H954V1241H324V786H881V623H324V0H143Z" />
<glyph unicode="G" glyph-name="G" horiz-adv-x="1307" d="M1016 156Q951 60 860 18T653 -25Q520 -25 417 20T244 156T137 383T100 702Q100 885 139 1021T250 1249T427 1385T664 1430Q773 1430 866 1399T1028 1306T1135 1148T1174 926H989Q989 1013 965 1077T899
1182T796 1244T664 1264Q577 1264 508 1233T390 1138T315 978T289 754V651Q289 394 383 268T653 141Q828 141 908 240T989 541V573H625V731H1174V0H1055L1016 156Z" />
<glyph unicode="H" glyph-name="H" horiz-adv-x="1212" d="M1069 0H889V637H324V0H143V1405H324V801H889V1405H1069V0Z" />
<glyph unicode="I" glyph-name="I" horiz-adv-x="467" d="M323 0H143V1405H323V0Z" />
<glyph unicode="J" glyph-name="J" horiz-adv-x="840" d="M707 334Q707 158 618 67T367 -24Q205 -24 116 67T26 334V426H206V323Q206 233 247 187T367 141Q444 141 485 187T527 323V1405H707V334Z" />
<glyph unicode="K" glyph-name="K" horiz-adv-x="1120" d="M324 662L881 1405H1081L659 838L1096 0H891L549 686L324 436V0H143V1405H324V662Z" />
<glyph unicode="L" glyph-name="L" horiz-adv-x="934" d="M143 0V1405H324V164H897V0H143Z" />
<glyph unicode="M" glyph-name="M" horiz-adv-x="1399" d="M1092 0V1020Q1092 1038 1094 1074T1099 1147Q1102 1189 1106 1237H1098Q1089 1189 1080 1147Q1072 1111 1064 1075T1051 1020L770 0H608L328 1020Q326 1027 323 1040T317 1070T309 1106T302 1143Q294
1186 285 1237H276Q279 1187 282 1144Q284 1107 286 1071T289 1020V0H127V1405H401L649 483Q654 464 658 440T667 391T676 339T683 287Q690 229 696 168H705Q710 230 717 289Q723 339 731 392T750 483L999 1405H1272V0H1092Z" />
<glyph unicode="N" glyph-name="N" horiz-adv-x="1212" d="M1069 0H919L394 895Q380 918 365 949T335 1011Q319 1045 303 1083L297 1081Q299 1044 301 1010Q303 981 304 949T305 895V0H143V1405H299L822 523Q833 503 847 471T876 408Q891 372 907 334L913 336Q911
376 910 412Q908 443 908 474T907 523V1405H1069V0Z" />
<glyph unicode="O" glyph-name="O" horiz-adv-x="1307" d="M653 1430Q782 1430 885 1385T1059 1249T1168 1022T1206 703Q1206 520 1168 384T1059 157T885 21T653 -24Q524 -24 422 21T248 156T139 383T101 703Q101 886 139 1022T248 1249T421 1385T653 1430ZM653
1264Q569 1264 502 1233T387 1137T314 978T289 754V651Q289 523 314 427T386 268T501 173T653 141Q738 141 805 172T920 267T992 427T1018 651V754Q1018 882 993 977T920 1137T806 1232T653 1264Z" />
<glyph unicode="P" glyph-name="P" horiz-adv-x="1120" d="M324 580V0H143V1405H645Q749 1405 827 1375T959 1291T1038 1162T1065 995Q1065 902 1036 826T953 695T820 610T645 580H324ZM324 1241V743H639Q693 743 736 761T811 812T860 891T877 995Q877 1110 816
1175T639 1241H324Z" />
<glyph unicode="Q" glyph-name="Q" horiz-adv-x="1307" d="M100 702Q100 885 138 1021T247 1249T421 1385T653 1430Q782 1430 884 1385T1058 1249T1168 1022T1206 702Q1206 423 1118 251T872 14L1163 -254H922L678 -25H653Q524 -25 422 20T248 156T138 383T100
702ZM289 651Q289 523 314 427T386 268T501 173T653 141Q738 141 805 172T920 267T992 427T1018 651V754Q1018 882 993 978T920 1137T806 1232T653 1264Q569 1264 502 1233T387 1138T314 978T289 754V651Z" />
<glyph unicode="R" glyph-name="R" horiz-adv-x="1212" d="M1128 1016Q1128 885 1063 790T879 653L1161 0H961L700 621H324V0H143V1405H709Q812 1405 890 1377T1022 1297T1101 1175T1128 1016ZM324 1241V784H702Q756 784 800 800T875 847T923 921T940 1016Q940
1121 879 1181T702 1241H324Z" />
<glyph unicode="S" glyph-name="S" horiz-adv-x="1120" d="M559 1430Q650 1430 730 1408T871 1337T965 1214T1000 1034V1010H814V1040Q814 1094 795 1135T742 1205T662 1249T563 1264Q508 1264 461 1252T378 1216T323 1155T303 1067Q303 1004 334 963T417 892T533
840T667 795T801 743T918 670T1000 562T1032 406Q1032 288 996 206T897 73T746 -1T557 -24Q461 -24 375 -2T225 71T122 201T84 398Q84 409 85 421T86 438H273Q273 437 273 432T272 421T271 407T270 396Q270 331 291 284T349 204T438 157T549 141Q691 141 767 201T844
375Q844 441 813 484T730 558T613 611T479 656T345 708T228 782T145 892T113 1052Q113 1149 148 1220T243 1338T385 1407T559 1430Z" />
<glyph unicode="T" glyph-name="T" horiz-adv-x="1026" d="M39 1405H985V1241H602V0H422V1241H39V1405Z" />
<glyph unicode="U" glyph-name="U" horiz-adv-x="1212" d="M1069 457Q1069 338 1038 249T946 98T800 7T606 -24Q498 -24 412 6T266 98T175 248T143 457V1405H323V446Q323 297 398 219T606 141Q738 141 813 219T889 446V1405H1069V457Z" />
<glyph unicode="V" glyph-name="V" horiz-adv-x="1120" d="M676 0H444L16 1405H215L563 198H571L929 1405H1104L676 0Z" />
<glyph unicode="W" glyph-name="W" horiz-adv-x="1585" d="M1239 0H1006L834 953Q828 988 821 1035T808 1128Q801 1180 794 1234H786Q780 1180 773 1128Q767 1083 760 1036T747 953L580 0H346L20 1405H210L426 434Q433 403 440 360T454 278Q461 232 469 184H477Q481
222 486 263Q491 298 497 342T511 434L674 1405H923L1098 434Q1105 396 1112 353T1124 271Q1130 227 1135 184H1143L1157 274Q1163 312 1170 355T1186 434L1401 1405H1565L1239 0Z" />
<glyph unicode="X" glyph-name="X" horiz-adv-x="1120" d="M1067 1405L1049 1376Q1032 1347 1004 1301T938 1195T863 1074Q773 929 660 745L1112 0H899L553 574L200 0H8L457 729L49 1405H262L565 903Q651 1043 720 1153Q749 1200 777 1245T826 1325T861 1383L875
1405H1067Z" />
<glyph unicode="Y" glyph-name="Y" horiz-adv-x="1120" d="M651 582V0H471V582L16 1405H215L571 754H580L929 1405H1104L651 582Z" />
<glyph unicode="Z" glyph-name="Z" horiz-adv-x="1026" d="M41 0V78L709 1241H84V1405H967V1327L297 164H981V0H41Z" />
<glyph unicode="[" glyph-name="bracketleft" horiz-adv-x="467" d="M426 1372H256V-196H426V-329H101V1505H426V1372Z" />
<glyph unicode="\" glyph-name="backslash" horiz-adv-x="467" d="M467 -101H321L2 1505H145L467 -101Z" />
<glyph unicode="]" glyph-name="bracketright" horiz-adv-x="467" d="M367 -329H41V-196H210V1372H41V1505H367V-329Z" />
<glyph unicode="^" glyph-name="asciicircum" horiz-adv-x="788" d="M786 602H602L396 1248L192 602H8L287 1405H505L786 602Z" />
<glyph unicode="_" glyph-name="underscore" horiz-adv-x="934" d="M931 -254H0V-145H931V-254Z" />
<glyph unicode="`" glyph-name="grave" horiz-adv-x="559" d="M418 1210H277L55 1474L57 1481H242L418 1210Z" />
<glyph unicode="a" glyph-name="a" horiz-adv-x="934" d="M457 1102Q620 1102 701 1023T782 800V196Q782 158 800 142T840 125H905V8Q891 0 863 -8T794 -16Q728 -16 684 20T624 117H614Q572 50 505 13T352 -24Q325 -24 294 -20T232 -4T171 29T119 84T83 166T69
279Q69 390 110 460T224 570T397 624T614 639V778Q614 817 607 849T581 904T529 940T444 953Q396 953 365 938T314 899T287 844T279 782V758H113Q111 767 111 777V802Q111 876 136 932T208 1026T317 1083T457 1102ZM614 489Q532 489 465 482T349 452T273 391T246
289Q246 197 283 161T391 125Q431 125 470 141T542 191T594 274T614 391V489Z" />
<glyph unicode="b" glyph-name="b" horiz-adv-x="934" d="M272 125L250 0H123V1481H291V975H301Q329 1035 390 1068T530 1102Q597 1102 656 1070T758 969T827 794T852 541Q852 392 829 285T762 109T657 8T518 -25Q444 -25 383 13T283 125H272ZM676 578Q676 678
664 749T628 865T568 931T483 952Q291 952 291 569V500Q291 313 338 219T483 125Q531 125 567 146T628 212T664 328T676 500V578Z" />
<glyph unicode="c" glyph-name="c" horiz-adv-x="840" d="M442 1102Q530 1102 592 1075T695 993T753 860T772 678H598Q598 748 591 799T565 885T517 936T442 953Q342 953 296 859T250 578V499Q250 313 295 219T442 125Q487 125 518 143T569 196T597 282T606 400H772Q772
315 754 239T697 104T594 11T442 -24Q347 -24 278 9T163 112T96 288T74 539Q74 828 163 965T442 1102Z" />
<glyph unicode="d" glyph-name="d" horiz-adv-x="934" d="M811 0H684L662 125H651Q613 50 552 13T416 -24Q339 -24 277 8T172 110T105 285T82 541Q82 687 107 793T176 967T278 1069T404 1102Q482 1102 543 1069T633 975H643V1481H811V0ZM450 953Q402 953 366 932T306
866T270 750T258 578V499Q258 399 270 328T306 212T366 146T450 125Q548 125 595 219T643 499V569Q643 953 450 953Z" />
<glyph unicode="e" glyph-name="e" horiz-adv-x="934" d="M491 1102Q579 1102 646 1074T757 984T823 827T846 596V489H262Q263 301 320 213T497 125Q537 125 570 141T628 189T666 266T680 367H846Q846 276 821 204T749 81T637 3T493 -24Q393 -24 317 7T190 107T112
282T86 539Q86 828 187 965T491 1102ZM491 953Q435 953 395 933T327 874T285 776T264 639H670Q670 794 625 873T491 953Z" />
<glyph unicode="f" glyph-name="f" horiz-adv-x="467" d="M325 1497Q363 1497 402 1490T467 1472V1356H377Q329 1356 305 1331T281 1258V1077H467V927H281V0H113V927H18V1077H113V1250Q113 1296 123 1340T157 1419T223 1475T325 1497Z" />
<glyph unicode="g" glyph-name="g" horiz-adv-x="934" d="M893 1252Q893 1204 881 1162T846 1085T789 1028T713 993Q758 946 783 883T809 739Q809 656 785 589T715 476T607 404T465 377H352Q331 377 314 370T283 349T262 319T254 281Q254 261 262 244T283 213T314
192T352 184H660Q718 184 765 164T845 110T895 30T913 -67Q913 -131 893 -187T832 -284T733 -349T598 -373H293Q227 -373 177 -353T94 -298T43 -217T26 -117Q26 -78 36 -42T64 25T108 78T166 113Q124 139 101 182T78 275Q78 341 119 388T230 461Q171 509 138 578T105
739Q105 824 129 891T198 1005T309 1077T457 1102Q498 1102 538 1092T612 1063Q648 1082 672 1104T711 1151T733 1201T745 1252H893ZM319 24Q287 24 264 15T225 -12T202 -52T194 -101Q194 -127 202 -150T225 -190T264 -218T319 -228H616Q643 -228 666 -218T706
-191T733 -150T743 -101Q743 -75 736 -52T712 -12T673 14T616 24H319ZM455 963Q365 963 319 903T273 739Q273 631 319 574T455 517Q545 517 592 576T639 739Q639 848 592 905T455 963Z" />
<glyph unicode="h" glyph-name="h" horiz-adv-x="934" d="M291 965H303Q345 1037 404 1069T545 1102Q606 1102 655 1085T738 1029T792 928T811 776V0H643V764Q643 820 632 856T601 914T553 944T491 953Q451 953 415 933T352 875T308 782T291 657V0H123V1481H291V965Z" />
<glyph unicode="i" glyph-name="i" horiz-adv-x="373" d="M270 0H103V1077H270V0ZM270 1280H103V1481H270V1280Z" />
<glyph unicode="j" glyph-name="j" horiz-adv-x="373" d="M270 -125Q270 -171 260 -215T226 -295T160 -351T57 -373Q20 -373 -19 -365T-84 -348V-232H6Q54 -232 78 -207T103 -133V1077H270V-125ZM270 1280H103V1481H270V1280Z" />
<glyph unicode="k" glyph-name="k" horiz-adv-x="840" d="M291 578L639 1077H826L507 635L842 0H651L406 491L291 367V0H123V1481H291V578Z" />
<glyph unicode="l" glyph-name="l" horiz-adv-x="373" d="M270 0H103V1481H270V0Z" />
<glyph unicode="m" glyph-name="m" horiz-adv-x="1399" d="M1022 1102Q1079 1102 1125 1085T1205 1029T1257 928T1276 776V0H1108V764Q1108 820 1098 856T1068 914T1024 944T969 953Q931 953 898 933T839 875T799 782T784 657V0H616V764Q616 820 606 856T577 914T533
944T477 953Q439 953 406 933T347 875T306 782T291 657V0H123V1077H250L273 953H285Q328 1033 390 1067T531 1102Q610 1102 670 1066T760 946Q804 1023 874 1062T1022 1102Z" />
<glyph unicode="n" glyph-name="n" horiz-adv-x="934" d="M545 1102Q606 1102 655 1085T738 1029T792 928T811 776V0H643V764Q643 820 632 856T601 914T553 944T491 953Q451 953 415 933T352 875T308 782T291 657V0H123V1077H250L273 953H285Q330 1033 397 1067T545
1102Z" />
<glyph unicode="o" glyph-name="o" horiz-adv-x="934" d="M467 1102Q656 1102 754 965T852 539Q852 249 754 113T467 -24Q278 -24 180 112T82 539Q82 828 180 965T467 1102ZM467 953Q361 953 310 859T258 578V499Q258 313 309 219T467 125Q572 125 624 219T676
499V578Q676 765 624 859T467 953Z" />
<glyph unicode="p" glyph-name="p" horiz-adv-x="934" d="M519 1102Q595 1102 657 1069T762 967T828 792T852 537Q852 390 827 284T759 110T657 9T531 -24Q452 -24 391 7T301 95H291V-354H123V1077H250L273 953H283Q321 1026 382 1064T519 1102ZM483 953Q386 953
339 859T291 578V499Q291 313 338 219T483 125Q531 125 567 146T628 212T664 328T676 499V578Q676 678 664 749T628 866T568 932T483 953Z" />
<glyph unicode="q" glyph-name="q" horiz-adv-x="934" d="M662 952L684 1077H811V-354H643V94H633Q605 38 544 7T403 -25Q336 -25 278 7T176 109T107 284T82 537Q82 685 105 792T172 968T277 1069T416 1102Q490 1102 551 1065T651 952H662ZM258 500Q258 399 270
328T306 212T366 146T451 125Q548 125 595 219T643 500V578Q643 764 596 858T451 952Q403 952 367 931T306 865T270 749T258 578V500Z" />
<glyph unicode="r" glyph-name="r" horiz-adv-x="559" d="M467 1102Q484 1102 498 1099T523 1093L547 1085V911H491Q451 911 415 898T352 856T308 778T291 657V0H123V1077H250L273 936H285Q295 967 310 996T347 1049T398 1087T467 1102Z" />
<glyph unicode="s" glyph-name="s" horiz-adv-x="840" d="M428 1102Q503 1102 560 1079T657 1015T717 921T737 807Q737 796 736 784T735 768H561V786Q561 817 554 847T530 902T484 940T412 955Q367 955 339 940T295 903T272 855T266 807Q266 763 287 735T342 686T421
651T512 619T602 580T681 522T737 434T758 307Q758 220 732 158T660 55T551 -5T414 -24Q321 -24 255 2T148 73T87 174T67 291Q67 312 68 322T69 336H246V315Q246 264 259 228T297 169T353 134T422 123Q455 123 484 133T535 163T571 214T584 283Q584 334 563 367T508
422T429 461T339 495T248 534T170 589T114 672T93 794Q93 866 116 923T184 1019T289 1080T428 1102Z" />
<glyph unicode="t" glyph-name="t" horiz-adv-x="467" d="M289 1077H434V927H289V224Q289 176 313 151T385 125H434V8Q413 -4 379 -12T313 -20Q258 -20 221 1T162 58T131 137T121 228V927H28V1077H121L158 1376H289V1077Z" />
<glyph unicode="u" glyph-name="u" horiz-adv-x="934" d="M811 0H684L662 125H649Q604 44 537 10T389 -24Q329 -24 280 -7T196 48T142 149T123 301V1077H291V313Q291 257 302 221T333 163T380 134T442 125Q482 125 518 145T582 203T626 295T643 420V1077H811V0Z" />
<glyph unicode="v" glyph-name="v" horiz-adv-x="840" d="M511 0H329L20 1077H204L424 258H432L651 1077H822L511 0Z" />
<glyph unicode="w" glyph-name="w" horiz-adv-x="1212" d="M940 0H754L641 614Q633 656 628 700T617 780Q612 822 608 862H600Q596 822 591 780Q586 744 581 700T567 614L457 0H270L2 1077H186L321 471Q329 438 336 394T350 310Q357 263 364 215H373Q377 257 382
301Q387 339 392 384T406 471L515 1077H709L820 471Q827 429 832 385T843 302Q848 258 852 215H860Q865 254 872 297Q877 334 885 379T903 471L1038 1077H1208L940 0Z" />
<glyph unicode="x" glyph-name="x" horiz-adv-x="840" d="M511 559L828 0H624L414 394L196 0H12L325 545L26 1077H230L424 709L624 1077H814L511 559Z" />
<glyph unicode="y" glyph-name="y" horiz-adv-x="840" d="M547 55Q523 -33 492 -111T420 -247T324 -339T198 -373Q163 -373 134 -370T78 -356V-240H137Q171 -240 203 -229T263 -189T313 -115T350 0L20 1077H204L442 242H450L651 1077H822L547 55Z" />
<glyph unicode="z" glyph-name="z" horiz-adv-x="840" d="M758 1000L283 149H784V0H53V80L527 927H86V1077H758V1000Z" />
<glyph unicode="{" glyph-name="braceleft" horiz-adv-x="561" d="M521 1388Q493 1388 464 1383T412 1361T373 1317T358 1243Q358 1137 354 1034T344 822Q342 769 333 728T302 659T247 615T164 600V580Q213 580 247 565T302 522T332 452T344 358Q349 250 353 147T358
-63Q358 -108 373 -136T411 -181T464 -202T521 -208V-325Q457 -325 399 -314T296 -271T225 -179T198 -22V381Q198 415 184 438T148 476T97 497T41 503V676Q69 676 97 682T147 703T184 740T198 798V1202Q198 1299 224 1358T295 1450T398 1494T521 1505V1388Z" />
<glyph unicode="|" glyph-name="bar" horiz-adv-x="436" d="M299 -354H137V1481H299V-354Z" />
<glyph unicode="}" glyph-name="braceright" horiz-adv-x="561" d="M41 1505Q104 1505 162 1494T265 1451T335 1359T362 1202V798Q362 764 376 741T413 703T464 683T521 676V503Q493 503 465 497T414 477T377 439T362 381V-22Q362 -119 336 -178T265 -270T163
-314T41 -325V-208Q69 -208 97 -203T149 -181T187 -137T202 -63Q202 43 207 146T217 358Q219 410 229 451T260 521T314 565T398 580V600Q348 600 315 615T260 658T229 728T217 822Q212 930 207 1033T202 1243Q202 1288 187 1316T149 1361T98 1382T41 1388V1505Z"
/>
<glyph unicode="~" glyph-name="asciitilde" horiz-adv-x="981" d="M668 645Q702 645 733 655T790 682T838 716T874 751T899 779Q907 790 909 792V606Q884 564 849 531Q819 503 774 480T668 457Q620 457 577 476T492 519T406 562T313 582Q261 582 218 560T142
510T92 459T71 432V620Q97 662 132 695Q162 723 207 746T313 770Q361 770 404 751T489 708T575 665T668 645Z" />
<glyph unicode="&#xa0;" glyph-name="uni00A0" horiz-adv-x="467" />
<glyph unicode="&#xa1;" glyph-name="exclamdown" horiz-adv-x="559" d="M383 727Q388 634 393 528T403 315T413 105T422 -84T429 -234T436 -327H204Q221 -64 232 199T256 727H383ZM424 856H219V1077H424V856Z" />
<glyph unicode="&#xa2;" glyph-name="cent" horiz-adv-x="934" d="M531 1264Q611 1257 668 1227T762 1143T816 1014T834 842H660Q660 965 632 1030T531 1112V293Q606 308 637 376T668 563H834Q834 484 817 412T764 282T670 187T531 141V-101H430V141Q259 160 179
296T99 703Q99 971 179 1108T430 1262V1481H531V1264ZM430 1108Q348 1086 312 994T275 741V664Q275 501 310 410T430 295V1108Z" />
<glyph unicode="&#xa3;" glyph-name="sterling" horiz-adv-x="934" d="M517 1430Q592 1430 653 1409T756 1341T822 1218T846 1032V1006H678V1038Q678 1163 637 1221T517 1280Q438 1280 397 1226T356 1055V770H628V622H354L336 162H846V0H61V162H186V622H39V770H186V1022Q186
1226 273 1328T517 1430Z" />
<glyph unicode="&#xa4;" glyph-name="currency" horiz-adv-x="934" d="M467 1206Q549 1206 622 1174T754 1085L842 1173L940 1075L840 975Q874 915 892 846T911 701Q911 623 893 554T840 426L940 325L842 228L754 315Q695 260 622 228T467 196Q383 196 311 228T180
315L93 228L-6 325L95 426Q60 484 41 553T22 701Q22 776 41 845T95 975L-6 1075L93 1173L178 1085Q237 1142 310 1174T467 1206ZM467 1065Q403 1065 348 1037T251 959T186 843T162 701Q162 625 185 559T250 444T347 367T467 338Q530 338 585 366T681 444T746 559T770
701Q770 777 747 843T682 958T585 1036T467 1065Z" />
<glyph unicode="&#xa5;" glyph-name="yen" horiz-adv-x="934" d="M620 756H883V622H557V479H883V346H557V0H377V346H51V479H377V622H51V756H313L4 1405H198L477 805H485L758 1405H927L620 756Z" />
<glyph unicode="&#xa6;" glyph-name="brokenbar" horiz-adv-x="436" d="M299 703H137V1481H299V703ZM299 -354H137V424H299V-354Z" />
<glyph unicode="&#xa7;" glyph-name="section" horiz-adv-x="934" d="M495 1430Q571 1430 629 1407T726 1343T785 1249T805 1135Q805 1124 804 1112T802 1095H628V1115Q628 1146 621 1176T597 1229T551 1267T479 1282Q435 1282 407 1268T363 1231T340 1183T334
1135Q334 1078 355 1037T410 964T489 906T580 853T670 795T749 722T805 624T826 489Q826 439 814 397T781 321T735 259T682 213Q708 190 730 163T769 102T795 27T805 -65Q805 -137 783 -194T717 -290T612 -351T469 -373Q394 -373 336 -350T239 -286T180 -192T160
-78Q160 -67 161 -55T162 -39H336V-57Q336 -89 343 -119T367 -173T413 -211T485 -226Q529 -226 557 -211T601 -174T624 -126T630 -78Q630 -21 609 20T554 94T475 152T385 204T294 262T216 335T160 433T139 567Q139 617 151 659T183 736T230 796T283 842Q228 888
194 954T160 1123Q160 1194 182 1251T248 1347T353 1408T495 1430ZM373 776Q340 751 322 709T303 610Q303 540 329 492T396 407T488 341T590 279Q622 305 642 347T662 446Q662 516 636 564T569 649T476 715T373 776Z" />
<glyph unicode="&#xa8;" glyph-name="dieresis" horiz-adv-x="559" d="M523 1286H344V1481H523V1286ZM215 1286H37V1481H215V1286Z" />
<glyph unicode="&#xa9;" glyph-name="copyright" horiz-adv-x="1237" d="M618 1430Q753 1430 859 1379T1040 1232T1154 1003T1194 703Q1194 537 1155 403T1041 174T860 28T618 -24Q484 -24 377 27T196 173T83 402T43 703Q43 869 82 1003T196 1232T377 1378T618
1430ZM622 1143Q685 1143 738 1124T829 1065T889 968T911 830H792Q792 935 746 985T622 1036Q517 1036 468 964T418 745V684Q418 537 467 464T622 391Q701 391 748 442T796 596H911Q911 516 890 458T830 361T738 304T622 285Q461 285 379 391T297 713Q297 931 379
1037T622 1143ZM618 1333Q506 1333 417 1289T266 1162T170 963T137 703Q137 559 170 442T265 243T417 116T618 71Q730 71 819 115T971 242T1066 442T1100 703Q1100 846 1067 962T971 1161T820 1288T618 1333Z" />
<glyph unicode="&#xaa;" glyph-name="ordfeminine" horiz-adv-x="621" d="M305 1505Q418 1505 473 1452T529 1301V895Q529 870 540 860T563 850H610V766Q599 758 579 753T533 747Q488 747 457 771T414 836Q385 791 339 766T236 741Q208 741 174 748T111 778T61
840T41 948Q41 1025 68 1073T145 1149T261 1186T408 1196V1284Q408 1309 403 1330T386 1366T352 1390T299 1399Q268 1399 247 1389T214 1363T196 1327T190 1286V1266H69V1301Q69 1352 86 1390T135 1453T210 1492T305 1505ZM408 1087Q355 1087 311 1082T235 1063T186
1022T168 955Q168 896 191 873T262 850Q287 850 313 860T360 893T394 947T408 1024V1087Z" />
<glyph unicode="&#xab;" glyph-name="guillemotleft" horiz-adv-x="934" d="M624 668L854 258H711L420 668L711 1077H854L624 668ZM313 668L545 258H400L111 668L400 1077H545L313 668Z" />
<glyph unicode="&#xac;" glyph-name="logicalnot" horiz-adv-x="981" d="M891 404H719V737H80V927H891V404Z" />
<glyph unicode="&#xad;" glyph-name="uni00AD" horiz-adv-x="559" d="M537 453H20V653H537V453Z" />
<glyph unicode="&#xae;" glyph-name="registered" horiz-adv-x="1237" d="M618 1430Q753 1430 859 1379T1040 1232T1154 1003T1194 703Q1194 537 1155 403T1041 174T860 28T618 -24Q484 -24 377 27T196 173T83 402T43 703Q43 869 82 1003T196 1232T377 1378T618
1430ZM618 1333Q506 1333 417 1289T266 1162T170 963T137 703Q137 559 170 442T265 243T417 116T618 71Q730 71 819 115T971 242T1066 442T1100 703Q1100 846 1067 962T971 1161T820 1288T618 1333ZM686 1127Q731 1127 770 1112T837 1070T881 1004T897 919Q897
883 887 852T860 796T819 754T768 727V719Q777 715 797 703T838 665T875 599T891 499Q891 456 894 428T905 383T923 357T948 342V307Q940 304 923 301T889 297Q866 297 845 304T808 330T782 378T772 453Q772 516 759 556T727 620T684 653T639 662H473V303H356V1127H686ZM473
1018V770H643Q705 770 740 806T776 897Q776 956 741 987T649 1018H473Z" />
<glyph unicode="&#xaf;" glyph-name="overscore" horiz-adv-x="559" d="M537 1226H24V1374H537V1226Z" />
<glyph unicode="&#xb0;" glyph-name="degree" horiz-adv-x="819" d="M406 1430Q463 1430 513 1409T601 1350T660 1262T682 1153Q682 1096 661 1046T602 958T514 899T406 877Q348 877 298 898T210 957T151 1045T129 1153Q129 1211 150 1261T209 1349T297 1408T406
1430ZM406 1319Q371 1319 341 1306T287 1271T251 1218T238 1153Q238 1118 251 1088T287 1035T340 999T406 985Q440 985 470 998T522 1034T558 1087T571 1153Q571 1188 558 1218T523 1270T470 1306T406 1319Z" />
<glyph unicode="&#xb1;" glyph-name="plusminus" horiz-adv-x="1124" d="M645 807H963V635H645V260H475V635H160V807H475V1184H645V807ZM963 0H160V170H963V0Z" />
<glyph unicode="&#xb2;" glyph-name="twosuperior" horiz-adv-x="559" d="M289 1505Q335 1505 376 1493T448 1454T497 1385T515 1282Q515 1231 497 1184T451 1092T389 1008T321 931Q292 899 259 865T206 788H517V660H49V692Q49 755 73 808T134 909T214 1000T293
1088T354 1180T379 1282Q379 1299 375 1317T361 1350T332 1374T287 1384Q261 1384 243 1374T213 1345T196 1302T190 1250V1186H61Q60 1195 59 1206Q58 1215 58 1226T57 1248Q57 1316 76 1365T127 1445T201 1490T289 1505Z" />
<glyph unicode="&#xb3;" glyph-name="threesuperior" horiz-adv-x="559" d="M285 1505Q336 1505 377 1490T447 1445T493 1371T509 1270Q509 1201 484 1159T412 1087Q460 1063 491 1013T523 891Q523 833 506 788T457 712T383 664T289 647Q171 647 109 715T47 903V925H178V899Q178
764 281 764Q332 764 363 796T394 897Q394 935 385 959T359 998T322 1018T279 1024H206V1141H281Q321 1141 351 1171T381 1264Q381 1329 353 1358T287 1388Q247 1388 219 1357T190 1260V1232H61V1270Q61 1324 77 1367T124 1441T195 1488T285 1505Z" />
<glyph unicode="&#xb4;" glyph-name="acute" horiz-adv-x="559" d="M501 1474L281 1210H139L315 1481H499L501 1474Z" />
<glyph unicode="&#xb5;" glyph-name="mu" horiz-adv-x="934" d="M811 0H684L662 125H649Q604 44 537 10T389 -24Q361 -24 337 -21T291 -10V-354H123V1077H291V291Q291 242 302 210T334 159T382 133T442 125Q482 125 518 145T582 203T626 295T643 420V1077H811V0Z" />
<glyph unicode="&#xb6;" glyph-name="paragraph" horiz-adv-x="901" d="M858 1280H760V-354H624V1280H517V-354H383V511Q309 521 246 559T137 657T64 793T37 957Q37 1050 67 1131T151 1273T275 1369T430 1405H858V1280Z" />
<glyph unicode="&#xb7;" glyph-name="middot" horiz-adv-x="467" d="M336 590H129V818H336V590Z" />
<glyph unicode="&#xb8;" glyph-name="cedilla" horiz-adv-x="559" d="M293 -74Q326 -76 356 -84T409 -107T445 -147T459 -206Q459 -258 438 -290T384 -341T314 -366T246 -373Q202 -373 157 -369T74 -356V-256H230Q264 -256 283 -246T303 -206Q303 -182 289 -170T234
-158H166L194 22H307L293 -74Z" />
<glyph unicode="&#xb9;" glyph-name="onesuperior" horiz-adv-x="559" d="M371 778H521V660H82V778H244V1307H80V1395Q104 1398 134 1406T195 1426T257 1452T311 1483H371V778Z" />
<glyph unicode="&#xba;" glyph-name="ordmasculine" horiz-adv-x="612" d="M305 1505Q434 1505 500 1412T567 1123Q567 925 501 832T305 739Q177 739 110 832T43 1123Q43 1319 110 1412T305 1505ZM305 1397Q236 1397 203 1335T170 1149V1095Q170 971 203 910T305
848Q442 848 442 1095V1149Q442 1397 305 1397Z" />
<glyph unicode="&#xbb;" glyph-name="guillemotright" horiz-adv-x="934" d="M824 668L535 258H389L620 668L389 1077H535L824 668ZM515 668L224 258H80L309 668L80 1077H224L515 668Z" />
<glyph unicode="&#xbc;" glyph-name="onequarter" horiz-adv-x="1401" d="M364 -24H236L1087 1430H1214L364 -24ZM354 701H503V582H65V701H228V1228H63V1317Q87 1320 117 1328T179 1348T241 1374T295 1405H354V701ZM1137 846Q1120 768 1093 688T1037 535T980 405T931
313H1106V499Q1113 518 1123 544T1143 601T1162 664T1178 727H1232V313H1315V196H1232V0H1106V196H796V303Q862 421 917 562T1010 846H1137Z" />
<glyph unicode="&#xbd;" glyph-name="onehalf" horiz-adv-x="1401" d="M342 -24H213L1065 1430H1192L342 -24ZM354 701H503V582H65V701H228V1228H63V1317Q87 1320 117 1328T179 1348T241 1374T295 1405H354V701ZM1085 846Q1131 846 1172 834T1244 794T1293 725T1311
622Q1311 571 1293 524T1248 433T1186 349T1119 273Q1089 241 1056 206T1004 129H1313V0H846V33Q846 96 870 149T931 250T1011 341T1090 429T1151 520T1176 622Q1176 639 1172 657T1158 691T1129 715T1083 725Q1057 725 1039 715T1010 686T993 643T987 590V527H858Q857
536 856 547Q855 556 855 566T854 588Q854 656 873 705T924 785T997 831T1085 846Z" />
<glyph unicode="&#xbe;" glyph-name="threequarters" horiz-adv-x="1401" d="M348 -24H219L1071 1430H1198L348 -24ZM293 1430Q344 1430 385 1415T456 1369T502 1295T519 1194Q519 1125 493 1083T420 1012Q468 987 499 938T531 816Q531 758 514 713T465 636T391
588T297 571Q179 571 117 640T55 828V850H186V824Q186 688 289 688Q340 688 371 720T402 822Q402 859 393 883T367 922T330 942T287 948H215V1065H289Q329 1065 359 1095T389 1188Q389 1254 361 1283T295 1313Q255 1313 227 1282T198 1184V1157H69V1194Q69 1248
85 1291T132 1365T203 1413T293 1430ZM1137 846Q1120 768 1093 688T1037 535T980 405T931 313H1106V499Q1113 518 1123 544T1143 601T1162 664T1178 727H1232V313H1315V196H1232V0H1106V196H796V303Q862 421 917 562T1010 846H1137Z" />
<glyph unicode="&#xbf;" glyph-name="questiondown" horiz-adv-x="1026" d="M588 594Q588 524 569 474T521 384T459 308T396 233T348 144T329 26Q329 12 331 -9T341 -55T361 -104T395 -149T448 -181T523 -194Q585 -194 621 -165T677 -92T701 -2T707 82Q707 94
707 104T706 122Q705 131 705 137H887Q888 124 890 111Q891 100 892 88T893 65Q893 -25 869 -101T797 -233T677 -320T507 -352Q429 -352 363 -326T247 -253T171 -141T143 4Q143 99 163 164T212 278T276 363T340 437T390 518T410 624V709H588V594ZM602 856H398V1077H602V856Z"
/>
<glyph unicode="&#xc0;" glyph-name="Agrave" horiz-adv-x="1120" d="M541 1538L319 1802L322 1808H506L682 1538H541ZM831 313H274L178 0H-2L444 1405H676L1122 0H928L831 313ZM324 477H780L590 1102Q584 1119 579 1145T568 1197Q563 1226 557 1257H549Q543 1225
538 1196Q533 1171 527 1145T516 1102L324 477Z" />
<glyph unicode="&#xc1;" glyph-name="Aacute" horiz-adv-x="1120" d="M580 1538H438L614 1808H799L801 1802L580 1538ZM831 313H274L178 0H-2L444 1405H676L1122 0H928L831 313ZM324 477H780L590 1102Q584 1119 579 1145T568 1197Q563 1226 557 1257H549Q543 1225
538 1196Q533 1171 527 1145T516 1102L324 477Z" />
<glyph unicode="&#xc2;" glyph-name="Acircumflex" horiz-adv-x="1120" d="M815 1530H651L561 1692L469 1530H305L481 1806H641L815 1530ZM831 313H274L178 0H-2L444 1405H676L1122 0H928L831 313ZM324 477H780L590 1102Q584 1119 579 1145T568 1197Q563 1226
557 1257H549Q543 1225 538 1196Q533 1171 527 1145T516 1102L324 477Z" />
<glyph unicode="&#xc3;" glyph-name="Atilde" horiz-adv-x="1120" d="M858 1808Q858 1773 849 1735T818 1666T764 1615T684 1595Q651 1595 622 1605T564 1627T507 1649T449 1659Q421 1659 403 1645T381 1595H260Q260 1631 270 1668T301 1737T355 1788T434 1808Q467
1808 496 1799T554 1778T611 1757T670 1747Q698 1747 716 1760T739 1808H858ZM831 313H274L178 0H-2L444 1405H676L1122 0H928L831 313ZM324 477H780L590 1102Q584 1119 579 1145T568 1197Q563 1226 557 1257H549Q543 1225 538 1196Q533 1171 527 1145T516 1102L324
477Z" />
<glyph unicode="&#xc4;" glyph-name="Adieresis" horiz-adv-x="1120" d="M803 1614H625V1808H803V1614ZM496 1614H317V1808H496V1614ZM831 313H274L178 0H-2L444 1405H676L1122 0H928L831 313ZM324 477H780L590 1102Q584 1119 579 1145T568 1197Q563 1226 557
1257H549Q543 1225 538 1196Q533 1171 527 1145T516 1102L324 477Z" />
<glyph unicode="&#xc5;" glyph-name="Aring" horiz-adv-x="1120" d="M559 1874Q601 1874 637 1859T700 1816T741 1753T756 1677Q756 1636 741 1601T700 1539T637 1497T559 1481Q519 1481 484 1496T421 1537T378 1600T362 1677Q362 1718 377 1754T420 1816T482
1858T559 1874ZM559 1782Q538 1782 520 1774T487 1751T464 1718T455 1677Q455 1656 463 1637T486 1604T519 1581T559 1573Q580 1573 599 1581T632 1603T655 1637T664 1677Q664 1699 656 1718T633 1751T599 1773T559 1782ZM831 313H274L178 0H-2L444 1405H676L1122
0H928L831 313ZM324 477H780L590 1102Q584 1119 579 1145T568 1197Q563 1226 557 1257H549Q543 1225 538 1196Q533 1171 527 1145T516 1102L324 477Z" />
<glyph unicode="&#xc6;" glyph-name="AE" horiz-adv-x="1679" d="M928 0L858 313H299L178 0H-2L571 1405H1591V1241H840L940 801H1501V637H977L1083 164H1604V0H928ZM362 477H823L684 1112Q679 1129 675 1151T668 1193Q664 1216 662 1239H653Q646 1215 638 1192Q631
1172 624 1151T610 1112L362 477Z" />
<glyph unicode="&#xc7;" glyph-name="Ccedilla" horiz-adv-x="1212" d="M639 1430Q746 1430 836 1397T991 1298T1092 1132T1129 897H944Q944 989 923 1058T861 1172T765 1241T639 1264Q454 1264 365 1138T275 754V651Q275 393 364 267T639 141Q710 141 767 163T865
231T928 344T950 503H1129Q1129 367 1093 268T991 104T837 8T640 -24L633 -74Q666 -76 696 -84T749 -107T785 -147T799 -206Q799 -258 778 -290T724 -341T654 -366T586 -373Q542 -373 497 -369T414 -356V-256H570Q604 -256 623 -246T643 -206Q643 -182 629 -170T574
-158H506L528 -16Q309 18 198 197T86 703Q86 1068 226 1249T639 1430Z" />
<glyph unicode="&#xc8;" glyph-name="Egrave" horiz-adv-x="1120" d="M541 1538L319 1802L322 1808H506L682 1538H541ZM143 0V1405H1010V1241H324V801H920V637H324V164H1022V0H143Z" />
<glyph unicode="&#xc9;" glyph-name="Eacute" horiz-adv-x="1120" d="M580 1538H438L614 1808H799L801 1802L580 1538ZM143 0V1405H1010V1241H324V801H920V637H324V164H1022V0H143Z" />
<glyph unicode="&#xca;" glyph-name="Ecircumflex" horiz-adv-x="1120" d="M815 1530H651L561 1692L469 1530H305L481 1806H641L815 1530ZM143 0V1405H1010V1241H324V801H920V637H324V164H1022V0H143Z" />
<glyph unicode="&#xcb;" glyph-name="Edieresis" horiz-adv-x="1120" d="M803 1614H625V1808H803V1614ZM496 1614H317V1808H496V1614ZM143 0V1405H1010V1241H324V801H920V637H324V164H1022V0H143Z" />
<glyph unicode="&#xcc;" glyph-name="Igrave" horiz-adv-x="467" d="M143 0V1405H323V0H143ZM215 1538L-7 1802L-5 1809H180L356 1538H215Z" />
<glyph unicode="&#xcd;" glyph-name="Iacute" horiz-adv-x="467" d="M143 0V1405H323V0H143ZM254 1538H112L288 1809H472L474 1802L254 1538Z" />
<glyph unicode="&#xce;" glyph-name="Icircumflex" horiz-adv-x="467" d="M323 0H143V1405H323V0ZM490 1530H326L236 1692L143 1530H-22L155 1807H315L490 1530Z" />
<glyph unicode="&#xcf;" glyph-name="Idieresis" horiz-adv-x="467" d="M323 0H143V1405H323V0ZM477 1614H298V1809H477V1614ZM169 1614H-9V1809H169V1614Z" />
<glyph unicode="&#xd0;" glyph-name="Eth" horiz-adv-x="1212" d="M10 793H143V1405H580Q704 1405 802 1362T970 1234T1075 1021T1112 723Q1112 543 1076 408T970 182T803 46T580 0H143V662H10V793ZM324 1241V793H645V662H324V164H563Q646 164 712 195T826 290T898
448T924 672V774Q924 891 899 979T826 1125T713 1212T563 1241H324Z" />
<glyph unicode="&#xd1;" glyph-name="Ntilde" horiz-adv-x="1212" d="M1069 0H919L394 895Q380 918 365 949T335 1011Q319 1045 303 1083L297 1081Q299 1044 301 1010Q303 981 304 949T305 895V0H143V1405H299L822 523Q833 503 847 471T876 408Q891 372 907 334L913
336Q911 376 910 412Q908 443 908 474T907 523V1405H1069V0ZM905 1809Q905 1773 895 1736T864 1667T810 1616T731 1596Q698 1596 668 1606T610 1627T553 1649T495 1659Q467 1659 449 1645T426 1596H307Q307 1631 317 1669T348 1738T402 1789T481 1809Q514 1809
543 1799T601 1778T658 1756T716 1746Q744 1746 762 1760T786 1809H905Z" />
<glyph unicode="&#xd2;" glyph-name="Ograve" horiz-adv-x="1307" d="M653 1430Q782 1430 885 1385T1059 1249T1168 1022T1206 703Q1206 520 1168 384T1059 157T885 21T653 -24Q524 -24 422 21T248 156T139 383T101 703Q101 886 139 1022T248 1249T421 1385T653
1430ZM653 1264Q569 1264 502 1233T387 1137T314 978T289 754V651Q289 523 314 427T386 268T501 173T653 141Q738 141 805 172T920 267T992 427T1018 651V754Q1018 882 993 977T920 1137T806 1232T653 1264ZM635 1538L413 1802L415 1809H600L776 1538H635Z" />
<glyph unicode="&#xd3;" glyph-name="Oacute" horiz-adv-x="1307" d="M653 1430Q782 1430 885 1385T1059 1249T1168 1022T1206 703Q1206 520 1168 384T1059 157T885 21T653 -24Q524 -24 422 21T248 156T139 383T101 703Q101 886 139 1022T248 1249T421 1385T653
1430ZM653 1264Q569 1264 502 1233T387 1137T314 978T289 754V651Q289 523 314 427T386 268T501 173T653 141Q738 141 805 172T920 267T992 427T1018 651V754Q1018 882 993 977T920 1137T806 1232T653 1264ZM674 1538H532L708 1809H892L894 1802L674 1538Z" />
<glyph unicode="&#xd4;" glyph-name="Ocircumflex" horiz-adv-x="1307" d="M653 1430Q782 1430 885 1385T1059 1249T1168 1022T1206 703Q1206 520 1168 384T1059 157T885 21T653 -24Q524 -24 422 21T248 156T139 383T101 703Q101 886 139 1022T248 1249T421 1385T653
1430ZM653 1264Q569 1264 502 1233T387 1137T314 978T289 754V651Q289 523 314 427T386 268T501 173T653 141Q738 141 805 172T920 267T992 427T1018 651V754Q1018 882 993 977T920 1137T806 1232T653 1264ZM910 1530H746L656 1692L563 1530H399L575 1807H735L910
1530Z" />
<glyph unicode="&#xd5;" glyph-name="Otilde" horiz-adv-x="1307" d="M653 1430Q782 1430 885 1385T1059 1249T1168 1022T1206 703Q1206 520 1168 384T1059 157T885 21T653 -24Q524 -24 422 21T248 156T139 383T101 703Q101 886 139 1022T248 1249T421 1385T653
1430ZM653 1264Q569 1264 502 1233T387 1137T314 978T289 754V651Q289 523 314 427T386 268T501 173T653 141Q738 141 805 172T920 267T992 427T1018 651V754Q1018 882 993 977T920 1137T806 1232T653 1264ZM953 1809Q953 1773 943 1736T912 1667T858 1616T779
1596Q746 1596 716 1606T658 1627T601 1649T543 1659Q515 1659 497 1645T474 1596H355Q355 1631 365 1669T396 1738T450 1789T529 1809Q562 1809 591 1799T649 1778T706 1756T764 1746Q792 1746 810 1760T834 1809H953Z" />
<glyph unicode="&#xd6;" glyph-name="Odieresis" horiz-adv-x="1307" d="M653 1430Q782 1430 885 1385T1059 1249T1168 1022T1206 703Q1206 520 1168 384T1059 157T885 21T653 -24Q524 -24 422 21T248 156T139 383T101 703Q101 886 139 1022T248 1249T421 1385T653
1430ZM653 1264Q569 1264 502 1233T387 1137T314 978T289 754V651Q289 523 314 427T386 268T501 173T653 141Q738 141 805 172T920 267T992 427T1018 651V754Q1018 882 993 977T920 1137T806 1232T653 1264ZM897 1614H718V1809H897V1614ZM589 1614H411V1809H589V1614Z"
/>
<glyph unicode="&#xd7;" glyph-name="multiply" horiz-adv-x="981" d="M820 955Q849 923 876 894T931 834L618 523L931 213Q902 182 875 153T820 93Q741 169 662 245T505 400L190 93Q163 123 135 152T78 213L391 523L78 834Q107 865 135 894T190 955L505 643L820 955Z" />
<glyph unicode="&#xd8;" glyph-name="Oslash" horiz-adv-x="1307" d="M1059 1248Q1130 1157 1168 1021T1206 703Q1206 520 1168 384T1059 157T885 21T653 -24Q556 -24 475 0T327 76L234 -76H103L248 156Q176 247 139 383T101 703Q101 886 139 1022T248 1249T421
1385T653 1430Q849 1430 979 1327L1075 1481H1206L1059 1248ZM422 228Q510 141 653 141Q738 141 805 172T920 267T992 427T1018 651V754Q1018 856 1002 937T955 1079L422 228ZM653 1264Q569 1264 502 1233T387 1137T314 978T289 754V651Q289 548 305 467T352 323L885
1176Q792 1264 653 1264Z" />
<glyph unicode="&#xd9;" glyph-name="Ugrave" horiz-adv-x="1212" d="M1069 457Q1069 338 1038 249T946 98T800 7T606 -24Q498 -24 412 6T266 98T175 248T143 457V1405H323V446Q323 297 398 219T606 141Q738 141 813 219T889 446V1405H1069V457ZM587 1538L365
1802L367 1809H552L728 1538H587Z" />
<glyph unicode="&#xda;" glyph-name="Uacute" horiz-adv-x="1212" d="M1069 457Q1069 338 1038 249T946 98T800 7T606 -24Q498 -24 412 6T266 98T175 248T143 457V1405H323V446Q323 297 398 219T606 141Q738 141 813 219T889 446V1405H1069V457ZM626 1538H484L660
1809H844L846 1802L626 1538Z" />
<glyph unicode="&#xdb;" glyph-name="Ucircumflex" horiz-adv-x="1212" d="M1069 457Q1069 338 1038 249T946 98T800 7T606 -24Q498 -24 412 6T266 98T175 248T143 457V1405H323V446Q323 297 398 219T606 141Q738 141 813 219T889 446V1405H1069V457ZM862 1530H698L608
1692L515 1530H351L527 1807H687L862 1530Z" />
<glyph unicode="&#xdc;" glyph-name="Udieresis" horiz-adv-x="1212" d="M1069 457Q1069 338 1038 249T946 98T800 7T606 -24Q498 -24 412 6T266 98T175 248T143 457V1405H323V446Q323 297 398 219T606 141Q738 141 813 219T889 446V1405H1069V457ZM849 1614H670V1809H849V1614ZM541
1614H363V1809H541V1614Z" />
<glyph unicode="&#xdd;" glyph-name="Yacute" horiz-adv-x="1120" d="M651 0H471V582L16 1405H215L571 754H580L929 1405H1104L651 582V0ZM580 1538H438L614 1809H798L800 1802L580 1538Z" />
<glyph unicode="&#xde;" glyph-name="Thorn" horiz-adv-x="1120" d="M324 1126H645Q749 1126 827 1097T959 1013T1038 884T1065 717Q1065 624 1036 548T953 416T820 331T645 301H324V0H143V1405H324V1126ZM324 963V465H639Q693 465 736 483T811 534T860 613T877
717Q877 831 816 897T639 963H324Z" />
<glyph unicode="&#xdf;" glyph-name="germandbls" horiz-adv-x="1026" d="M521 1505Q603 1505 673 1479T795 1404T876 1284T905 1123Q905 1072 891 1023T852 932T790 858T711 809V800Q763 781 806 744T881 659T930 554T948 438Q948 339 917 258T830 120T700 32T539
0H385V152H523Q576 152 622 174T702 236T756 327T776 440Q776 497 757 547T703 635T622 695T523 717H385V866H505Q552 866 593 886T666 940T715 1020T733 1117Q733 1171 719 1215T676 1290T606 1339T509 1356Q455 1356 411 1338T335 1282T287 1190T270 1061V0H103V1057Q103
1177 135 1262T224 1401T357 1480T521 1505Z" />
<glyph unicode="&#xe0;" glyph-name="agrave" horiz-adv-x="934" d="M457 1102Q620 1102 701 1023T782 800V196Q782 158 800 142T840 125H905V8Q891 0 863 -8T794 -16Q728 -16 684 20T624 117H614Q572 50 505 13T352 -24Q325 -24 294 -20T232 -4T171 29T119 84T83
166T69 279Q69 390 110 460T224 570T397 624T614 639V778Q614 817 607 849T581 904T529 940T444 953Q396 953 365 938T314 899T287 844T279 782V758H113Q111 767 111 777V802Q111 876 136 932T208 1026T317 1083T457 1102ZM614 489Q532 489 465 482T349 452T273
391T246 289Q246 197 283 161T391 125Q431 125 470 141T542 191T594 274T614 391V489ZM439 1210L217 1474L219 1481H404L580 1210H439Z" />
<glyph unicode="&#xe1;" glyph-name="aacute" horiz-adv-x="934" d="M457 1102Q620 1102 701 1023T782 800V196Q782 158 800 142T840 125H905V8Q891 0 863 -8T794 -16Q728 -16 684 20T624 117H614Q572 50 505 13T352 -24Q325 -24 294 -20T232 -4T171 29T119 84T83
166T69 279Q69 390 110 460T224 570T397 624T614 639V778Q614 817 607 849T581 904T529 940T444 953Q396 953 365 938T314 899T287 844T279 782V758H113Q111 767 111 777V802Q111 876 136 932T208 1026T317 1083T457 1102ZM614 489Q532 489 465 482T349 452T273
391T246 289Q246 197 283 161T391 125Q431 125 470 141T542 191T594 274T614 391V489ZM478 1210H336L512 1481H696L698 1474L478 1210Z" />
<glyph unicode="&#xe2;" glyph-name="acircumflex" horiz-adv-x="934" d="M457 1102Q620 1102 701 1023T782 800V196Q782 158 800 142T840 125H905V8Q891 0 863 -8T794 -16Q728 -16 684 20T624 117H614Q572 50 505 13T352 -24Q325 -24 294 -20T232 -4T171 29T119
84T83 166T69 279Q69 390 110 460T224 570T397 624T614 639V778Q614 817 607 849T581 904T529 940T444 953Q396 953 365 938T314 899T287 844T279 782V758H113Q111 767 111 777V802Q111 876 136 932T208 1026T317 1083T457 1102ZM614 489Q532 489 465 482T349 452T273
391T246 289Q246 197 283 161T391 125Q431 125 470 141T542 191T594 274T614 391V489ZM723 1202H559L469 1364L376 1202H212L388 1479H548L723 1202Z" />
<glyph unicode="&#xe3;" glyph-name="atilde" horiz-adv-x="934" d="M457 1102Q620 1102 701 1023T782 800V196Q782 158 800 142T840 125H905V8Q891 0 863 -8T794 -16Q728 -16 684 20T624 117H614Q572 50 505 13T352 -24Q325 -24 294 -20T232 -4T171 29T119 84T83
166T69 279Q69 390 110 460T224 570T397 624T614 639V778Q614 817 607 849T581 904T529 940T444 953Q396 953 365 938T314 899T287 844T279 782V758H113Q111 767 111 777V802Q111 876 136 932T208 1026T317 1083T457 1102ZM614 489Q532 489 465 482T349 452T273
391T246 289Q246 197 283 161T391 125Q431 125 470 141T542 191T594 274T614 391V489ZM766 1481Q766 1445 756 1408T725 1339T671 1288T592 1268Q559 1268 529 1278T471 1299T414 1321T356 1331Q328 1331 310 1317T287 1268H168Q168 1303 178 1341T209 1410T263
1461T342 1481Q375 1481 404 1471T462 1450T519 1428T577 1418Q605 1418 623 1432T647 1481H766Z" />
<glyph unicode="&#xe4;" glyph-name="adieresis" horiz-adv-x="934" d="M457 1102Q620 1102 701 1023T782 800V196Q782 158 800 142T840 125H905V8Q891 0 863 -8T794 -16Q728 -16 684 20T624 117H614Q572 50 505 13T352 -24Q325 -24 294 -20T232 -4T171 29T119
84T83 166T69 279Q69 390 110 460T224 570T397 624T614 639V778Q614 817 607 849T581 904T529 940T444 953Q396 953 365 938T314 899T287 844T279 782V758H113Q111 767 111 777V802Q111 876 136 932T208 1026T317 1083T457 1102ZM614 489Q532 489 465 482T349 452T273
391T246 289Q246 197 283 161T391 125Q431 125 470 141T542 191T594 274T614 391V489ZM710 1286H531V1481H710V1286ZM402 1286H224V1481H402V1286Z" />
<glyph unicode="&#xe5;" glyph-name="aring" horiz-adv-x="934" d="M457 1102Q620 1102 701 1023T782 800V196Q782 158 800 142T840 125H905V8Q891 0 863 -8T794 -16Q728 -16 684 20T624 117H614Q572 50 505 13T352 -24Q325 -24 294 -20T232 -4T171 29T119 84T83
166T69 279Q69 390 110 460T224 570T397 624T614 639V778Q614 817 607 849T581 904T529 940T444 953Q396 953 365 938T314 899T287 844T279 782V758H113Q111 767 111 777V802Q111 876 136 932T208 1026T317 1083T457 1102ZM467 1545Q509 1545 544 1530T606 1487T648
1425T663 1349Q663 1308 648 1272T606 1210T544 1168T467 1152Q427 1152 391 1167T328 1208T286 1271T270 1349Q270 1390 285 1425T327 1487T390 1529T467 1545ZM614 489Q532 489 465 482T349 452T273 391T246 289Q246 197 283 161T391 125Q431 125 470 141T542
191T594 274T614 391V489ZM467 1453Q446 1453 427 1445T393 1423T371 1389T362 1349Q362 1328 370 1309T393 1275T426 1253T467 1244Q488 1244 506 1252T539 1275T562 1308T571 1349Q571 1370 563 1389T540 1422T507 1445T467 1453Z" />
<glyph unicode="&#xe6;" glyph-name="ae" horiz-adv-x="1493" d="M1032 1102Q1120 1102 1186 1074T1297 984T1364 827T1386 596V489H802Q804 300 861 213T1038 125Q1078 125 1111 141T1169 189T1206 266T1220 367H1386Q1386 276 1361 204T1289 81T1177 3T1034
-24Q922 -24 840 14T707 139Q649 64 570 20T396 -24Q346 -24 291 -14T189 29T112 121T82 279Q82 390 123 460T236 570T409 624T626 639V778Q626 817 619 849T593 904T541 940T457 953Q409 953 377 938T326 899T299 844T291 782V758H125Q123 767 123 777V802Q123
876 148 932T220 1026T329 1083T469 1102Q568 1102 637 1071T745 979Q797 1042 867 1072T1032 1102ZM626 489Q544 489 477 482T361 452T285 391T258 289Q258 197 295 161T404 125Q443 125 483 140T554 187T606 265T626 375V489ZM1032 953Q976 953 936 933T868 874T826
776T805 639H1210Q1210 794 1165 873T1032 953Z" />
<glyph unicode="&#xe7;" glyph-name="ccedilla" horiz-adv-x="840" d="M442 1102Q530 1102 592 1075T695 993T753 860T772 678H598Q598 748 591 799T565 885T517 936T442 953Q342 953 296 859T250 578V499Q250 313 295 219T442 125Q487 125 518 143T569 196T597
282T606 400H772Q772 317 755 242T699 108T601 15T454 -23L447 -74Q480 -76 510 -84T563 -107T599 -147T613 -206Q613 -258 592 -290T538 -341T468 -366T400 -373Q356 -373 311 -369T228 -356V-256H384Q418 -256 437 -246T457 -206Q457 -182 443 -170T388 -158H320L342
-13Q204 19 139 154T74 539Q74 828 163 965T442 1102Z" />
<glyph unicode="&#xe8;" glyph-name="egrave" horiz-adv-x="934" d="M491 1102Q579 1102 646 1074T757 984T823 827T846 596V489H262Q263 301 320 213T497 125Q537 125 570 141T628 189T666 266T680 367H846Q846 276 821 204T749 81T637 3T493 -24Q393 -24 317
7T190 107T112 282T86 539Q86 828 187 965T491 1102ZM491 953Q435 953 395 933T327 874T285 776T264 639H670Q670 794 625 873T491 953ZM472 1210L250 1474L252 1481H437L613 1210H472Z" />
<glyph unicode="&#xe9;" glyph-name="eacute" horiz-adv-x="934" d="M491 1102Q579 1102 646 1074T757 984T823 827T846 596V489H262Q263 301 320 213T497 125Q537 125 570 141T628 189T666 266T680 367H846Q846 276 821 204T749 81T637 3T493 -24Q393 -24 317
7T190 107T112 282T86 539Q86 828 187 965T491 1102ZM491 953Q435 953 395 933T327 874T285 776T264 639H670Q670 794 625 873T491 953ZM511 1210H369L545 1481H729L731 1474L511 1210Z" />
<glyph unicode="&#xea;" glyph-name="ecircumflex" horiz-adv-x="934" d="M491 1102Q579 1102 646 1074T757 984T823 827T846 596V489H262Q263 301 320 213T497 125Q537 125 570 141T628 189T666 266T680 367H846Q846 276 821 204T749 81T637 3T493 -24Q393 -24
317 7T190 107T112 282T86 539Q86 828 187 965T491 1102ZM491 953Q435 953 395 933T327 874T285 776T264 639H670Q670 794 625 873T491 953ZM723 1202H559L469 1364L376 1202H212L388 1479H548L723 1202Z" />
<glyph unicode="&#xeb;" glyph-name="edieresis" horiz-adv-x="934" d="M491 1102Q579 1102 646 1074T757 984T823 827T846 596V489H262Q263 301 320 213T497 125Q537 125 570 141T628 189T666 266T680 367H846Q846 276 821 204T749 81T637 3T493 -24Q393 -24
317 7T190 107T112 282T86 539Q86 828 187 965T491 1102ZM491 953Q435 953 395 933T327 874T285 776T264 639H670Q670 794 625 873T491 953ZM710 1286H531V1481H710V1286ZM402 1286H224V1481H402V1286Z" />
<glyph unicode="&#xec;" glyph-name="igrave" horiz-adv-x="467" d="M149 0V1077H317V0H149ZM215 1210L-7 1474L-5 1481H180L356 1210H215Z" />
<glyph unicode="&#xed;" glyph-name="iacute" horiz-adv-x="467" d="M149 0V1077H317V0H149ZM254 1210H112L288 1481H472L474 1474L254 1210Z" />
<glyph unicode="&#xee;" glyph-name="icircumflex" horiz-adv-x="467" d="M317 0H149V1077H317V0ZM490 1202H326L236 1364L143 1202H-22L155 1479H315L490 1202Z" />
<glyph unicode="&#xef;" glyph-name="idieresis" horiz-adv-x="467" d="M317 0H149V1077H317V0ZM477 1286H298V1481H477V1286ZM169 1286H-9V1481H169V1286Z" />
<glyph unicode="&#xf0;" glyph-name="eth" horiz-adv-x="934" d="M424 1481Q447 1456 470 1431T517 1380L756 1403V1280L610 1266Q665 1191 709 1110T785 939T834 750T852 539Q852 249 754 113T467 -24Q278 -24 180 112T82 539Q82 688 109 794T184 969T298 1070T444
1102Q472 1102 498 1095T547 1077Q523 1122 494 1164T432 1250L190 1228V1351L336 1364Q313 1390 290 1417T240 1472L244 1481H424ZM467 953Q361 953 310 859T258 578V499Q258 313 309 219T467 125Q572 125 624 219T676 499V578Q676 765 623 859T467 953Z" />
<glyph unicode="&#xf1;" glyph-name="ntilde" horiz-adv-x="934" d="M545 1102Q606 1102 655 1085T738 1029T792 928T811 776V0H643V764Q643 820 632 856T601 914T553 944T491 953Q451 953 415 933T352 875T308 782T291 657V0H123V1077H250L273 953H285Q330 1033
397 1067T545 1102ZM766 1481Q766 1445 756 1408T725 1339T671 1288T592 1268Q559 1268 529 1278T471 1299T414 1321T356 1331Q328 1331 310 1317T287 1268H168Q168 1303 178 1341T209 1410T263 1461T342 1481Q375 1481 404 1471T462 1450T519 1428T577 1418Q605
1418 623 1432T647 1481H766Z" />
<glyph unicode="&#xf2;" glyph-name="ograve" horiz-adv-x="934" d="M467 1102Q656 1102 754 965T852 539Q852 249 754 113T467 -24Q278 -24 180 112T82 539Q82 828 180 965T467 1102ZM467 953Q361 953 310 859T258 578V499Q258 313 309 219T467 125Q572 125 624
219T676 499V578Q676 765 624 859T467 953ZM448 1210L226 1474L228 1481H413L589 1210H448Z" />
<glyph unicode="&#xf3;" glyph-name="oacute" horiz-adv-x="934" d="M467 1102Q656 1102 754 965T852 539Q852 249 754 113T467 -24Q278 -24 180 112T82 539Q82 828 180 965T467 1102ZM467 953Q361 953 310 859T258 578V499Q258 313 309 219T467 125Q572 125 624
219T676 499V578Q676 765 624 859T467 953ZM487 1210H345L521 1481H705L707 1474L487 1210Z" />
<glyph unicode="&#xf4;" glyph-name="ocircumflex" horiz-adv-x="934" d="M467 1102Q656 1102 754 965T852 539Q852 249 754 113T467 -24Q278 -24 180 112T82 539Q82 828 180 965T467 1102ZM467 953Q361 953 310 859T258 578V499Q258 313 309 219T467 125Q572
125 624 219T676 499V578Q676 765 624 859T467 953ZM723 1202H559L469 1364L376 1202H212L388 1479H548L723 1202Z" />
<glyph unicode="&#xf5;" glyph-name="otilde" horiz-adv-x="934" d="M467 1102Q656 1102 754 965T852 539Q852 249 754 113T467 -24Q278 -24 180 112T82 539Q82 828 180 965T467 1102ZM467 953Q361 953 310 859T258 578V499Q258 313 309 219T467 125Q572 125 624
219T676 499V578Q676 765 624 859T467 953ZM766 1481Q766 1445 756 1408T725 1339T671 1288T592 1268Q559 1268 529 1278T471 1299T414 1321T356 1331Q328 1331 310 1317T287 1268H168Q168 1303 178 1341T209 1410T263 1461T342 1481Q375 1481 404 1471T462 1450T519
1428T577 1418Q605 1418 623 1432T647 1481H766Z" />
<glyph unicode="&#xf6;" glyph-name="odieresis" horiz-adv-x="934" d="M467 1102Q656 1102 754 965T852 539Q852 249 754 113T467 -24Q278 -24 180 112T82 539Q82 828 180 965T467 1102ZM467 953Q361 953 310 859T258 578V499Q258 313 309 219T467 125Q572 125
624 219T676 499V578Q676 765 624 859T467 953ZM710 1286H531V1481H710V1286ZM402 1286H224V1481H402V1286Z" />
<glyph unicode="&#xf7;" glyph-name="divide" horiz-adv-x="1124" d="M1034 436H88V608H1034V436ZM647 105H475V289H647V105ZM647 756H475V942H647V756Z" />
<glyph unicode="&#xf8;" glyph-name="oslash" horiz-adv-x="1026" d="M798 965Q897 825 897 539Q897 249 799 113T511 -24Q447 -24 393 -9T295 39L240 -65H127L224 113Q176 182 152 287T127 539Q127 828 225 965T511 1102Q642 1102 727 1038L784 1143H897L798
965ZM377 186Q426 125 511 125Q617 125 669 219T721 499V578Q721 638 716 688T699 778L377 186ZM511 953Q407 953 355 859T303 578V499Q303 439 307 389T323 297L647 891Q593 953 511 953Z" />
<glyph unicode="&#xf9;" glyph-name="ugrave" horiz-adv-x="934" d="M684 0L662 125H649Q604 44 537 10T389 -24Q329 -24 280 -7T196 48T142 149T123 301V1077H291V313Q291 257 302 221T333 163T380 134T442 125Q482 125 518 145T582 203T626 295T643 420V1077H811V0H684ZM448
1210L226 1474L228 1481H413L589 1210H448Z" />
<glyph unicode="&#xfa;" glyph-name="uacute" horiz-adv-x="934" d="M684 0L662 125H649Q604 44 537 10T389 -24Q329 -24 280 -7T196 48T142 149T123 301V1077H291V313Q291 257 302 221T333 163T380 134T442 125Q482 125 518 145T582 203T626 295T643 420V1077H811V0H684ZM487
1210H345L521 1481H705L707 1474L487 1210Z" />
<glyph unicode="&#xfb;" glyph-name="ucircumflex" horiz-adv-x="934" d="M811 0H684L662 125H649Q604 44 537 10T389 -24Q329 -24 280 -7T196 48T142 149T123 301V1077H291V313Q291 257 302 221T333 163T380 134T442 125Q482 125 518 145T582 203T626 295T643
420V1077H811V0ZM723 1202H559L469 1364L376 1202H212L388 1479H548L723 1202Z" />
<glyph unicode="&#xfc;" glyph-name="udieresis" horiz-adv-x="934" d="M811 0H684L662 125H649Q604 44 537 10T389 -24Q329 -24 280 -7T196 48T142 149T123 301V1077H291V313Q291 257 302 221T333 163T380 134T442 125Q482 125 518 145T582 203T626 295T643 420V1077H811V0ZM710
1286H531V1481H710V1286ZM402 1286H224V1481H402V1286Z" />
<glyph unicode="&#xfd;" glyph-name="yacute" horiz-adv-x="840" d="M547 55Q523 -33 492 -111T420 -247T324 -339T198 -373Q163 -373 134 -370T78 -356V-240H137Q171 -240 203 -229T263 -189T313 -115T350 0L20 1077H204L442 242H450L651 1077H822L547 55ZM440
1210H298L474 1481H658L660 1474L440 1210Z" />
<glyph unicode="&#xfe;" glyph-name="thorn" horiz-adv-x="934" d="M291 983L299 981Q331 1037 389 1069T519 1102Q595 1102 657 1069T762 967T828 792T852 537Q852 390 827 284T759 110T657 9T531 -24Q452 -24 391 7T301 95H291V-354H123V1481H291V983ZM483 953Q386
953 339 859T291 578V499Q291 313 338 219T483 125Q531 125 567 146T628 212T664 328T676 499V578Q676 678 664 749T628 866T568 932T483 953Z" />
<glyph unicode="&#xff;" glyph-name="ydieresis" horiz-adv-x="840" d="M547 55Q523 -33 492 -111T420 -247T324 -339T198 -373Q163 -373 134 -370T78 -356V-240H137Q171 -240 203 -229T263 -189T313 -115T350 0L20 1077H204L442 242H450L651 1077H822L547 55ZM663
1286H484V1481H663V1286ZM355 1286H177V1481H355V1286Z" />
<glyph unicode="&#x2013;" glyph-name="endash" horiz-adv-x="934" d="M931 477H0V630H931V477Z" />
<glyph unicode="&#x2014;" glyph-name="emdash" horiz-adv-x="1679" d="M1679 477H0V630H1679V477Z" />
<glyph unicode="&#x2018;" glyph-name="quoteleft" horiz-adv-x="373" d="M206 1151H289V929H84V1133L182 1405H289L206 1151Z" />
<glyph unicode="&#x2019;" glyph-name="quoteright" horiz-adv-x="373" d="M289 1202L190 929H84L166 1184H84V1405H289V1202Z" />
<glyph unicode="&#x201a;" glyph-name="quotesinglbase" horiz-adv-x="373" d="M281 18L182 -254H76L158 0H76V222H281V18Z" />
<glyph unicode="&#x201c;" glyph-name="quotedblleft" horiz-adv-x="559" d="M168 1151H250V929H45V1133L143 1405H250L168 1151ZM428 1151H509V929H305V1133L404 1405H509L428 1151Z" />
<glyph unicode="&#x201d;" glyph-name="quotedblright" horiz-adv-x="559" d="M515 1202L416 929H309L391 1184H309V1405H515V1202ZM254 1202L156 929H49L131 1184H49V1405H254V1202Z" />
<glyph unicode="&#x201e;" glyph-name="quotedblbase" horiz-adv-x="559" d="M515 18L416 -254H309L391 0H309V222H515V18ZM254 18L156 -254H49L131 0H49V222H254V18Z" />
<glyph unicode="&#x2022;" glyph-name="bullet" horiz-adv-x="588" d="M293 931Q340 931 381 914T453 865T501 793T519 705Q519 658 502 617T453 544T381 494T293 475Q247 475 206 493T135 543T87 616T69 705Q69 752 86 793T134 865T206 913T293 931Z" />
<glyph unicode="&#x2039;" glyph-name="guilsinglleft" horiz-adv-x="559" d="M262 668L493 258H348L59 668L348 1077H493L262 668Z" />
<glyph unicode="&#x203a;" glyph-name="guilsinglright" horiz-adv-x="559" d="M499 668L210 258H65L297 668L65 1077H210L499 668Z" />
</font>
</defs>
</svg>
