<?xml version="1.0" standalone="no"?>
<!DOCTYPE svg PUBLIC "-//W3C//DTD SVG 1.1//EN" "http://www.w3.org/Graphics/SVG/1.1/DTD/svg11.dtd">
<svg xmlns="http://www.w3.org/2000/svg">
<defs >
<font id="ArchivoNarrow" horiz-adv-x="996" ><font-face
    font-family="Archivo Narrow"
    units-per-em="2048"
    panose-1="2 0 0 0 0 0 0 0 0 0"
    ascent="1916"
    descent="-434"
    alphabetic="0" />
<glyph unicode=" " glyph-name="space" horiz-adv-x="467" />
<glyph unicode="!" glyph-name="exclam" horiz-adv-x="559" d="M362 403H195L123 1405H436L362 403ZM422 0H139V281H422V0Z" />
<glyph unicode="&quot;" glyph-name="quotedbl" horiz-adv-x="797" d="M713 1104L670 834H508L463 1104V1405H713V1104ZM342 1104L299 834H137L92 1104V1405H342V1104Z" />
<glyph unicode="#" glyph-name="numbersign" horiz-adv-x="934" d="M795 1032H922V860H756L692 571H842V399H653L563 0H383L473 399H319L229 0H49L139 399H10V571H178L242 860H90V1032H281L371 1430H551L461 1032H614L705 1430H885L795 1032ZM422 860L358 571H512L575
860H422Z" />
<glyph unicode="$" glyph-name="dollar" horiz-adv-x="934" d="M518 1264Q585 1258 643 1235T743 1175T810 1087T834 973Q834 956 833 942T831 926H606Q606 988 582 1025T518 1077V813Q576 798 637 778T747 723T828 632T860 487Q860 397 835 334T764 230T656 168T518
141V-100H406V141Q325 148 262 175T156 247T91 350T68 481V489Q68 494 69 498Q69 502 70 506H295V492Q295 421 328 382T406 330V623Q349 639 292 659T188 713T113 801T84 938Q84 1012 108 1069T176 1166T278 1231T406 1262V1481H518V1264ZM518 326Q540 331 561
341T599 367T625 405T635 457Q635 507 602 536T518 586V326ZM406 1077Q362 1063 336 1033T309 958Q309 915 335 890T406 848V1077Z" />
<glyph unicode="%" glyph-name="percent" horiz-adv-x="1493" d="M408 0H233L1090 1405H1266L408 0ZM354 1430Q420 1430 472 1412T561 1351T617 1237T637 1059Q637 952 618 881T562 768T473 708T354 690Q288 690 236 708T147 768T92 882T72 1059Q72 1165 91 1236T147
1351T235 1412T354 1430ZM354 1280Q323 1280 304 1265T273 1223T258 1158T254 1075V1044Q254 999 258 962T273 897T303 855T354 840Q385 840 404 855T435 897T450 961T455 1044V1075Q455 1120 451 1158T435 1223T405 1265T354 1280ZM1141 715Q1207 715 1259 697T1348
637T1403 523T1423 344Q1423 237 1404 166T1348 53T1260 -7T1141 -25Q1075 -25 1023 -7T934 53T878 167T858 344Q858 451 877 522T933 636T1022 697T1141 715ZM1141 565Q1110 565 1091 550T1060 508T1044 443T1040 360V330Q1040 285 1044 247T1059 182T1090 140T1141
125Q1172 125 1191 140T1222 182T1237 247T1241 330V360Q1241 405 1237 443T1222 508T1192 550T1141 565Z" />
<glyph unicode="&amp;" glyph-name="ampersand" horiz-adv-x="1212" d="M571 1430Q670 1430 753 1403T895 1325T987 1203T1020 1044V987H774V1026Q774 1125 722 1174T567 1223Q468 1223 413 1173T358 1034Q358 983 373 943T414 875T478 832T559 817H643V610H565Q518
610 476 600T401 566T349 498T330 389Q330 283 391 233T555 182Q666 182 720 236T774 391V817H1182V610H1020V397Q1020 301 990 223T900 90T753 5T551 -25Q446 -25 359 2T208 82T110 208T74 377Q74 447 92 503T142 602T218 674T313 721V729Q268 751 230 780T163
847T118 933T102 1044Q102 1138 136 1210T231 1331T379 1405T571 1430Z" />
<glyph unicode="&apos;" glyph-name="quotesingle" horiz-adv-x="399" d="M326 1104L283 834H121L76 1104V1405H326V1104Z" />
<glyph unicode="(" glyph-name="parenleft" horiz-adv-x="559" d="M528 1505Q477 1411 433 1302T357 1076T306 836T287 594Q287 474 305 351T356 110T433 -118T528 -322H367Q293 -228 236 -121T140 102T81 341T61 590Q61 716 81 839T140 1079T236 1302T367 1505H528Z" />
<glyph unicode=")" glyph-name="parenright" horiz-adv-x="559" d="M193 1505Q266 1410 323 1303T419 1079T478 840T498 590Q498 464 478 341T419 103T323 -120T193 -322H31Q82 -228 126 -119T202 109T253 351T272 594Q272 714 254 836T203 1075T126 1302T31 1505H193Z" />
<glyph unicode="*" glyph-name="asterisk" horiz-adv-x="653" d="M387 1198L559 1317L639 1182L449 1092L639 1006L559 866L387 989L408 780H248L268 989L96 866L16 1006L207 1092L16 1182L96 1317L268 1196L248 1405H408L387 1198Z" />
<glyph unicode="+" glyph-name="plus" horiz-adv-x="981" d="M594 629H911V416H594V0H383V416H68V629H383V1047H594V629Z" />
<glyph unicode="," glyph-name="comma" horiz-adv-x="467" d="M375 25L240 -319H92L205 0H92V281H375V25Z" />
<glyph unicode="-" glyph-name="hyphen" horiz-adv-x="559" d="M526 432H33V674H526V432Z" />
<glyph unicode="." glyph-name="period" horiz-adv-x="467" d="M375 0H92V281H375V0Z" />
<glyph unicode="/" glyph-name="slash" horiz-adv-x="467" d="M178 -100H2L293 1505H467L178 -100Z" />
<glyph unicode="0" glyph-name="zero" horiz-adv-x="934" d="M467 1430Q561 1430 636 1397T764 1281T844 1057T872 702Q872 488 844 348T764 125T637 9T467 -25Q372 -25 297 8T169 124T89 347T61 702Q61 916 88 1057T168 1280T296 1396T467 1430ZM467 1223Q420
1223 391 1196T346 1114T323 974T317 774V631Q317 516 323 432T345 292T391 209T467 182Q514 182 543 209T588 291T610 431T616 631V774Q616 889 611 973T589 1113T543 1196T467 1223Z" />
<glyph unicode="1" glyph-name="one" horiz-adv-x="934" d="M643 207H932V0H82V207H397V1083H80V1247Q123 1252 179 1265T295 1300T414 1347T522 1405H643V207Z" />
<glyph unicode="2" glyph-name="two" horiz-adv-x="934" d="M489 1430Q567 1430 636 1409T756 1344T836 1231T866 1065Q866 972 836 886T758 721T653 572T541 439T441 324T375 229H872V0H68V49Q68 131 91 203T152 339T238 463T338 578T437 691T524 807T585 931T608
1067Q608 1092 602 1118T582 1167T542 1204T479 1219Q441 1219 414 1202T370 1155T346 1088T338 1006V922H86Q84 932 83 944Q80 965 80 1004Q80 1117 113 1197T202 1330T333 1406T489 1430Z" />
<glyph unicode="3" glyph-name="three" horiz-adv-x="934" d="M461 1430Q548 1430 619 1405T741 1331T820 1210T848 1044Q848 982 834 934T796 847T739 780T666 729V721Q710 704 748 675T813 602T856 503T872 377Q872 283 842 209T759 82T631 3T467 -25Q366 -25
289 5T159 90T79 223T51 397V434H307V391Q307 291 346 237T463 182Q532 182 574 232T616 389Q616 455 603 498T566 565T512 600T449 610H381V817H453Q482 817 507 830T551 871T581 939T592 1034Q592 1133 558 1178T463 1223Q400 1223 366 1174T332 1026V987H76V1044Q76
1132 104 1203T184 1324T306 1402T461 1430Z" />
<glyph unicode="4" glyph-name="four" horiz-adv-x="934" d="M616 1430Q597 1339 566 1244T499 1058T423 882T347 727T279 605T229 524H522V840Q542 880 562 929T600 1029T634 1130T659 1221H768V524H911V317H768V0H522V317H16V514Q71 611 122 722T218 952T301
1192T371 1430H616Z" />
<glyph unicode="5" glyph-name="five" horiz-adv-x="934" d="M827 1176H365L344 844Q375 869 423 891T545 913Q616 913 678 886T787 802T860 661T887 459Q887 343 859 253T777 101T647 7T475 -25Q381 -25 305 7T174 98T91 243T61 436H317Q317 378 327 331T358
250T408 198T475 180Q510 180 539 197T589 250T621 337T633 459Q633 520 622 567T592 647T546 696T489 713Q433 713 397 679T338 594L100 627L147 1405H827V1176Z" />
<glyph unicode="6" glyph-name="six" horiz-adv-x="934" d="M467 1430Q564 1430 634 1395T749 1299T815 1154T836 973H584Q584 1091 557 1157T459 1223Q411 1223 384 1191T341 1101T321 959T315 772Q350 825 407 854T532 883Q617 883 681 849T787 754T851 610T872
430Q872 325 843 241T763 98T640 7T485 -25Q386 -25 308 9T174 123T90 335T61 662Q61 881 88 1028T168 1265T296 1392T467 1430ZM475 682Q438 682 411 664T366 612T339 533T330 430Q330 377 339 332T366 253T411 201T475 182Q512 182 539 201T583 253T609 331T618
430Q618 486 610 532T584 612T539 663T475 682Z" />
<glyph unicode="7" glyph-name="seven" horiz-adv-x="934" d="M887 1239Q841 1169 792 1088T697 917T611 729T540 528T491 319T473 104V56Q473 45 473 32T475 0H203Q203 169 238 334T331 650T465 935T621 1176H47V1405H887V1239Z" />
<glyph unicode="8" glyph-name="eight" horiz-adv-x="934" d="M467 1430Q561 1430 631 1399T749 1315T820 1190T844 1038Q844 938 806 855T690 721Q787 673 829 587T872 385Q872 301 849 226T777 96T652 8T467 -25Q359 -25 283 7T157 95T84 226T61 385Q61 499
104 586T242 721Q164 772 127 855T90 1038Q90 1119 113 1190T184 1314T302 1399T467 1430ZM467 616Q393 616 354 560T315 397Q315 291 354 236T467 180Q541 180 579 235T618 397Q618 504 580 560T467 616ZM467 1225Q405 1225 373 1174T340 1022Q340 922 372 871T467
819Q529 819 562 870T596 1022Q596 1122 563 1173T467 1225Z" />
<glyph unicode="9" glyph-name="nine" horiz-adv-x="934" d="M449 1430Q548 1430 626 1396T759 1282T843 1070T872 743Q872 524 845 377T765 140T638 13T467 -25Q369 -25 300 10T185 106T119 250T98 432H350Q350 373 356 327T377 248T416 199T475 182Q523 182
550 214T592 304T611 446T618 633Q583 580 527 551T401 522Q316 522 252 556T146 651T82 794T61 975Q61 1080 90 1164T171 1307T294 1398T449 1430ZM459 1223Q422 1223 395 1204T350 1152T324 1074T315 975Q315 919 323 873T350 793T395 742T459 723Q496 723 523
741T568 793T595 872T604 975Q604 1028 595 1073T568 1152T523 1204T459 1223Z" />
<glyph unicode=":" glyph-name="colon" horiz-adv-x="559" d="M395 0H113V281H395V0ZM395 797H113V1077H395V797Z" />
<glyph unicode=";" glyph-name="semicolon" horiz-adv-x="559" d="M393 25L258 -319H111L223 0H111V281H393V25ZM395 797H113V1077H395V797Z" />
<glyph unicode="&lt;" glyph-name="less" horiz-adv-x="981" d="M913 846L276 535L913 223V-18L70 403V664L913 1087V846Z" />
<glyph unicode="=" glyph-name="equal" horiz-adv-x="981" d="M911 631H68V844H911V631ZM911 197H68V408H911V197Z" />
<glyph unicode="&gt;" glyph-name="greater" horiz-adv-x="981" d="M913 664V403L70 -18V223L707 535L70 846V1087L913 664Z" />
<glyph unicode="?" glyph-name="question" horiz-adv-x="1026" d="M532 1430Q623 1430 696 1403T821 1328T900 1213T928 1065Q928 974 909 911T862 800T800 717T739 643T691 564T672 461V403H414V492Q414 553 432 599T477 685T536 760T595 836T641 926T659 1042Q659
1057 655 1085T635 1141T592 1189T516 1210Q465 1210 434 1187T386 1131T364 1061T358 995V973Q358 963 359 955Q359 946 360 940H102Q100 954 99 967Q97 978 97 990T96 1012Q96 1098 123 1174T204 1307T340 1397T532 1430ZM686 0H403V281H686V0Z" />
<glyph unicode="@" glyph-name="at" horiz-adv-x="1638" d="M844 1430Q1004 1430 1140 1387T1377 1250T1533 1010T1589 657Q1589 541 1571 451T1521 292T1449 177T1363 101T1271 58T1182 45Q1131 45 1096 54T1037 81T996 121T969 174H958Q937 144 915 120T864
80T798 54T713 45Q678 45 636 56T556 97T493 181T467 319Q467 418 503 484T603 589T756 645T952 662V764Q952 789 948 811T933 849T902 875T850 885Q815 885 793 876T757 851T739 818T733 782V756H516Q514 764 514 773V797Q514 857 537 907T604 992T708 1047T844
1067Q1014 1067 1096 991T1178 778V311Q1178 269 1194 251T1239 233Q1274 233 1310 254T1375 325T1422 457T1440 659Q1440 826 1396 945T1273 1140T1084 1252T842 1288Q693 1288 575 1242T373 1102T246 867T201 535Q201 183 341 6T778 -172Q812 -172 857 -167T949
-153T1037 -132T1106 -106V-258Q1074 -270 1031 -280T943 -298T854 -309T778 -313Q610 -313 476 -264T247 -110T102 154T51 537Q51 700 80 830T161 1059T287 1228T448 1343T636 1409T844 1430ZM952 500Q903 500 857 493T775 468T718 419T696 340Q696 290 722 261T805
231Q845 231 873 248T918 294T944 362T952 444V500Z" />
<glyph unicode="A" glyph-name="A" horiz-adv-x="1212" d="M1210 0H942L856 276H338L254 0H0L453 1405H758L1210 0ZM594 1169Q588 1132 581 1098Q575 1069 568 1036T553 979L410 510H784L643 979Q635 1007 627 1040T614 1102Q607 1135 602 1169H594Z" />
<glyph unicode="B" glyph-name="B" horiz-adv-x="1212" d="M123 1405H727Q810 1405 880 1380T1001 1309T1081 1199T1110 1057Q1110 996 1094 945T1048 853T980 783T895 737V729Q947 713 992 681T1071 604T1124 502T1143 377Q1143 288 1110 219T1019 100T887 26T727
0H123V1405ZM385 604V233H684Q725 233 759 244T819 278T859 334T874 410Q874 450 862 485T824 547T761 589T672 604H385ZM385 1171V836H655Q702 836 737 850T795 887T830 942T842 1010Q842 1090 794 1130T668 1171H385Z" />
<glyph unicode="C" glyph-name="C" horiz-adv-x="1212" d="M629 1430Q739 1430 833 1398T997 1300T1105 1130T1145 883H877Q877 964 859 1024T808 1125T730 1184T629 1204Q556 1204 502 1173T411 1084T358 943T340 754V651Q340 546 358 463T413 321T506 232T637
201Q694 201 740 220T820 279T871 379T889 520H1145Q1145 382 1106 280T998 110T835 9T629 -25Q497 -25 393 19T217 153T108 379T70 702Q70 888 107 1025T217 1252T393 1386T629 1430Z" />
<glyph unicode="D" glyph-name="D" horiz-adv-x="1212" d="M123 0V1405H580Q711 1405 815 1362T992 1234T1104 1021T1143 723Q1143 543 1104 408T993 182T816 46T580 0H123ZM385 1171V233H555Q628 233 686 260T786 342T850 479T872 672V774Q872 873 850 947T787
1071T687 1146T555 1171H385Z" />
<glyph unicode="E" glyph-name="E" horiz-adv-x="1120" d="M123 0V1405H1018V1171H385V836H928V602H385V233H1030V0H123Z" />
<glyph unicode="F" glyph-name="F" horiz-adv-x="1026" d="M123 0V1405H948V1171H385V817H866V584H385V0H123Z" />
<glyph unicode="G" glyph-name="G" horiz-adv-x="1307" d="M666 1430Q772 1430 869 1397T1040 1298T1158 1136T1202 913H934Q934 985 912 1039T853 1130T765 1185T657 1204Q575 1204 515 1173T416 1084T359 943T340 754V651Q340 544 359 460T417 319T517 231T659
201Q719 201 769 225T856 293T913 399T934 539H618V764H1202V0H1032L987 156Q919 66 822 21T612 -25Q483 -25 382 18T212 151T107 378T70 702Q70 888 110 1025T226 1252T413 1386T666 1430Z" />
<glyph unicode="H" glyph-name="H" horiz-adv-x="1212" d="M827 602H385V0H123V1405H385V836H827V1405H1090V0H827V602Z" />
<glyph unicode="I" glyph-name="I" horiz-adv-x="467" d="M365 0H102V1405H365V0Z" />
<glyph unicode="J" glyph-name="J" horiz-adv-x="934" d="M279 442V354Q279 280 313 241T416 201Q482 201 515 240T549 354V1405H811V334Q811 157 710 66T416 -25Q225 -25 122 66T18 334V442H279Z" />
<glyph unicode="K" glyph-name="K" horiz-adv-x="1212" d="M387 686L901 1405H1194L778 834L1206 0H911L606 627L387 358V0H123V1405H387V686Z" />
<glyph unicode="L" glyph-name="L" horiz-adv-x="1026" d="M123 1405H385V246H979V0H123V1405Z" />
<glyph unicode="M" glyph-name="M" horiz-adv-x="1399" d="M1049 0V895Q1049 918 1050 956T1054 1031Q1056 1073 1059 1120H1051L805 0H578L330 1120H322Q324 1071 327 1028Q328 1010 328 991T330 953T331 920T332 895V0H109V1405H477L651 631Q655 614 659 591T668
543T678 490T687 437Q697 377 707 313H715Q723 380 731 441Q734 467 738 494T746 546T754 594T762 631L934 1405H1290V0H1049Z" />
<glyph unicode="N" glyph-name="N" horiz-adv-x="1212" d="M856 0L422 774Q416 785 406 806T384 850Q372 876 358 905L350 899Q351 876 352 854Q353 835 353 816T354 782V0H123V1405H354L788 631Q796 617 807 595T829 552Q840 527 852 500L858 506Q857 533 857
556Q856 576 856 595T856 623V1405H1090V0H856Z" />
<glyph unicode="O" glyph-name="O" horiz-adv-x="1307" d="M653 1430Q789 1430 897 1386T1081 1252T1197 1025T1237 702Q1237 516 1197 380T1082 153T898 19T653 -25Q517 -25 409 19T226 153T110 379T70 702Q70 888 110 1025T225 1252T409 1386T653 1430ZM653
1204Q575 1204 516 1173T418 1084T360 943T340 754V651Q340 546 359 463T418 321T516 232T653 201Q731 201 790 232T888 321T947 462T967 651V754Q967 859 948 942T889 1084T790 1173T653 1204Z" />
<glyph unicode="P" glyph-name="P" horiz-adv-x="1120" d="M385 545V0H123V1405H625Q734 1405 816 1374T953 1286T1037 1152T1065 983Q1065 884 1034 803T944 665T805 577T625 545H385ZM385 1171V776H598Q694 776 744 831T795 983Q795 1070 744 1120T598 1171H385Z" />
<glyph unicode="Q" glyph-name="Q" horiz-adv-x="1307" d="M70 702Q70 888 110 1025T225 1252T409 1386T653 1430Q789 1430 897 1386T1081 1252T1197 1025T1237 702Q1237 438 1157 273T932 35L1202 -254H881L678 -25H653Q517 -25 409 19T226 153T110 379T70 702ZM340
651Q340 546 359 463T418 321T516 232T653 201Q731 201 790 232T888 321T947 462T967 651V754Q967 859 948 942T889 1084T790 1173T653 1204Q575 1204 516 1173T418 1084T360 943T340 754V651Z" />
<glyph unicode="R" glyph-name="R" horiz-adv-x="1212" d="M385 586V0H123V1405H711Q817 1405 897 1375T1032 1292T1113 1165T1141 1004Q1141 940 1125 884T1078 782T1004 701T905 643L1176 0H891L657 586H385ZM385 1171V817H674Q770 817 814 866T858 1004Q858
1081 817 1126T684 1171H385Z" />
<glyph unicode="S" glyph-name="S" horiz-adv-x="1120" d="M559 1430Q653 1430 736 1406T881 1332T979 1203T1016 1016V991H748V1010Q748 1099 698 1151T557 1204Q461 1204 411 1162T360 1055Q360 1002 389 968T467 909T576 866T701 825T826 774T935 699T1012
586T1042 422Q1042 301 1006 216T904 78T747 0T547 -25Q450 -25 362 2T207 85T101 222T61 412Q61 424 62 436T63 457H336Q336 454 335 443T334 424Q334 374 349 333T393 263T463 217T559 201Q618 201 659 215T725 253T761 306T772 367Q772 417 753 452T701 513T625
557T532 592T431 626T330 665T238 719T161 793T109 896T90 1036Q90 1136 128 1210T231 1333T381 1406T559 1430Z" />
<glyph unicode="T" glyph-name="T" horiz-adv-x="1026" d="M993 1171H645V0H383V1171H35V1405H993V1171Z" />
<glyph unicode="U" glyph-name="U" horiz-adv-x="1212" d="M125 1405H387V449Q387 327 444 264T606 201Q711 201 769 264T827 449V1405H1090V440Q1090 326 1057 239T961 94T809 5T606 -25Q493 -25 404 5T253 93T158 239T125 440V1405Z" />
<glyph unicode="V" glyph-name="V" horiz-adv-x="1120" d="M692 0H428L0 1405H270L565 399H573L864 1405H1120L692 0Z" />
<glyph unicode="W" glyph-name="W" horiz-adv-x="1585" d="M1278 0H1014L823 895Q817 922 812 956T803 1021Q799 1057 795 1094H786Q780 1054 776 1017Q771 985 767 951T758 895L569 0H305L0 1405H260L428 541Q433 518 437 484T446 419Q450 382 455 344H463Q467
383 471 420Q475 452 479 485T489 541L659 1405H956L1124 541Q1128 520 1133 487T1142 421Q1146 384 1151 344H1159L1167 416Q1171 446 1175 480T1186 541L1358 1405H1583L1278 0Z" />
<glyph unicode="X" glyph-name="X" horiz-adv-x="1120" d="M719 741L1118 0H827L553 530H545L272 0H0L397 737L37 1405H330L565 946H573L809 1405H1081L719 741Z" />
<glyph unicode="Y" glyph-name="Y" horiz-adv-x="1120" d="M692 530V0H430V530L0 1405H276L563 788H571L856 1405H1120L692 530Z" />
<glyph unicode="Z" glyph-name="Z" horiz-adv-x="1026" d="M969 1303L391 233H983V0H33V100L610 1171H76V1405H969V1303Z" />
<glyph unicode="[" glyph-name="bracketleft" horiz-adv-x="559" d="M508 1311H338V-135H508V-330H100V1505H508V1311Z" />
<glyph unicode="\" glyph-name="backslash" horiz-adv-x="467" d="M467 -100H291L2 1505H176L467 -100Z" />
<glyph unicode="]" glyph-name="bracketright" horiz-adv-x="559" d="M459 -330H51V-135H221V1311H51V1505H459V-330Z" />
<glyph unicode="^" glyph-name="asciicircum" horiz-adv-x="981" d="M926 602H700L494 1155L291 602H66L385 1405H604L926 602Z" />
<glyph unicode="_" glyph-name="underscore" horiz-adv-x="934" d="M932 -270H0V-129H932V-270Z" />
<glyph unicode="`" glyph-name="grave" horiz-adv-x="559" d="M467 1210H264L43 1475L45 1481H291L467 1210Z" />
<glyph unicode="a" glyph-name="a" horiz-adv-x="934" d="M444 1102Q631 1102 721 1019T811 784V254Q811 216 829 199T868 182H918V8Q898 -3 863 -14T772 -25Q698 -25 649 14T582 117H571Q548 85 523 59T466 14T394 -15T299 -25Q261 -25 215 -13T127 33T57 126T29
279Q29 388 68 460T178 575T347 637T563 655V768Q563 796 559 820T542 862T508 890T451 901Q413 901 388 891T349 864T328 828T322 788V758H82Q80 767 80 778V803Q80 870 106 925T179 1020T294 1080T444 1102ZM563 477Q509 477 459 469T369 441T305 387T281 301Q281
245 309 213T401 180Q445 180 475 199T525 250T554 325T563 416V477Z" />
<glyph unicode="b" glyph-name="b" horiz-adv-x="1026" d="M342 133L317 0H113V1481H358V967H369Q398 1032 462 1067T608 1102Q680 1102 741 1070T846 969T916 794T942 541Q942 394 918 288T849 112T740 9T596 -25Q519 -25 456 15T352 133H342ZM358 500Q358 354
395 277T522 199Q611 199 648 276T686 500V578Q686 723 649 801T522 879Q477 879 446 859T396 799T367 703T358 573V500Z" />
<glyph unicode="c" glyph-name="c" horiz-adv-x="934" d="M483 1102Q569 1102 639 1077T758 1000T833 866T860 672H608Q608 786 577 840T483 895Q405 895 373 814T340 578V500Q340 345 374 264T492 182Q558 182 587 238T616 406H860Q860 293 834 212T760 78T644
0T492 -25Q387 -25 310 8T183 111T108 287T84 539Q84 829 183 965T483 1102Z" />
<glyph unicode="d" glyph-name="d" horiz-adv-x="1026" d="M913 0H709L684 133H674Q634 55 571 15T430 -25Q350 -25 286 8T177 111T108 287T84 541Q84 688 109 794T179 968T285 1069T418 1102Q499 1102 563 1067T657 967H668V1481H913V0ZM504 879Q415 879 378
801T340 578V500Q340 354 377 277T504 199Q593 199 630 276T668 500V573Q668 646 659 703T631 799T580 858T504 879Z" />
<glyph unicode="e" glyph-name="e" horiz-adv-x="934" d="M477 1102Q672 1102 769 966T866 539V477H319Q320 405 329 349T358 255T409 196T485 176Q548 176 585 230T623 381H866Q866 277 838 201T758 74T637 0T485 -25Q278 -25 171 112T63 539Q63 829 170 965T477
1102ZM477 901Q399 901 364 837T322 655H608Q608 773 577 837T477 901Z" />
<glyph unicode="f" glyph-name="f" horiz-adv-x="559" d="M381 1497Q402 1497 427 1495T476 1490T522 1482T559 1473V1290H459Q373 1290 373 1202V1077H559V870H373V0H127V870H18V1077H127V1208Q127 1262 139 1314T180 1406T258 1472T381 1497Z" />
<glyph unicode="g" glyph-name="g" horiz-adv-x="1026" d="M995 1257Q995 1142 949 1075T821 983Q863 937 885 874T907 735Q907 652 881 585T805 469T680 395T508 369H406Q373 369 353 350T332 303Q332 275 349 258T395 240H768Q819 240 863 221T941 164T994 75T1014
-41Q1014 -116 987 -177T912 -282T802 -349T666 -373H270Q221 -373 178 -355T103 -304T52 -226T33 -125Q33 -45 72 8T170 94Q130 119 107 159T84 256Q84 291 96 320T130 374T181 415T242 444Q177 492 144 565T111 735Q111 818 136 885T212 1001T337 1075T508 1102Q559
1102 604 1095T688 1071Q719 1093 739 1119T771 1172T788 1220T793 1257H995ZM379 12Q358 12 341 4T310 -17T289 -48T281 -86Q281 -132 309 -159T379 -186H655Q702 -186 734 -159T766 -86Q766 -40 737 -14T666 12H379ZM508 920Q433 920 395 871T356 735Q356 649
394 600T508 551Q585 551 623 600T662 735Q662 822 624 871T508 920Z" />
<glyph unicode="h" glyph-name="h" horiz-adv-x="1026" d="M358 963H367Q385 988 410 1013T467 1057T539 1089T627 1102Q689 1102 741 1084T832 1024T891 917T913 756V0H668V688Q668 792 630 835T526 879Q490 879 459 863T406 817T371 748T358 664V0H113V1481H358V963Z" />
<glyph unicode="i" glyph-name="i" horiz-adv-x="467" d="M356 0H111V1077H356V0ZM356 1257H111V1481H356V1257Z" />
<glyph unicode="j" glyph-name="j" horiz-adv-x="467" d="M356 -84Q356 -138 345 -189T305 -282T228 -348T106 -373Q83 -373 58 -371T9 -365T-38 -357T-76 -348V-166H14Q62 -166 86 -141T111 -68V1077H356V-84ZM356 1257H111V1481H356V1257Z" />
<glyph unicode="k" glyph-name="k" horiz-adv-x="934" d="M356 649L657 1077H920L600 639L936 0H664L446 446L356 336V0H111V1481H356V649Z" />
<glyph unicode="l" glyph-name="l" horiz-adv-x="467" d="M356 0H111V1481H356V0Z" />
<glyph unicode="m" glyph-name="m" horiz-adv-x="1493" d="M1120 1102Q1178 1102 1226 1085T1310 1027T1366 920T1386 756V0H1141V688Q1141 792 1111 835T1020 879Q990 879 963 865T915 824T882 762T870 680V0H629V688Q629 792 598 835T506 879Q474 879 447 864T401
820T370 752T358 664V0H113V1077H317L342 944H354Q373 975 399 1004T457 1054T527 1089T610 1102Q691 1102 750 1066T842 944Q863 975 890 1004T953 1054T1030 1089T1120 1102Z" />
<glyph unicode="n" glyph-name="n" horiz-adv-x="1026" d="M627 1102Q689 1102 741 1084T832 1024T891 917T913 756V0H668V688Q668 792 630 835T526 879Q490 879 459 863T406 817T371 748T358 664V0H113V1077H317L342 944H354Q375 975 402 1004T463 1054T538 1089T627
1102Z" />
<glyph unicode="o" glyph-name="o" horiz-adv-x="1026" d="M514 1102Q729 1102 836 966T944 539Q944 249 837 112T514 -25Q299 -25 192 112T84 539Q84 829 191 965T514 1102ZM514 895Q419 895 380 814T340 578V500Q340 345 379 264T514 182Q609 182 648 263T688
500V578Q688 732 649 813T514 895Z" />
<glyph unicode="p" glyph-name="p" horiz-adv-x="1026" d="M596 1102Q676 1102 740 1069T849 966T918 791T942 537Q942 390 917 284T847 109T741 8T608 -25Q527 -25 463 10T369 111H358V-354H113V1077H317L342 944H352Q393 1023 456 1062T596 1102ZM522 879Q433
879 396 801T358 578V504Q358 358 395 279T522 199Q611 199 648 276T686 500V578Q686 723 649 801T522 879Z" />
<glyph unicode="q" glyph-name="q" horiz-adv-x="1026" d="M684 944L709 1077H913V-354H668V111H657Q628 46 564 11T418 -25Q346 -25 285 7T180 109T110 284T84 537Q84 684 108 790T177 966T286 1068T430 1102Q507 1102 570 1063T674 944H684ZM668 578Q668 723
631 801T504 879Q415 879 378 801T340 578V500Q340 354 377 277T504 199Q593 199 630 278T668 504V578Z" />
<glyph unicode="r" glyph-name="r" horiz-adv-x="653" d="M545 1102Q568 1102 587 1099T620 1093Q636 1089 647 1085V848H559Q519 848 483 836T419 796T375 720T358 600V0H113V1077H317L346 920H358Q369 954 384 986T421 1044T474 1086T545 1102Z" />
<glyph unicode="s" glyph-name="s" horiz-adv-x="934" d="M469 1102Q546 1102 612 1082T728 1025T806 933T834 809Q834 792 833 778T831 762H582Q582 834 550 867T461 901Q404 901 369 873T334 795Q334 756 356 733T416 694T500 667T597 641T693 605T778 548T837
458T860 324Q860 225 830 159T746 51T619 -7T459 -25Q366 -25 294 -1T171 69T94 177T68 317V325Q68 330 69 334Q69 338 70 342H319V328Q320 285 333 256T368 209T415 184T467 176Q491 176 516 182T563 201T597 237T610 293Q610 336 588 362T528 405T444 435T347
463T251 499T166 555T107 643T84 774Q84 856 114 917T196 1020T318 1081T469 1102Z" />
<glyph unicode="t" glyph-name="t" horiz-adv-x="559" d="M373 1077H528V870H373V270Q373 182 459 182H528V0Q515 -5 497 -9T459 -17T419 -23T381 -25Q307 -25 258 0T180 66T139 158T127 264V870H18V1077H127L164 1380H373V1077Z" />
<glyph unicode="u" glyph-name="u" horiz-adv-x="1026" d="M913 0H709L684 133H672Q651 101 624 73T563 23T488 -12T399 -25Q337 -25 285 -7T194 53T135 160T113 322V1077H358V389Q358 285 394 242T500 199Q536 199 566 215T619 259T655 326T668 410V1077H913V0Z" />
<glyph unicode="v" glyph-name="v" horiz-adv-x="934" d="M592 0H342L8 1077H266L406 614Q410 599 415 577T426 529T437 476T448 422Q460 360 473 291H481Q490 356 501 417Q505 443 510 470T521 524T531 573T543 614L680 1077H926L592 0Z" />
<glyph unicode="w" glyph-name="w" horiz-adv-x="1307" d="M1044 0H797L690 514Q682 555 676 601T666 688Q662 735 659 780H647Q644 736 640 690Q636 651 630 605T616 516L512 0H264L2 1077H248L350 635Q362 580 370 521T384 411Q390 353 393 297H401Q405 350
412 407Q417 456 426 515T446 633L539 1077H784L877 631Q885 591 893 535T908 425Q915 363 922 297H930Q938 359 947 419Q955 470 964 527T983 631L1077 1077H1305L1044 0Z" />
<glyph unicode="x" glyph-name="x" horiz-adv-x="934" d="M616 563L924 0H647L465 356H455Q410 268 365 178T272 0H10L322 557L35 1077H313Q352 1000 391 920T473 764H483Q524 839 564 919T643 1077H907L616 563Z" />
<glyph unicode="y" glyph-name="y" horiz-adv-x="934" d="M631 55Q605 -32 572 -110T493 -246T388 -339T250 -373Q176 -373 133 -365T90 -354V-166H201Q253 -166 299 -128T367 0L8 1077H268L430 571Q440 540 450 493T469 400Q479 347 487 291H496Q503 344 512
395Q520 439 528 486T547 569L680 1077H926L631 55Z" />
<glyph unicode="z" glyph-name="z" horiz-adv-x="840" d="M788 975L369 207H803V0H37V104L455 870H61V1077H788V975Z" />
<glyph unicode="{" glyph-name="braceleft" horiz-adv-x="653" d="M610 1348Q583 1348 555 1343T503 1325T464 1287T449 1223Q449 1120 443 1022T434 821Q432 769 420 728T382 659T315 615T213 600V580Q273 580 314 565T381 522T419 452T434 358Q437 255 443 157T449
-43Q449 -82 464 -106T502 -144T554 -163T610 -168V-326Q531 -326 458 -315T330 -272T241 -180T207 -23V373Q207 407 193 431T156 469T105 489T49 496V684Q77 684 105 690T155 711T192 748T207 807V1202Q207 1299 240 1358T329 1450T458 1494T610 1505V1348Z" />
<glyph unicode="|" glyph-name="bar" horiz-adv-x="471" d="M328 -354H143V1481H328V-354Z" />
<glyph unicode="}" glyph-name="braceright" horiz-adv-x="653" d="M43 1505Q122 1505 195 1494T323 1451T412 1359T446 1202V807Q446 772 460 749T497 711T548 691T604 684V496Q576 496 548 490T498 469T461 431T446 373V-23Q446 -120 413 -179T324 -271T195
-315T43 -326V-168Q71 -168 99 -163T151 -145T190 -107T205 -43Q205 59 210 157T219 358Q221 410 233 451T272 521T339 565T440 580V600Q380 600 339 615T272 658T233 728T219 821Q216 924 211 1022T205 1223Q205 1262 190 1286T151 1324T99 1343T43 1348V1505Z"
/>
<glyph unicode="~" glyph-name="asciitilde" horiz-adv-x="981" d="M926 578Q900 536 863 503Q831 474 784 451T674 428Q625 428 581 447T492 490T403 533T307 553Q251 553 206 530T126 478Q86 445 55 403V649Q81 691 118 724Q150 752 197 775T307 799Q356 799
400 780T489 737T578 694T674 674Q729 674 775 697T855 748Q895 781 926 823V578Z" />
<glyph unicode="&#xa0;" glyph-name="uni00A0" horiz-adv-x="467" />
<glyph unicode="&#xa1;" glyph-name="exclamdown" horiz-adv-x="559" d="M436 -328H123L195 674H362L436 -328ZM422 797H139V1077H422V797Z" />
<glyph unicode="&#xa2;" glyph-name="cent" horiz-adv-x="934" d="M537 1264Q611 1256 671 1227T773 1146T837 1016T860 836H633Q633 1022 537 1057V344Q641 375 641 569H860Q860 464 838 387T773 257T671 176T537 141V-100H424V143Q248 163 166 299T84 702Q84
970 169 1106T424 1262V1481H537V1264ZM424 1055Q365 1030 340 951T315 741V664Q315 536 341 457T424 352V1055Z" />
<glyph unicode="&#xa3;" glyph-name="sterling" horiz-adv-x="934" d="M516 1430Q600 1430 668 1405T785 1330T860 1206T887 1032V1006H643V1059Q643 1140 609 1181T516 1223Q459 1223 426 1187T393 1075V797H639V590H391L369 221H872V0H41V221H145V590H18V797H145V1022Q145
1124 170 1200T244 1328T360 1404T516 1430Z" />
<glyph unicode="&#xa4;" glyph-name="currency" horiz-adv-x="934" d="M467 1182Q538 1182 603 1155T723 1081L809 1167L932 1040L831 940Q859 886 874 826T889 700Q889 632 873 572T829 457L932 356L807 231L721 317Q667 272 603 247T467 221Q395 221 330 246T211
317L125 231L0 356L102 459Q75 511 60 572T45 700Q45 831 100 938L0 1040L123 1167L209 1081Q263 1128 328 1155T467 1182ZM467 997Q416 997 371 974T291 911T237 817T217 700Q217 639 237 586T291 492T370 429T467 406Q518 406 563 429T641 492T695 585T715 700Q715
762 695 816T642 911T563 974T467 997Z" />
<glyph unicode="&#xa5;" glyph-name="yen" horiz-adv-x="934" d="M662 788H877V621H590V479H877V313H590V0H344V313H57V479H342V623H57V788H272L8 1405H276L469 866H477L668 1405H924L662 788Z" />
<glyph unicode="&#xa6;" glyph-name="brokenbar" horiz-adv-x="471" d="M328 719H143V1481H328V719ZM328 -354H143V408H328V-354Z" />
<glyph unicode="&#xa7;" glyph-name="section" horiz-adv-x="934" d="M489 1430Q566 1430 632 1410T748 1353T826 1261T854 1137Q854 1120 853 1106T852 1090H602Q602 1162 570 1195T481 1229Q424 1229 389 1201T354 1122Q354 1071 376 1034T436 969T521 916T618
867T715 811T800 740T860 642T883 508Q883 424 849 348T750 215Q796 169 825 107T854 -45Q854 -127 825 -188T744 -291T622 -352T469 -373Q392 -373 326 -353T210 -296T132 -204T104 -80Q104 -63 105 -49T106 -33H356Q356 -105 388 -138T477 -172Q534 -172 569
-144T604 -66Q604 -14 582 22T522 88T437 141T340 190T243 246T159 317T99 415T76 549Q76 630 110 707T209 842Q162 887 133 949T104 1102Q104 1184 133 1245T214 1348T336 1409T489 1430ZM360 735Q342 710 330 681T317 621Q317 559 341 516T405 438T495 376T596
319Q616 344 628 374T641 436Q641 497 617 540T552 617T462 678T360 735Z" />
<glyph unicode="&#xa8;" glyph-name="dieresis" horiz-adv-x="559" d="M561 1257H356V1481H561V1257ZM203 1257H-2V1481H203V1257Z" />
<glyph unicode="&#xa9;" glyph-name="copyright" horiz-adv-x="1237" d="M618 1430Q755 1430 863 1379T1048 1232T1164 1003T1204 702Q1204 536 1164 402T1048 173T864 27T618 -25Q481 -25 373 26T189 173T73 402T33 702Q33 868 73 1002T189 1232T373 1378T618
1430ZM623 1133Q688 1133 744 1114T841 1056T905 955T928 809H750Q750 896 715 937T623 979Q547 979 510 914T473 733V674Q473 558 511 493T629 428Q686 428 721 468T756 596H928Q928 515 905 455T842 354T745 294T623 274Q545 274 484 300T381 378T316 511T293
702Q293 812 315 893T380 1027T484 1107T623 1133ZM618 1317Q508 1317 421 1274T273 1150T180 957T147 702Q147 562 179 449T273 255T421 132T618 88Q728 88 815 131T964 255T1057 448T1090 702Q1090 843 1058 956T964 1150T816 1273T618 1317Z" />
<glyph unicode="&#xaa;" glyph-name="ordfeminine" horiz-adv-x="621" d="M309 1503Q436 1503 496 1447T557 1288V940Q557 914 568 903T596 891H629V764Q615 758 592 751T530 743Q481 743 449 769T403 838H395Q380 816 363 799T324 769T275 750T211 743Q185 743
154 751T95 781T48 844T29 948Q29 1021 55 1070T127 1148T238 1189T381 1202V1278Q381 1295 379 1310T369 1336T348 1353T313 1360Q290 1360 275 1354T252 1338T240 1316T236 1292V1272H66Q64 1278 64 1284T63 1300Q63 1346 80 1383T130 1447T207 1488T309 1503ZM381
1081Q348 1081 317 1076T261 1058T222 1021T207 963Q207 929 224 909T281 889Q308 889 327 901T358 933T375 981T381 1040V1081Z" />
<glyph unicode="&#xab;" glyph-name="guillemotleft" horiz-adv-x="934" d="M657 668L879 258H692L414 668L692 1077H879L657 668ZM283 668L504 258H317L39 668L317 1077H504L283 668Z" />
<glyph unicode="&#xac;" glyph-name="logicalnot" horiz-adv-x="981" d="M911 383H698V717H59V948H911V383Z" />
<glyph unicode="&#xad;" glyph-name="uni00AD" horiz-adv-x="559" d="M526 432H33V674H526V432Z" />
<glyph unicode="&#xae;" glyph-name="registered" horiz-adv-x="1237" d="M618 1430Q755 1430 863 1379T1048 1232T1164 1003T1204 702Q1204 536 1164 402T1048 173T864 27T618 -25Q481 -25 373 26T189 173T73 402T33 702Q33 868 73 1002T189 1232T373 1378T618
1430ZM618 1317Q508 1317 421 1274T273 1150T180 957T147 702Q147 562 179 449T273 255T421 132T618 88Q728 88 815 131T964 255T1057 448T1090 702Q1090 843 1058 956T964 1150T816 1273T618 1317ZM680 1118Q730 1118 772 1103T845 1060T893 994T911 909Q911 868
901 837T874 781T833 741T782 715V707Q797 701 818 689T858 651T890 585T903 485Q903 447 907 421T919 378T938 352T963 338V297Q958 294 949 291T928 286T904 283T883 281Q854 281 826 287T776 311T741 359T727 438Q727 494 717 530T689 588T650 617T606 625H532V287H356V1118H680ZM532
958V782H616Q667 782 699 808T731 877Q731 915 702 936T623 958H532Z" />
<glyph unicode="&#xaf;" glyph-name="overscore" horiz-adv-x="559" d="M541 1227H18V1405H541V1227Z" />
<glyph unicode="&#xb0;" glyph-name="degree" horiz-adv-x="819" d="M406 1430Q466 1430 519 1407T611 1345T673 1252T696 1139Q696 1078 674 1025T612 933T519 871T406 848Q345 848 292 870T200 932T138 1025T115 1139Q115 1199 137 1252T199 1344T292 1407T406
1430ZM406 1288Q374 1288 347 1277T299 1245T266 1198T254 1139Q254 1107 266 1080T298 1032T346 999T406 987Q437 987 464 999T511 1031T543 1079T555 1139Q555 1170 544 1197T512 1245T464 1276T406 1288Z" />
<glyph unicode="&#xb1;" glyph-name="plusminus" horiz-adv-x="1124" d="M666 862H983V649H666V295H455V649H139V862H455V1219H666V862ZM983 0H139V211H983V0Z" />
<glyph unicode="&#xb2;" glyph-name="twosuperior" horiz-adv-x="559" d="M285 1503Q333 1503 374 1491T447 1452T496 1383T514 1282Q514 1207 485 1146T414 1029T323 919T236 807H518V655H31V692Q31 741 44 783T80 862T130 934T186 1001Q218 1037 247 1071T297
1140T331 1209T344 1284Q344 1297 341 1310T331 1335T311 1353T279 1360Q260 1360 247 1351T224 1327T211 1291T207 1247V1190H45Q43 1198 42 1207Q39 1222 39 1245Q39 1314 59 1363T113 1443T191 1488T285 1503Z" />
<glyph unicode="&#xb3;" glyph-name="threesuperior" horiz-adv-x="559" d="M276 1503Q328 1503 371 1488T446 1444T495 1371T512 1270Q512 1201 483 1159T408 1085Q457 1061 490 1011T524 883Q524 826 506 781T456 704T380 656T281 639Q220 639 173 657T94 708T46
789T29 895V926H197V891Q197 837 217 809T279 780Q313 780 334 806T356 891Q356 926 349 949T329 985T302 1004T270 1010H219V1147H272Q300 1147 321 1176T342 1264Q342 1316 325 1339T279 1362Q247 1362 229 1337T211 1260V1227H43V1270Q43 1323 60 1366T108 1439T182
1486T276 1503Z" />
<glyph unicode="&#xb4;" glyph-name="acute" horiz-adv-x="559" d="M522 1475L301 1210H98L274 1481H520L522 1475Z" />
<glyph unicode="&#xb5;" glyph-name="mu" horiz-adv-x="1026" d="M913 0H709L684 133H672Q654 101 631 73T579 23T516 -12T440 -25Q419 -25 398 -21T358 -8V-354H113V1077H358V389Q358 285 394 242T500 199Q536 199 566 215T619 259T655 326T668 410V1077H913V0Z" />
<glyph unicode="&#xb6;" glyph-name="paragraph" horiz-adv-x="934" d="M920 1249H821V-354H655V1249H547V-354H383V512Q309 522 246 560T137 657T64 793T37 956Q37 1049 67 1131T151 1273T276 1369T430 1405H920V1249Z" />
<glyph unicode="&#xb7;" glyph-name="middot" horiz-adv-x="467" d="M356 569H109V838H356V569Z" />
<glyph unicode="&#xb8;" glyph-name="cedilla" horiz-adv-x="559" d="M307 -68Q340 -70 369 -79T421 -104T456 -146T469 -207Q469 -258 447 -290T391 -341T318 -366T246 -373Q202 -373 157 -369T74 -356V-256H219Q253 -256 273 -246T293 -207Q293 -182 278 -170T223
-158H156L178 23H317L307 -68Z" />
<glyph unicode="&#xb9;" glyph-name="onesuperior" horiz-adv-x="559" d="M383 797H518V655H68V797H219V1274H66V1389Q89 1392 119 1400T181 1421T244 1448T301 1481H383V797Z" />
<glyph unicode="&#xba;" glyph-name="ordmasculine" horiz-adv-x="612" d="M311 1503Q457 1503 529 1411T602 1122Q602 925 530 833T311 741Q165 741 93 833T20 1122Q20 1318 92 1410T311 1503ZM311 1354Q251 1354 227 1302T203 1149V1096Q203 996 227 944T311
891Q371 891 395 943T420 1096V1149Q420 1249 396 1301T311 1354Z" />
<glyph unicode="&#xbb;" glyph-name="guillemotright" horiz-adv-x="934" d="M895 668L616 258H430L651 668L430 1077H616L895 668ZM520 668L242 258H55L276 668L55 1077H242L520 668Z" />
<glyph unicode="&#xbc;" glyph-name="onequarter" horiz-adv-x="1401" d="M403 -25H266L1077 1430H1212L403 -25ZM383 721H518V580H68V721H219V1198H66V1313Q89 1316 119 1324T181 1345T244 1372T301 1405H383V721ZM1184 848Q1167 770 1139 689T1079 537T1017
410T967 324H1106V399Q1118 422 1134 457T1165 531T1192 605T1212 668H1268V324H1354V182H1268V0H1106V182H813V307Q844 363 873 428T929 564T979 706T1022 848H1184Z" />
<glyph unicode="&#xbd;" glyph-name="onehalf" horiz-adv-x="1401" d="M393 -25H256L1067 1430H1202L393 -25ZM383 721H518V580H68V721H219V1198H66V1313Q89 1316 119 1324T181 1345T244 1372T301 1405H383V721ZM1124 848Q1172 848 1213 836T1286 797T1336 728T1354
627Q1354 552 1325 491T1253 373T1162 264T1075 152H1358V0H870V37Q870 86 883 128T919 207T969 279T1026 346Q1058 382 1087 416T1137 484T1171 554T1184 629Q1184 642 1181 655T1171 680T1150 698T1118 705Q1100 705 1087 696T1064 672T1051 636T1047 592V535H885Q883
543 882 552Q879 567 879 590Q879 659 899 708T952 788T1030 833T1124 848Z" />
<glyph unicode="&#xbe;" glyph-name="threequarters" horiz-adv-x="1401" d="M395 -25H258L1069 1430H1204L395 -25ZM307 1430Q359 1430 402 1415T477 1370T525 1297T543 1196Q543 1127 514 1085T438 1012Q488 987 521 937T555 809Q555 752 537 707T487 630T410
582T311 565Q251 565 204 583T125 634T76 715T59 821V852H227V817Q227 707 309 707Q343 707 365 732T387 817Q387 852 380 875T360 911T333 930T301 936H250V1073H303Q331 1073 352 1102T373 1190Q373 1243 356 1265T309 1288Q242 1288 242 1186V1153H74V1196Q74
1249 91 1292T139 1366T213 1413T307 1430ZM1178 848Q1161 770 1133 689T1073 537T1011 410T961 324H1100V399Q1112 422 1128 457T1159 531T1186 605T1206 668H1262V324H1348V182H1262V0H1100V182H807V307Q838 363 867 428T923 564T973 706T1016 848H1178Z" />
<glyph unicode="&#xbf;" glyph-name="questiondown" horiz-adv-x="1026" d="M612 586Q612 524 594 478T549 393T490 317T431 241T385 151T367 35Q367 20 371 -8T391 -64T434 -112T510 -133Q561 -133 592 -110T640 -54T662 16T668 82Q668 94 668 104T667 122Q666
131 666 137H924Q925 123 927 110Q928 99 929 87T930 66Q930 -20 903 -96T822 -229T685 -319T494 -352Q402 -352 329 -326T205 -251T126 -136T98 12Q98 103 117 166T164 277T226 360T287 434T335 513T354 616V674H612V586ZM623 797H340V1077H623V797Z" />
<glyph unicode="&#xc0;" glyph-name="Agrave" horiz-adv-x="1212" d="M1210 0H942L856 276H338L254 0H0L453 1405H758L1210 0ZM594 1169Q588 1132 581 1098Q575 1069 568 1036T553 979L410 510H784L643 979Q635 1007 627 1040T614 1102Q607 1135 602 1169H594ZM747
1538H544L323 1803L325 1809H571L747 1538Z" />
<glyph unicode="&#xc1;" glyph-name="Aacute" horiz-adv-x="1212" d="M1210 0H942L856 276H338L254 0H0L453 1405H758L1210 0ZM594 1169Q588 1132 581 1098Q575 1069 568 1036T553 979L410 510H784L643 979Q635 1007 627 1040T614 1102Q607 1135 602 1169H594ZM889
1803L668 1538H465L641 1809H887L889 1803Z" />
<glyph unicode="&#xc2;" glyph-name="Acircumflex" horiz-adv-x="1212" d="M1210 0H942L856 276H338L254 0H0L453 1405H758L1210 0ZM594 1169Q588 1132 581 1098Q575 1069 568 1036T553 979L410 510H784L643 979Q635 1007 627 1040T614 1102Q607 1135 602 1169H594ZM882
1532H698L607 1674L515 1532H331L507 1809H708L882 1532Z" />
<glyph unicode="&#xc3;" glyph-name="Atilde" horiz-adv-x="1212" d="M1210 0H942L856 276H338L254 0H0L453 1405H758L1210 0ZM594 1169Q588 1132 581 1098Q575 1069 568 1036T553 979L410 510H784L643 979Q635 1007 627 1040T614 1102Q607 1135 602 1169H594ZM951
1809Q951 1767 940 1723T904 1642T841 1582T748 1559Q711 1559 678 1571T611 1597T545 1623T478 1635Q445 1635 425 1618T398 1559H262Q262 1601 273 1645T309 1726T371 1785T463 1809Q501 1809 535 1797T602 1771T668 1745T736 1733Q768 1733 788 1749T815 1809H951Z"
/>
<glyph unicode="&#xc4;" glyph-name="Adieresis" horiz-adv-x="1212" d="M1210 0H942L856 276H338L254 0H0L453 1405H758L1210 0ZM594 1169Q588 1132 581 1098Q575 1069 568 1036T553 979L410 510H784L643 979Q635 1007 627 1040T614 1102Q607 1135 602 1169H594ZM530
1585H325V1809H530V1585ZM888 1585H683V1809H888V1585Z" />
<glyph unicode="&#xc5;" glyph-name="Aring" horiz-adv-x="1212" d="M1210 0H942L856 276H338L254 0H0L453 1405H758L1210 0ZM594 1169Q588 1132 581 1098Q575 1069 568 1036T553 979L410 510H784L643 979Q635 1007 627 1040T614 1102Q607 1135 602 1169H594ZM607
1870Q648 1870 684 1855T746 1812T788 1750T803 1674Q803 1633 788 1597T746 1535T683 1493T607 1477Q567 1477 531 1492T468 1533T426 1596T410 1674Q410 1714 425 1750T467 1812T530 1854T607 1870ZM607 1768Q566 1768 539 1741T512 1674Q512 1633 539 1606T607
1579Q626 1579 643 1586T673 1606T693 1636T701 1674Q701 1694 694 1711T673 1741T643 1761T607 1768Z" />
<glyph unicode="&#xc6;" glyph-name="AE" horiz-adv-x="1679" d="M915 0L848 276H330L227 0H-16L522 1405H1579V1171H897L979 836H1489V602H1036L1126 233H1591V0H915ZM416 510H793L649 1118H641L416 510Z" />
<glyph unicode="&#xc7;" glyph-name="Ccedilla" horiz-adv-x="1212" d="M672 -68Q705 -70 734 -79T786 -104T821 -146T834 -207Q834 -258 812 -290T756 -341T683 -366T611 -373Q567 -373 522 -369T439 -356V-256H584Q618 -256 638 -246T658 -207Q658 -182 643
-170T588 -158H521L538 -19Q459 -9 393 19Q289 63 217 153T108 379T70 702Q70 888 107 1025T217 1252T393 1386T629 1430Q739 1430 833 1398T997 1300T1105 1130T1145 883H877Q877 964 859 1024T808 1125T730 1184T629 1204Q556 1204 502 1173T411 1084T358 943T340
754V651Q340 546 358 463T413 321T506 232T637 201Q694 201 740 220T820 279T871 379T889 520H1145Q1145 382 1106 280T998 110T834 8Q761 -17 677 -23L672 -68Z" />
<glyph unicode="&#xc8;" glyph-name="Egrave" horiz-adv-x="1120" d="M700 1538H498L276 1802L279 1808H524L700 1538ZM123 0V1405H1018V1171H385V836H928V602H385V233H1030V0H123Z" />
<glyph unicode="&#xc9;" glyph-name="Eacute" horiz-adv-x="1120" d="M844 1802L623 1538H420L596 1808H842L844 1802ZM123 0V1405H1018V1171H385V836H928V602H385V233H1030V0H123Z" />
<glyph unicode="&#xca;" glyph-name="Ecircumflex" horiz-adv-x="1120" d="M836 1532H651L561 1673L469 1532H285L461 1808H662L836 1532ZM123 0V1405H1018V1171H385V836H928V602H385V233H1030V0H123Z" />
<glyph unicode="&#xcb;" glyph-name="Edieresis" horiz-adv-x="1120" d="M483 1585H279V1808H483V1585ZM842 1585H637V1808H842V1585ZM123 0V1405H1018V1171H385V836H928V602H385V233H1030V0H123Z" />
<glyph unicode="&#xcc;" glyph-name="Igrave" horiz-adv-x="467" d="M365 0H102V1405H365V0ZM375 1538H172L-49 1803L-47 1809H199L375 1538Z" />
<glyph unicode="&#xcd;" glyph-name="Iacute" horiz-adv-x="467" d="M365 0H102V1405H365V0ZM517 1803L296 1538H93L269 1809H515L517 1803Z" />
<glyph unicode="&#xce;" glyph-name="Icircumflex" horiz-adv-x="467" d="M365 0H102V1405H365V0ZM510 1532H326L235 1674L143 1532H-42L135 1809H336L510 1532Z" />
<glyph unicode="&#xcf;" glyph-name="Idieresis" horiz-adv-x="467" d="M365 0H102V1405H365V0ZM158 1585H-48V1809H158V1585ZM516 1585H311V1809H516V1585Z" />
<glyph unicode="&#xd0;" glyph-name="Eth" horiz-adv-x="1212" d="M20 813H123V1405H580Q711 1405 815 1362T992 1234T1104 1021T1143 723Q1143 543 1104 408T993 182T816 46T580 0H123V639H20V813ZM385 1171V813H641V639H385V233H555Q628 233 686 260T786 342T850
479T872 672V774Q872 873 850 947T787 1071T687 1146T555 1171H385Z" />
<glyph unicode="&#xd1;" glyph-name="Ntilde" horiz-adv-x="1212" d="M950 1808Q950 1766 939 1722T904 1642T841 1582T748 1559Q711 1559 677 1570T610 1596T544 1622T477 1634Q445 1634 425 1618T397 1559H262Q262 1601 273 1645T308 1725T371 1785T463 1808Q500
1808 534 1797T602 1771T667 1745T735 1733Q767 1733 788 1749T815 1808H950ZM856 0L422 774Q416 785 406 806T384 850Q372 876 358 905L350 899Q351 876 352 854Q353 835 353 816T354 782V0H123V1405H354L788 631Q796 617 807 595T829 552Q840 527 852 500L858
506Q857 533 857 556Q856 576 856 595T856 623V1405H1090V0H856Z" />
<glyph unicode="&#xd2;" glyph-name="Ograve" horiz-adv-x="1307" d="M653 1430Q789 1430 897 1386T1081 1252T1197 1025T1237 702Q1237 516 1197 380T1082 153T898 19T653 -25Q517 -25 409 19T226 153T110 379T70 702Q70 888 110 1025T225 1252T409 1386T653
1430ZM653 1204Q575 1204 516 1173T418 1084T360 943T340 754V651Q340 546 359 463T418 321T516 232T653 201Q731 201 790 232T888 321T947 462T967 651V754Q967 859 948 942T889 1084T790 1173T653 1204ZM795 1538H592L371 1803L373 1809H619L795 1538Z" />
<glyph unicode="&#xd3;" glyph-name="Oacute" horiz-adv-x="1307" d="M653 1430Q789 1430 897 1386T1081 1252T1197 1025T1237 702Q1237 516 1197 380T1082 153T898 19T653 -25Q517 -25 409 19T226 153T110 379T70 702Q70 888 110 1025T225 1252T409 1386T653
1430ZM653 1204Q575 1204 516 1173T418 1084T360 943T340 754V651Q340 546 359 463T418 321T516 232T653 201Q731 201 790 232T888 321T947 462T967 651V754Q967 859 948 942T889 1084T790 1173T653 1204ZM937 1803L716 1538H513L689 1809H935L937 1803Z" />
<glyph unicode="&#xd4;" glyph-name="Ocircumflex" horiz-adv-x="1307" d="M653 1430Q789 1430 897 1386T1081 1252T1197 1025T1237 702Q1237 516 1197 380T1082 153T898 19T653 -25Q517 -25 409 19T226 153T110 379T70 702Q70 888 110 1025T225 1252T409 1386T653
1430ZM653 1204Q575 1204 516 1173T418 1084T360 943T340 754V651Q340 546 359 463T418 321T516 232T653 201Q731 201 790 232T888 321T947 462T967 651V754Q967 859 948 942T889 1084T790 1173T653 1204ZM930 1532H746L655 1674L563 1532H379L555 1809H756L930
1532Z" />
<glyph unicode="&#xd5;" glyph-name="Otilde" horiz-adv-x="1307" d="M653 1430Q789 1430 897 1386T1081 1252T1197 1025T1237 702Q1237 516 1197 380T1082 153T898 19T653 -25Q517 -25 409 19T226 153T110 379T70 702Q70 888 110 1025T225 1252T409 1386T653
1430ZM653 1204Q575 1204 516 1173T418 1084T360 943T340 754V651Q340 546 359 463T418 321T516 232T653 201Q731 201 790 232T888 321T947 462T967 651V754Q967 859 948 942T889 1084T790 1173T653 1204ZM999 1809Q999 1767 988 1723T952 1642T889 1582T796 1559Q759
1559 726 1571T659 1597T593 1623T526 1635Q493 1635 473 1618T446 1559H310Q310 1601 321 1645T357 1726T419 1785T511 1809Q549 1809 583 1797T650 1771T716 1745T784 1733Q816 1733 836 1749T863 1809H999Z" />
<glyph unicode="&#xd6;" glyph-name="Odieresis" horiz-adv-x="1307" d="M653 1430Q789 1430 897 1386T1081 1252T1197 1025T1237 702Q1237 516 1197 380T1082 153T898 19T653 -25Q517 -25 409 19T226 153T110 379T70 702Q70 888 110 1025T225 1252T409 1386T653
1430ZM653 1204Q575 1204 516 1173T418 1084T360 943T340 754V651Q340 546 359 463T418 321T516 232T653 201Q731 201 790 232T888 321T947 462T967 651V754Q967 859 948 942T889 1084T790 1173T653 1204ZM578 1585H373V1809H578V1585ZM936 1585H731V1809H936V1585Z"
/>
<glyph unicode="&#xd7;" glyph-name="multiply" horiz-adv-x="981" d="M950 823L651 524L950 227L803 80L504 379L207 80L59 227L358 524L59 823L207 971L504 672L803 971L950 823Z" />
<glyph unicode="&#xd8;" glyph-name="Oslash" horiz-adv-x="1307" d="M1081 1249Q1157 1159 1197 1024T1237 702Q1237 516 1197 380T1082 153T898 19T653 -25Q469 -25 336 55L254 -76H82L225 154Q150 243 110 379T70 702Q70 888 110 1025T225 1252T409 1386T653
1430Q840 1430 971 1348L1055 1481H1227L1081 1249ZM467 264Q539 201 653 201Q731 201 790 232T888 321T947 462T967 651V754Q967 826 958 889T928 1004L467 264ZM653 1204Q575 1204 516 1173T418 1084T360 943T340 754V651Q340 577 349 514T377 397L840 1139Q769
1204 653 1204Z" />
<glyph unicode="&#xd9;" glyph-name="Ugrave" horiz-adv-x="1212" d="M748 1538H545L324 1802L326 1808H571L748 1538ZM125 1405H387V449Q387 327 444 264T606 201Q711 201 769 264T827 449V1405H1090V440Q1090 326 1057 239T961 94T809 5T606 -25Q493 -25 404
5T253 93T158 239T125 440V1405Z" />
<glyph unicode="&#xda;" glyph-name="Uacute" horiz-adv-x="1212" d="M889 1802L668 1538H465L641 1808H887L889 1802ZM125 1405H387V449Q387 327 444 264T606 201Q711 201 769 264T827 449V1405H1090V440Q1090 326 1057 239T961 94T809 5T606 -25Q493 -25 404
5T253 93T158 239T125 440V1405Z" />
<glyph unicode="&#xdb;" glyph-name="Ucircumflex" horiz-adv-x="1212" d="M883 1532H698L606 1673L514 1532H332L508 1808H709L883 1532ZM125 1405H387V449Q387 327 444 264T606 201Q711 201 769 264T827 449V1405H1090V440Q1090 326 1057 239T961 94T809 5T606
-25Q493 -25 404 5T253 93T158 239T125 440V1405Z" />
<glyph unicode="&#xdc;" glyph-name="Udieresis" horiz-adv-x="1212" d="M530 1585H326V1808H530V1585ZM889 1585H682V1808H889V1585ZM125 1405H387V449Q387 327 444 264T606 201Q711 201 769 264T827 449V1405H1090V440Q1090 326 1057 239T961 94T809 5T606 -25Q493
-25 404 5T253 93T158 239T125 440V1405Z" />
<glyph unicode="&#xdd;" glyph-name="Yacute" horiz-adv-x="1120" d="M692 530V0H430V530L0 1405H276L563 788H571L856 1405H1120L692 530ZM843 1803L622 1538H419L595 1809H841L843 1803Z" />
<glyph unicode="&#xde;" glyph-name="Thorn" horiz-adv-x="1120" d="M385 295V0H123V1405H385V1155H625Q734 1155 816 1124T953 1036T1037 902T1065 733Q1065 634 1034 553T944 415T805 327T625 295H385ZM385 922V526H598Q694 526 744 581T795 733Q795 820 744
871T598 922H385Z" />
<glyph unicode="&#xdf;" glyph-name="germandbls" horiz-adv-x="1026" d="M520 1505Q608 1505 682 1479T811 1404T895 1283T926 1122Q926 1071 912 1023T872 932T810 858T731 809V801Q783 782 827 745T902 660T951 554T969 438Q969 339 937 258T850 120T720 32T559
0H426V209H532Q571 209 605 227T665 277T706 351T721 440Q721 486 706 527T666 598T606 646T532 664H426V895H526Q557 895 585 912T633 960T666 1030T678 1116Q678 1156 668 1189T636 1247T584 1284T510 1298Q428 1298 378 1243T328 1081V0H82V1065Q82 1182 116
1265T209 1402T348 1480T520 1505Z" />
<glyph unicode="&#xe0;" glyph-name="agrave" horiz-adv-x="934" d="M444 1102Q631 1102 721 1019T811 784V254Q811 216 829 199T868 182H918V8Q898 -3 863 -14T772 -25Q698 -25 649 14T582 117H571Q548 85 523 59T466 14T394 -15T299 -25Q261 -25 215 -13T127
33T57 126T29 279Q29 388 68 460T178 575T347 637T563 655V768Q563 796 559 820T542 862T508 890T451 901Q413 901 388 891T349 864T328 828T322 788V758H82Q80 767 80 778V803Q80 870 106 925T179 1020T294 1080T444 1102ZM563 477Q509 477 459 469T369 441T305
387T281 301Q281 245 309 213T401 180Q445 180 475 199T525 250T554 325T563 416V477ZM585 1210H382L161 1475L163 1481H409L585 1210Z" />
<glyph unicode="&#xe1;" glyph-name="aacute" horiz-adv-x="934" d="M444 1102Q631 1102 721 1019T811 784V254Q811 216 829 199T868 182H918V8Q898 -3 863 -14T772 -25Q698 -25 649 14T582 117H571Q548 85 523 59T466 14T394 -15T299 -25Q261 -25 215 -13T127
33T57 126T29 279Q29 388 68 460T178 575T347 637T563 655V768Q563 796 559 820T542 862T508 890T451 901Q413 901 388 891T349 864T328 828T322 788V758H82Q80 767 80 778V803Q80 870 106 925T179 1020T294 1080T444 1102ZM563 477Q509 477 459 469T369 441T305
387T281 301Q281 245 309 213T401 180Q445 180 475 199T525 250T554 325T563 416V477ZM727 1475L506 1210H303L479 1481H725L727 1475Z" />
<glyph unicode="&#xe2;" glyph-name="acircumflex" horiz-adv-x="934" d="M444 1102Q631 1102 721 1019T811 784V254Q811 216 829 199T868 182H918V8Q898 -3 863 -14T772 -25Q698 -25 649 14T582 117H571Q548 85 523 59T466 14T394 -15T299 -25Q261 -25 215 -13T127
33T57 126T29 279Q29 388 68 460T178 575T347 637T563 655V768Q563 796 559 820T542 862T508 890T451 901Q413 901 388 891T349 864T328 828T322 788V758H82Q80 767 80 778V803Q80 870 106 925T179 1020T294 1080T444 1102ZM720 1204H536L445 1346L353 1204H169L345
1481H546L720 1204ZM563 477Q509 477 459 469T369 441T305 387T281 301Q281 245 309 213T401 180Q445 180 475 199T525 250T554 325T563 416V477Z" />
<glyph unicode="&#xe3;" glyph-name="atilde" horiz-adv-x="934" d="M444 1102Q631 1102 721 1019T811 784V254Q811 216 829 199T868 182H918V8Q898 -3 863 -14T772 -25Q698 -25 649 14T582 117H571Q548 85 523 59T466 14T394 -15T299 -25Q261 -25 215 -13T127
33T57 126T29 279Q29 388 68 460T178 575T347 637T563 655V768Q563 796 559 820T542 862T508 890T451 901Q413 901 388 891T349 864T328 828T322 788V758H82Q80 767 80 778V803Q80 870 106 925T179 1020T294 1080T444 1102ZM789 1481Q789 1439 778 1395T742 1314T679
1254T586 1231Q549 1231 516 1243T449 1269T383 1295T316 1307Q283 1307 263 1290T236 1231H100Q100 1273 111 1317T147 1398T209 1457T301 1481Q339 1481 373 1469T440 1443T506 1417T574 1405Q606 1405 626 1421T653 1481H789ZM563 477Q509 477 459 469T369 441T305
387T281 301Q281 245 309 213T401 180Q445 180 475 199T525 250T554 325T563 416V477Z" />
<glyph unicode="&#xe4;" glyph-name="adieresis" horiz-adv-x="934" d="M444 1102Q631 1102 721 1019T811 784V254Q811 216 829 199T868 182H918V8Q898 -3 863 -14T772 -25Q698 -25 649 14T582 117H571Q548 85 523 59T466 14T394 -15T299 -25Q261 -25 215 -13T127
33T57 126T29 279Q29 388 68 460T178 575T347 637T563 655V768Q563 796 559 820T542 862T508 890T451 901Q413 901 388 891T349 864T328 828T322 788V758H82Q80 767 80 778V803Q80 870 106 925T179 1020T294 1080T444 1102ZM563 477Q509 477 459 469T369 441T305
387T281 301Q281 245 309 213T401 180Q445 180 475 199T525 250T554 325T563 416V477ZM368 1257H163V1481H368V1257ZM726 1257H521V1481H726V1257Z" />
<glyph unicode="&#xe5;" glyph-name="aring" horiz-adv-x="934" d="M444 1102Q631 1102 721 1019T811 784V254Q811 216 829 199T868 182H918V8Q898 -3 863 -14T772 -25Q698 -25 649 14T582 117H571Q548 85 523 59T466 14T394 -15T299 -25Q261 -25 215 -13T127
33T57 126T29 279Q29 388 68 460T178 575T347 637T563 655V768Q563 796 559 820T542 862T508 890T451 901Q413 901 388 891T349 864T328 828T322 788V758H82Q80 767 80 778V803Q80 870 106 925T179 1020T294 1080T444 1102ZM445 1542Q486 1542 522 1527T584 1484T626
1422T641 1346Q641 1305 626 1269T584 1207T521 1165T445 1149Q405 1149 369 1164T306 1205T264 1268T248 1346Q248 1386 263 1422T305 1484T368 1526T445 1542ZM563 477Q509 477 459 469T369 441T305 387T281 301Q281 245 309 213T401 180Q445 180 475 199T525
250T554 325T563 416V477ZM445 1440Q404 1440 377 1413T350 1346Q350 1305 377 1278T445 1251Q464 1251 481 1258T511 1278T531 1308T539 1346Q539 1366 532 1383T511 1413T481 1433T445 1440Z" />
<glyph unicode="&#xe6;" glyph-name="ae" horiz-adv-x="1493" d="M1024 1102Q1219 1102 1316 966T1413 539V477H866Q867 405 876 349T904 255T955 196T1032 176Q1095 176 1132 230T1169 381H1413Q1413 277 1385 201T1305 74T1184 0T1032 -25Q924 -25 844 11T711
121Q682 89 649 62T576 16T490 -14T387 -25Q343 -25 289 -13T188 33T108 126T76 279Q76 388 115 460T225 575T394 637T610 655V768Q610 796 606 820T589 862T555 890T498 901Q460 901 435 891T396 864T375 828T369 788V758H129Q127 767 127 778V803Q127 870 153
925T226 1020T341 1080T492 1102Q584 1102 653 1076T768 999Q818 1052 882 1077T1024 1102ZM610 477Q556 477 506 469T416 441T352 387T328 301Q328 245 357 213T449 180Q492 180 523 199T573 250T601 325T610 416V477ZM1024 901Q946 901 911 837T868 655H1155Q1155
773 1124 837T1024 901Z" />
<glyph unicode="&#xe7;" glyph-name="ccedilla" horiz-adv-x="934" d="M533 -68Q566 -70 595 -79T647 -104T682 -146T695 -207Q695 -258 673 -290T617 -341T544 -366T472 -373Q428 -373 383 -369T300 -356V-256H445Q479 -256 499 -246T519 -207Q519 -182 504 -170T449
-158H382L399 -17Q350 -9 310 8Q233 42 183 111T108 287T84 539Q84 829 183 965T483 1102Q569 1102 639 1077T758 1000T833 866T860 672H608Q608 786 577 840T483 895Q405 895 373 814T340 578V500Q340 345 374 264T492 182Q558 182 587 238T616 406H860Q860 293
834 212T760 78T644 0Q595 -18 538 -23L533 -68Z" />
<glyph unicode="&#xe8;" glyph-name="egrave" horiz-adv-x="934" d="M477 1102Q672 1102 769 966T866 539V477H319Q320 405 329 349T358 255T409 196T485 176Q548 176 585 230T623 381H866Q866 277 838 201T758 74T637 0T485 -25Q278 -25 171 112T63 539Q63 829
170 965T477 1102ZM477 901Q399 901 364 837T322 655H608Q608 773 577 837T477 901ZM608 1210H405L184 1475L186 1481H432L608 1210Z" />
<glyph unicode="&#xe9;" glyph-name="eacute" horiz-adv-x="934" d="M477 1102Q672 1102 769 966T866 539V477H319Q320 405 329 349T358 255T409 196T485 176Q548 176 585 230T623 381H866Q866 277 838 201T758 74T637 0T485 -25Q278 -25 171 112T63 539Q63 829
170 965T477 1102ZM477 901Q399 901 364 837T322 655H608Q608 773 577 837T477 901ZM750 1475L529 1210H326L502 1481H748L750 1475Z" />
<glyph unicode="&#xea;" glyph-name="ecircumflex" horiz-adv-x="934" d="M477 1102Q672 1102 769 966T866 539V477H319Q320 405 329 349T358 255T409 196T485 176Q548 176 585 230T623 381H866Q866 277 838 201T758 74T637 0T485 -25Q278 -25 171 112T63 539Q63
829 170 965T477 1102ZM477 901Q399 901 364 837T322 655H608Q608 773 577 837T477 901ZM743 1204H559L468 1346L376 1204H192L368 1481H569L743 1204Z" />
<glyph unicode="&#xeb;" glyph-name="edieresis" horiz-adv-x="934" d="M477 1102Q672 1102 769 966T866 539V477H319Q320 405 329 349T358 255T409 196T485 176Q548 176 585 230T623 381H866Q866 277 838 201T758 74T637 0T485 -25Q278 -25 171 112T63 539Q63
829 170 965T477 1102ZM477 901Q399 901 364 837T322 655H608Q608 773 577 837T477 901ZM391 1257H186V1481H391V1257ZM749 1257H544V1481H749V1257Z" />
<glyph unicode="&#xec;" glyph-name="igrave" horiz-adv-x="467" d="M356 0H111V1077H356V0ZM375 1210H172L-49 1475L-47 1481H199L375 1210Z" />
<glyph unicode="&#xed;" glyph-name="iacute" horiz-adv-x="467" d="M356 0H111V1077H356V0ZM517 1475L296 1210H93L269 1481H515L517 1475Z" />
<glyph unicode="&#xee;" glyph-name="icircumflex" horiz-adv-x="467" d="M356 0H111V1077H356V0ZM510 1204H326L235 1346L143 1204H-42L135 1481H336L510 1204Z" />
<glyph unicode="&#xef;" glyph-name="idieresis" horiz-adv-x="467" d="M356 0H111V1077H356V0ZM158 1257H-48V1481H158V1257ZM516 1257H311V1481H516V1257Z" />
<glyph unicode="&#xf0;" glyph-name="eth" horiz-adv-x="1026" d="M528 1481Q550 1462 576 1438T631 1382L897 1407V1257L743 1243Q783 1184 819 1113T883 954T927 764T944 539Q944 249 837 112T514 -25Q299 -25 192 112T84 539Q84 678 110 783T184 959T302 1066T457
1102Q480 1102 507 1098T557 1085L563 1094Q548 1123 528 1155T485 1219L221 1196V1346L375 1360Q344 1395 315 1424L266 1473L270 1481H528ZM514 895Q419 895 380 814T340 578V500Q340 345 379 264T514 182Q609 182 648 263T688 500V578Q688 732 649 813T514 895Z"
/>
<glyph unicode="&#xf1;" glyph-name="ntilde" horiz-adv-x="1026" d="M627 1102Q689 1102 741 1084T832 1024T891 917T913 756V0H668V688Q668 792 630 835T526 879Q490 879 459 863T406 817T371 748T358 664V0H113V1077H317L342 944H354Q375 975 402 1004T463
1054T538 1089T627 1102ZM858 1481Q858 1439 847 1395T811 1314T748 1254T655 1231Q618 1231 585 1243T518 1269T452 1295T385 1307Q352 1307 332 1290T305 1231H169Q169 1273 180 1317T216 1398T278 1457T370 1481Q408 1481 442 1469T509 1443T575 1417T643 1405Q675
1405 695 1421T722 1481H858Z" />
<glyph unicode="&#xf2;" glyph-name="ograve" horiz-adv-x="1026" d="M514 1102Q729 1102 836 966T944 539Q944 249 837 112T514 -25Q299 -25 192 112T84 539Q84 829 191 965T514 1102ZM514 895Q419 895 380 814T340 578V500Q340 345 379 264T514 182Q609 182
648 263T688 500V578Q688 732 649 813T514 895ZM654 1210H451L230 1475L232 1481H478L654 1210Z" />
<glyph unicode="&#xf3;" glyph-name="oacute" horiz-adv-x="1026" d="M514 1102Q729 1102 836 966T944 539Q944 249 837 112T514 -25Q299 -25 192 112T84 539Q84 829 191 965T514 1102ZM514 895Q419 895 380 814T340 578V500Q340 345 379 264T514 182Q609 182
648 263T688 500V578Q688 732 649 813T514 895ZM796 1475L575 1210H372L548 1481H794L796 1475Z" />
<glyph unicode="&#xf4;" glyph-name="ocircumflex" horiz-adv-x="1026" d="M514 1102Q729 1102 836 966T944 539Q944 249 837 112T514 -25Q299 -25 192 112T84 539Q84 829 191 965T514 1102ZM514 895Q419 895 380 814T340 578V500Q340 345 379 264T514 182Q609
182 648 263T688 500V578Q688 732 649 813T514 895ZM789 1204H605L514 1346L422 1204H238L414 1481H615L789 1204Z" />
<glyph unicode="&#xf5;" glyph-name="otilde" horiz-adv-x="1026" d="M514 1102Q729 1102 836 966T944 539Q944 249 837 112T514 -25Q299 -25 192 112T84 539Q84 829 191 965T514 1102ZM514 895Q419 895 380 814T340 578V500Q340 345 379 264T514 182Q609 182
648 263T688 500V578Q688 732 649 813T514 895ZM858 1481Q858 1439 847 1395T811 1314T748 1254T655 1231Q618 1231 585 1243T518 1269T452 1295T385 1307Q352 1307 332 1290T305 1231H169Q169 1273 180 1317T216 1398T278 1457T370 1481Q408 1481 442 1469T509
1443T575 1417T643 1405Q675 1405 695 1421T722 1481H858Z" />
<glyph unicode="&#xf6;" glyph-name="odieresis" horiz-adv-x="1026" d="M514 1102Q729 1102 836 966T944 539Q944 249 837 112T514 -25Q299 -25 192 112T84 539Q84 829 191 965T514 1102ZM514 895Q419 895 380 814T340 578V500Q340 345 379 264T514 182Q609 182
648 263T688 500V578Q688 732 649 813T514 895ZM437 1257H232V1481H437V1257ZM795 1257H590V1481H795V1257Z" />
<glyph unicode="&#xf7;" glyph-name="divide" horiz-adv-x="1124" d="M1055 416H68V629H1055V416ZM668 84H455V309H668V84ZM668 735H455V963H668V735Z" />
<glyph unicode="&#xf8;" glyph-name="oslash" horiz-adv-x="1026" d="M827 977Q944 839 944 539Q944 249 837 112T514 -25Q452 -25 401 -14T305 18L260 -66H106L199 102Q142 172 113 279T84 539Q84 829 191 965T514 1102Q574 1102 625 1091T719 1059L764 1143H918L827
977ZM414 217Q455 182 514 182Q609 182 648 263T688 500V578Q688 613 686 645T680 707L414 217ZM514 895Q419 895 380 814T340 578V500Q340 430 346 375L610 862Q572 895 514 895Z" />
<glyph unicode="&#xf9;" glyph-name="ugrave" horiz-adv-x="1026" d="M913 0H709L684 133H672Q651 101 624 73T563 23T488 -12T399 -25Q337 -25 285 -7T194 53T135 160T113 322V1077H358V389Q358 285 394 242T500 199Q536 199 566 215T619 259T655 326T668 410V1077H913V0ZM654
1210H451L230 1475L232 1481H478L654 1210Z" />
<glyph unicode="&#xfa;" glyph-name="uacute" horiz-adv-x="1026" d="M913 0H709L684 133H672Q651 101 624 73T563 23T488 -12T399 -25Q337 -25 285 -7T194 53T135 160T113 322V1077H358V389Q358 285 394 242T500 199Q536 199 566 215T619 259T655 326T668 410V1077H913V0ZM796
1475L575 1210H372L548 1481H794L796 1475Z" />
<glyph unicode="&#xfb;" glyph-name="ucircumflex" horiz-adv-x="1026" d="M913 0H709L684 133H672Q651 101 624 73T563 23T488 -12T399 -25Q337 -25 285 -7T194 53T135 160T113 322V1077H358V389Q358 285 394 242T500 199Q536 199 566 215T619 259T655 326T668
410V1077H913V0ZM789 1204H605L514 1346L422 1204H238L414 1481H615L789 1204Z" />
<glyph unicode="&#xfc;" glyph-name="udieresis" horiz-adv-x="1026" d="M913 0H709L684 133H672Q651 101 624 73T563 23T488 -12T399 -25Q337 -25 285 -7T194 53T135 160T113 322V1077H358V389Q358 285 394 242T500 199Q536 199 566 215T619 259T655 326T668
410V1077H913V0ZM437 1257H232V1481H437V1257ZM795 1257H590V1481H795V1257Z" />
<glyph unicode="&#xfd;" glyph-name="yacute" horiz-adv-x="934" d="M631 55Q605 -32 572 -110T493 -246T388 -339T250 -373Q176 -373 133 -365T90 -354V-166H201Q253 -166 299 -128T367 0L8 1077H268L430 571Q440 540 450 493T469 400Q479 347 487 291H496Q503
344 512 395Q520 439 528 486T547 569L680 1077H926L631 55ZM750 1475L529 1210H326L502 1481H748L750 1475Z" />
<glyph unicode="&#xfe;" glyph-name="thorn" horiz-adv-x="1026" d="M113 1481H358V954Q399 1029 460 1065T596 1102Q676 1102 740 1069T849 966T918 791T942 537Q942 390 917 284T847 109T741 8T608 -25Q527 -25 463 10T369 111H358V-354H113V1481ZM358 504Q358
358 395 279T522 199Q611 199 648 276T686 500V578Q686 723 649 801T522 879Q433 879 396 801T358 578V504Z" />
<glyph unicode="&#xff;" glyph-name="ydieresis" horiz-adv-x="934" d="M631 55Q605 -32 572 -110T493 -246T388 -339T250 -373Q176 -373 133 -365T90 -354V-166H201Q253 -166 299 -128T367 0L8 1077H268L430 571Q440 540 450 493T469 400Q479 347 487 291H496Q503
344 512 395Q520 439 528 486T547 569L680 1077H926L631 55ZM391 1257H186V1481H391V1257ZM749 1257H544V1481H749V1257Z" />
<glyph unicode="&#x2013;" glyph-name="endash" horiz-adv-x="934" d="M934 453H0V653H934V453Z" />
<glyph unicode="&#x2014;" glyph-name="emdash" horiz-adv-x="1679" d="M1679 453H0V653H1679V453Z" />
<glyph unicode="&#x2018;" glyph-name="quoteleft" horiz-adv-x="467" d="M262 1085H375V805H92V1061L227 1405H375L262 1085Z" />
<glyph unicode="&#x2019;" glyph-name="quoteright" horiz-adv-x="467" d="M375 1149L240 805H92L205 1124H92V1405H375V1149Z" />
<glyph unicode="&#x201a;" glyph-name="quotesinglbase" horiz-adv-x="467" d="M375 25L240 -319H92L205 0H92V281H375V25Z" />
<glyph unicode="&#x201c;" glyph-name="quotedblleft" horiz-adv-x="840" d="M635 1085H748V805H465V1061L600 1405H748L635 1085ZM260 1085H373V805H90V1061L225 1405H373L260 1085Z" />
<glyph unicode="&#x201d;" glyph-name="quotedblright" horiz-adv-x="840" d="M750 1149L614 805H467L580 1124H467V1405H750V1149ZM375 1149L240 805H92L205 1124H92V1405H375V1149Z" />
<glyph unicode="&#x201e;" glyph-name="quotedblbase" horiz-adv-x="840" d="M750 25L614 -319H467L580 0H467V281H750V25ZM375 25L240 -319H92L205 0H92V281H375V25Z" />
<glyph unicode="&#x2022;" glyph-name="bullet" horiz-adv-x="588" d="M293 956Q344 956 389 936T468 882T521 802T541 705Q541 653 522 607T469 527T390 472T293 451Q242 451 197 471T119 526T66 607T47 705Q47 756 66 802T118 882T197 936T293 956Z" />
<glyph unicode="&#x2039;" glyph-name="guilsinglleft" horiz-adv-x="559" d="M283 668L504 258H317L39 668L317 1077H504L283 668Z" />
<glyph unicode="&#x203a;" glyph-name="guilsinglright" horiz-adv-x="559" d="M520 668L242 258H55L276 668L55 1077H242L520 668Z" />
</font>
</defs>
</svg>
