<?xml version="1.0" encoding="utf-8"?>
<!-- Generator: Adobe Illustrator 16.0.0, SVG Export Plug-In . SVG Version: 6.00 Build 0)  -->
<!DOCTYPE svg PUBLIC "-//W3C//DTD SVG 1.1//EN" "http://www.w3.org/Graphics/SVG/1.1/DTD/svg11.dtd">
<svg version="1.1" id="Layer_1" xmlns="http://www.w3.org/2000/svg" xmlns:xlink="http://www.w3.org/1999/xlink" x="0px" y="0px"
	 width="16px" height="320px" viewBox="0 0 16 320" enable-background="new 0 0 16 320" xml:space="preserve">
<g>
	<g>
		<path fill="#FFFFFF" d="M4.417,3.205l7.153,4.748l-7.153,4.748V3.205 M3,0.563v14.78l11.133-7.39L3,0.563L3,0.563z"/>
	</g>
</g>
<g>
	<path fill="#FFFFFF" d="M8,18.115c3.216,0,5.833,2.617,5.833,5.833c0,3.216-2.617,5.832-5.833,5.832s-5.832-2.616-5.832-5.832
		C2.168,20.732,4.784,18.115,8,18.115 M8,16.698c-4.004,0-7.25,3.246-7.25,7.25c0,4.004,3.245,7.25,7.25,7.25
		c4.004,0,7.25-3.246,7.25-7.25C15.25,19.943,12.004,16.698,8,16.698L8,16.698z"/>
</g>
<g>
	<path fill="#FFFFFF" d="M8.261,146.031c3.216,0,5.833,2.617,5.833,5.833s-2.617,5.833-5.833,5.833s-5.832-2.617-5.832-5.833
		S5.045,146.031,8.261,146.031 M8.261,144.614c-4.004,0-7.25,3.246-7.25,7.25s3.245,7.25,7.25,7.25c4.004,0,7.25-3.246,7.25-7.25
		S12.265,144.614,8.261,144.614L8.261,144.614z"/>
</g>
<g>
	<path fill="#FFFFFF" d="M8.261,150.426c0.793,0,1.438,0.646,1.438,1.438s-0.646,1.438-1.438,1.438s-1.438-0.646-1.438-1.438
		S7.468,150.426,8.261,150.426 M8.261,149.009c-1.577,0-2.855,1.278-2.855,2.855s1.278,2.855,2.855,2.855s2.855-1.278,2.855-2.855
		S9.838,149.009,8.261,149.009L8.261,149.009z"/>
</g>
<path fill="none" stroke="#FFFFFF" stroke-width="0.7087" stroke-miterlimit="10" d="M4.975,149.007
	c0.798-0.918,1.974-1.498,3.286-1.498"/>
<path fill="none" stroke="#FFFFFF" stroke-width="0.7087" stroke-miterlimit="10" d="M11.547,154.722
	c-0.797,0.918-1.974,1.498-3.286,1.498"/>
<path fill="#FFFFFF" d="M6.49,22.438l-2.07,5.09l5.091-2.07l2.069-5.091L6.49,22.438z M8,24.785c-0.462,0-0.837-0.375-0.837-0.836
	c0-0.463,0.375-0.838,0.837-0.838s0.837,0.375,0.837,0.838C8.837,24.41,8.462,24.785,8,24.785z"/>
<circle fill="none" stroke="#FFFFFF" stroke-width="1.4173" stroke-miterlimit="10" cx="8.261" cy="44.205" r="2.41"/>
<polyline fill="none" stroke="#FFFFFF" stroke-width="1.4173" stroke-linejoin="round" stroke-miterlimit="10" points="
	10.671,44.205 10.671,34.029 14.688,38.046 "/>
<circle fill="none" stroke="#FFFFFF" stroke-width="1.4173" stroke-miterlimit="10" cx="12.146" cy="58.531" r="2.41"/>
<circle fill="none" stroke="#FFFFFF" stroke-width="1.4173" stroke-miterlimit="10" cx="3.627" cy="60.531" r="2.41"/>
<polyline fill="none" stroke="#FFFFFF" stroke-width="1.4173" stroke-linejoin="round" stroke-miterlimit="10" points="
	6.037,60.531 6.037,51.355 14.557,49.355 14.557,58.531 "/>
<line fill="none" stroke="#FFFFFF" stroke-width="1.4173" stroke-linejoin="round" stroke-miterlimit="10" x1="1.75" y1="34.297" x2="7.886" y2="34.297"/>
<line fill="none" stroke="#FFFFFF" stroke-width="1.4173" stroke-linejoin="round" stroke-miterlimit="10" x1="1.75" y1="36.707" x2="7.886" y2="36.707"/>
<line fill="none" stroke="#FFFFFF" stroke-width="1.4173" stroke-linejoin="round" stroke-miterlimit="10" x1="1.75" y1="39.117" x2="7.886" y2="39.117"/>
<rect x="1.97" y="162.053" fill="none" stroke="#FFFFFF" stroke-width="1.4173" stroke-miterlimit="10" width="4.969" height="4.97"/>
<rect x="9.061" y="169.145" fill="none" stroke="#FFFFFF" stroke-width="1.4173" stroke-miterlimit="10" width="4.97" height="4.968"/>
<rect x="1.97" y="169.145" fill="none" stroke="#FFFFFF" stroke-width="1.4173" stroke-miterlimit="10" width="4.968" height="4.968"/>
<rect x="9.061" y="162.052" fill="none" stroke="#FFFFFF" stroke-width="1.4173" stroke-miterlimit="10" width="4.969" height="4.971"/>
<g>
	<path fill="#FFFFFF" d="M8.262,71.147c0.533,0,0.967,0.434,0.967,0.967s-0.434,0.967-0.967,0.967s-0.967-0.434-0.967-0.967
		S7.729,71.147,8.262,71.147 M8.262,70.013c-1.16,0-2.101,0.941-2.101,2.102s0.94,2.102,2.101,2.102c1.16,0,2.101-0.941,2.101-2.102
		S9.422,70.013,8.262,70.013L8.262,70.013z"/>
</g>
<g>
	<path fill="#FFFFFF" d="M8.262,68.433c2.03,0,3.682,1.652,3.682,3.682s-1.651,3.682-3.682,3.682c-2.029,0-3.68-1.652-3.68-3.682
		S6.232,68.433,8.262,68.433 M8.262,67.016c-2.815,0-5.097,2.283-5.097,5.099s2.282,5.099,5.097,5.099
		c2.816,0,5.099-2.283,5.099-5.099S11.078,67.016,8.262,67.016L8.262,67.016z"/>
</g>
<g>
	<g>
		<polygon fill="#FFFFFF" points="9.642,76.987 6.872,76.987 6.872,79.114 9.642,79.114 9.642,76.987 		"/>
	</g>
	<g>
		<polygon fill="#FFFFFF" points="9.642,65.157 6.872,65.157 6.872,67.284 9.642,67.284 9.642,65.157 		"/>
	</g>
	<g>
		<polygon fill="#FFFFFF" points="3.404,70.75 1.277,70.75 1.278,73.521 3.405,73.521 3.404,70.75 		"/>
	</g>
	<g>
		<polygon fill="#FFFFFF" points="15.422,70.75 13.106,70.75 13.107,73.521 15.423,73.521 15.422,70.75 		"/>
	</g>
	<g>
		<polygon fill="#FFFFFF" points="3.847,74.588 2.342,76.092 4.302,78.051 5.806,76.547 3.847,74.588 		"/>
	</g>
	<g>
		<polygon fill="#FFFFFF" points="12.211,66.223 10.707,67.727 12.666,69.686 14.171,68.182 12.211,66.223 		"/>
	</g>
	<g>
		<polygon fill="#FFFFFF" points="4.301,66.222 2.342,68.181 3.847,69.685 5.805,67.726 4.301,66.222 		"/>
	</g>
	<g>
		<polygon fill="#FFFFFF" points="12.666,74.587 10.707,76.546 12.211,78.05 14.17,76.091 12.666,74.587 		"/>
	</g>
</g>
<g>
	<path fill="none" stroke="#FFFFFF" stroke-width="1.4173" stroke-miterlimit="10" d="M14.257,93.114c0,0.275-0.225,0.5-0.5,0.5
		H2.928c-0.275,0-0.5-0.225-0.5-0.5v-7.75c0-0.275,0.225-0.5,0.5-0.5h10.829c0.275,0,0.5,0.225,0.5,0.5V93.114z"/>
</g>
<rect x="3.023" y="82.239" fill="none" stroke="#FFFFFF" stroke-width="1.4173" stroke-miterlimit="10" width="4.854" height="2.625"/>
<g>
	<path fill="#FFFFFF" d="M8.05,115.303l1.198,2.422l0.33,0.668l0.736,0.106l2.673,0.389l-1.936,1.888l-0.534,0.521l0.127,0.734
		l0.457,2.662l-2.392-1.257l-0.659-0.347l-0.659,0.347l-2.393,1.258l0.458-2.663l0.126-0.736l-0.536-0.521l-1.939-1.885l2.678-0.39
		l0.736-0.106l0.33-0.668L8.05,115.303 M8.051,112.629c-0.18,0-0.328,0.122-0.441,0.369l-2.027,4.099l-4.521,0.657
		c-0.336,0.055-0.504,0.192-0.504,0.414c0,0.127,0.074,0.271,0.224,0.434l3.279,3.188l-0.774,4.503
		c-0.012,0.084-0.018,0.144-0.018,0.182c0,0.125,0.032,0.231,0.095,0.318c0.063,0.088,0.158,0.131,0.284,0.131
		c0.107,0,0.228-0.037,0.36-0.108l4.044-2.125l4.044,2.125c0.126,0.071,0.246,0.108,0.359,0.108c0.12,0,0.213-0.043,0.275-0.131
		c0.063-0.087,0.096-0.193,0.096-0.318c0-0.079-0.005-0.141-0.011-0.182l-0.773-4.503l3.27-3.188c0.155-0.158,0.233-0.3,0.233-0.434
		c0-0.222-0.167-0.359-0.503-0.414l-4.522-0.657l-2.026-4.099C8.377,112.751,8.231,112.629,8.051,112.629L8.051,112.629z"/>
</g>
<polyline fill="none" stroke="#FFFFFF" stroke-width="1.4173" stroke-linecap="round" stroke-miterlimit="10" points="
	11.319,136.606 4.934,141.539 2.958,139.562 8.125,133.411 "/>
<path fill="none" stroke="#FFFFFF" stroke-width="0.8504" stroke-linecap="round" stroke-miterlimit="10" d="M3.966,140.569
	c-1.803,0.97-0.776,2.625-2.843,2.625"/>
<circle fill="none" stroke="#FFFFFF" stroke-width="1.4173" stroke-miterlimit="10" cx="11.041" cy="133.496" r="2.9"/>
<line fill="none" stroke="#FFFFFF" stroke-width="1.4173" stroke-miterlimit="10" x1="8.99" y1="131.445" x2="13.091" y2="135.546"/>
<path fill="#FFFFFF" d="M1.383,100.083c0,0,4.206-3.785,8.233-1.403c4.027,2.381,5.229,5.486,3.476,7.74
	c-2.023-3.173-3.096-4.701-7.328-6.003c0,0,6.63,4.153,7.779,9.057c-0.175,1.047-1.153,0.289-1.153,0.289l-1.067-1.769
	c0,0-2.049,1.583-4.471-0.508C2.747,103.939,6.048,99.974,1.383,100.083z"/>
<circle fill="none" stroke="#FFFFFF" stroke-width="1.4173" stroke-miterlimit="10" cx="6.752" cy="183.277" r="5.061"/>
<line fill="none" stroke="#FFFFFF" stroke-width="1.4173" stroke-miterlimit="10" x1="10.208" y1="186.3" x2="14.605" y2="190.697"/>
<polyline fill="none" stroke="#000000" stroke-width="1.8546" stroke-linecap="round" stroke-linejoin="round" stroke-miterlimit="10" points="
	5.13,193.639 11.491,200 5.13,206.361 "/>
<polyline fill="none" stroke="#000000" stroke-width="1.8546" stroke-linecap="round" stroke-linejoin="round" stroke-miterlimit="10" points="
	11.491,222.476 5.13,216.114 11.491,209.753 "/>
<rect x="2.179" y="227.521" stroke="#000000" stroke-width="1.3704" stroke-miterlimit="10" width="2.309" height="2.309"/>
<line fill="none" stroke="#000000" stroke-width="0.8504" stroke-miterlimit="10" x1="7.323" y1="227.328" x2="14" y2="227.328"/>
<line fill="none" stroke="#000000" stroke-width="0.8504" stroke-miterlimit="10" x1="7.323" y1="228.984" x2="14" y2="228.984"/>
<line fill="none" stroke="#000000" stroke-width="0.8504" stroke-miterlimit="10" x1="7.323" y1="230.641" x2="14" y2="230.641"/>
<line fill="none" stroke="#000000" stroke-width="0.8504" stroke-miterlimit="10" x1="7.323" y1="233.688" x2="14" y2="233.688"/>
<line fill="none" stroke="#000000" stroke-width="0.8504" stroke-miterlimit="10" x1="7.323" y1="235.344" x2="14" y2="235.344"/>
<line fill="none" stroke="#000000" stroke-width="0.8504" stroke-miterlimit="10" x1="7.323" y1="237" x2="14" y2="237"/>
<rect x="2.179" y="233.941" stroke="#000000" stroke-width="1.3704" stroke-miterlimit="10" width="2.309" height="2.309"/>
<rect x="2.844" y="243.063" stroke="#000000" stroke-width="1.3704" stroke-miterlimit="10" width="3.842" height="3.842"/>
<rect x="2.844" y="249.677" stroke="#000000" stroke-width="1.3704" stroke-miterlimit="10" width="3.842" height="3.841"/>
<rect x="9.55" y="243.063" stroke="#000000" stroke-width="1.3704" stroke-miterlimit="10" width="3.843" height="3.842"/>
<rect x="9.55" y="249.677" stroke="#000000" stroke-width="1.3704" stroke-miterlimit="10" width="3.843" height="3.841"/>
<line fill="none" stroke="#000000" stroke-width="1.8546" stroke-miterlimit="10" x1="1.844" y1="259.719" x2="14.438" y2="259.719"/>
<line fill="none" stroke="#000000" stroke-width="1.8546" stroke-miterlimit="10" x1="1.844" y1="264.297" x2="14.438" y2="264.297"/>
<line fill="none" stroke="#000000" stroke-width="1.8546" stroke-miterlimit="10" x1="1.844" y1="268.875" x2="14.438" y2="268.875"/>
</svg>
