<?xml version="1.0" encoding="utf-8"?>
<!-- Generator: Adobe Illustrator 16.0.0, SVG Export Plug-In . SVG Version: 6.00 Build 0)  -->
<!DOCTYPE svg PUBLIC "-//W3C//DTD SVG 1.1//EN" "http://www.w3.org/Graphics/SVG/1.1/DTD/svg11.dtd">
<svg version="1.1" id="Layer_1" xmlns="http://www.w3.org/2000/svg" xmlns:xlink="http://www.w3.org/1999/xlink" x="0px" y="0px"
	 width="400px" height="250px" viewBox="0 0 400 250" enable-background="new 0 0 400 250" xml:space="preserve">
<rect width="428" height="268.5"/>
<line fill="none" stroke="#000000" stroke-width="2.8347" stroke-miterlimit="10" x1="355.957" y1="6.667" x2="393.957" y2="44.667"/>
<line fill="none" stroke="#000000" stroke-width="2.8347" stroke-miterlimit="10" x1="355.957" y1="44.667" x2="393.957" y2="6.667"/>
<g>
	<path fill="#FFFFFF" d="M14.656,11.221l23.696,14.448L14.656,40.116V11.221 M10.688,4.153v43.031l35.287-21.516L10.688,4.153
		L10.688,4.153z"/>
</g>
<path fill="#FFFFFF" d="M93.334,34.652v-0.001V12.855V6.138V5.223l-27.339,5.575h-0.03v0.006v7.632V34.64
	c-1.298-0.281-2.769-0.256-4.256,0.143c-3.918,1.049-6.456,4.282-5.668,7.22c0.788,2.938,4.602,4.47,8.52,3.42
	c3.421-0.917,5.788-3.498,5.81-6.093h0.001v-0.016c0-0.001,0-0.001,0-0.001V17.538l18.557-3.784v16.225
	c-1.297-0.282-2.769-0.257-4.256,0.142c-3.917,1.05-6.455,4.283-5.667,7.221c0.787,2.938,4.602,4.469,8.519,3.42
	c3.42-0.917,5.788-3.498,5.811-6.093h0.001V34.652z"/>
<path fill="none" stroke="#FFFFFF" stroke-width="3.9685" stroke-miterlimit="10" d="M107.634,11.184
	c0,21.193,9.795,35.067,17.533,35.067c8.156,0,17.534-14.446,17.534-35.067c0,0-5.833-6.099-17.534-6.099
	C113.542,5.085,107.634,11.184,107.634,11.184z"/>
<path fill="none" stroke="#FFFFFF" stroke-width="3.9685" stroke-miterlimit="10" d="M116.833,33.46c0,0,4.043-3.25,8.334-3.25
	s8.041,3.25,8.041,3.25"/>
<path fill="#FFFFFF" d="M122.083,15.71c0,0-1.125,10.75-9.125,4.75L122.083,15.71z"/>
<path fill="#FFFFFF" d="M128.458,15.71c0,0,1.125,10.75,9.125,4.75L128.458,15.71z"/>
<g>
	<path fill="#FFFFFF" d="M177.755,7.5l0.93,5.31c0.971,0.279,1.902,0.667,2.783,1.157l4.376-3.145l3.952,3.95l-3.109,4.432
		c0.482,0.874,0.867,1.8,1.146,2.763l5.336,0.871v5.588l-5.335,0.935c-0.274,0.963-0.656,1.891-1.141,2.765l3.159,4.386
		l-3.952,3.954l-4.422-3.103c-0.877,0.491-1.81,0.881-2.781,1.166l-0.942,5.31h-5.585l-0.881-5.295
		c-0.974-0.278-1.909-0.665-2.795-1.154l-4.395,3.077l-3.948-3.953l3.111-4.351c-0.496-0.888-0.887-1.828-1.166-2.804l-5.264-0.933
		v-5.585l5.271-0.878c0.282-0.977,0.673-1.917,1.167-2.806l-3.069-4.388l3.949-3.95l4.364,3.118c0.88-0.484,1.813-0.869,2.789-1.146
		l0.862-5.292H177.755 M175,30.755c2.805,0,5.087-2.282,5.087-5.087c0-2.805-2.282-5.087-5.087-5.087s-5.087,2.282-5.087,5.087
		C169.914,28.473,172.196,30.755,175,30.755 M181.089,3.531h-3.334h-5.589h-3.374l-0.543,3.33l-0.293,1.799l-1.499-1.071
		l-2.735-1.955l-2.378,2.377l-3.949,3.95l-2.353,2.354l1.907,2.728l1.099,1.571l-1.868,0.311l-3.316,0.552v3.362v5.585v3.327
		l3.276,0.581l1.883,0.333l-1.101,1.539l-1.955,2.734l2.376,2.378l3.948,3.953l2.354,2.357l2.729-1.911l1.568-1.098l0.311,1.871
		l0.552,3.317h3.363h5.585h3.326l0.581-3.275l0.346-1.949l1.613,1.132l2.729,1.915l2.357-2.358l3.952-3.954l2.386-2.387
		l-1.973-2.738l-1.101-1.528l1.883-0.33l3.283-0.575v-3.333v-5.588v-3.373l-3.329-0.543l-1.861-0.304l1.099-1.566l1.914-2.729
		l-2.357-2.356l-3.952-3.95l-2.385-2.383l-2.737,1.967l-1.533,1.103l-0.33-1.886L181.089,3.531L181.089,3.531z M175,26.787
		c-0.617,0-1.118-0.502-1.118-1.119s0.501-1.119,1.118-1.119s1.118,0.502,1.118,1.119S175.618,26.787,175,26.787L175,26.787z"/>
</g>
</svg>
