<?xml version="1.0" encoding="utf-8"?>
<!-- Generator: Adobe Illustrator 16.0.0, SVG Export Plug-In . SVG Version: 6.00 Build 0)  -->
<!DOCTYPE svg PUBLIC "-//W3C//DTD SVG 1.1//EN" "http://www.w3.org/Graphics/SVG/1.1/DTD/svg11.dtd">
<svg version="1.1" id="Layer_1" xmlns="http://www.w3.org/2000/svg" xmlns:xlink="http://www.w3.org/1999/xlink" x="0px" y="0px"
	 width="16px" height="192px" viewBox="0 0 16 192" enable-background="new 0 0 16 192" xml:space="preserve">
<polygon points="499.998,-93.001 449.332,-66.333 476.002,-116.999 526.668,-143.667 "/>
<g>
	<g>
		<path fill="#FFFFFF" d="M4.417,3.34l7.153,4.748l-7.153,4.748V3.34 M3,0.698v14.78l11.133-7.39L3,0.698L3,0.698z"/>
	</g>
</g>
<circle fill="none" stroke="#000000" stroke-width="14.1732" stroke-miterlimit="10" cx="488" cy="-105" r="69"/>
<circle fill="#FFFFFF" cx="488" cy="-105" r="7.973"/>
<g>
	<path fill="#FFFFFF" d="M8,18.251c3.216,0,5.833,2.617,5.833,5.833c0,3.216-2.617,5.832-5.833,5.832S2.168,27.3,2.168,24.084
		C2.168,20.868,4.784,18.251,8,18.251 M8,16.833c-4.004,0-7.25,3.246-7.25,7.25c0,4.004,3.245,7.25,7.25,7.25
		c4.004,0,7.25-3.246,7.25-7.25C15.25,20.079,12.004,16.833,8,16.833L8,16.833z"/>
</g>
<path fill="#FFFFFF" d="M6.49,22.573l-2.07,5.09l5.091-2.07l2.069-5.091L6.49,22.573z M8,24.92c-0.462,0-0.837-0.375-0.837-0.836
	c0-0.463,0.375-0.838,0.837-0.838s0.837,0.375,0.837,0.838C8.837,24.546,8.462,24.92,8,24.92z"/>
<circle fill="none" stroke="#FFFFFF" stroke-width="1.4173" stroke-miterlimit="10" cx="8.261" cy="44.34" r="2.41"/>
<polyline fill="none" stroke="#FFFFFF" stroke-width="1.4173" stroke-linejoin="round" stroke-miterlimit="10" points="
	10.671,44.34 10.671,34.165 14.688,38.182 "/>
<line fill="none" stroke="#FFFFFF" stroke-width="1.4173" stroke-linejoin="round" stroke-miterlimit="10" x1="1.75" y1="34.433" x2="7.886" y2="34.433"/>
<line fill="none" stroke="#FFFFFF" stroke-width="1.4173" stroke-linejoin="round" stroke-miterlimit="10" x1="1.75" y1="36.843" x2="7.886" y2="36.843"/>
<line fill="none" stroke="#FFFFFF" stroke-width="1.4173" stroke-linejoin="round" stroke-miterlimit="10" x1="1.75" y1="39.253" x2="7.886" y2="39.253"/>
</svg>
