<?xml version="1.0" encoding="utf-8"?>
<!-- Generator: Adobe Illustrator 16.0.0, SVG Export Plug-In . SVG Version: 6.00 Build 0)  -->
<!DOCTYPE svg PUBLIC "-//W3C//DTD SVG 1.1//EN" "http://www.w3.org/Graphics/SVG/1.1/DTD/svg11.dtd">
<svg version="1.1" id="Layer_1" xmlns="http://www.w3.org/2000/svg" xmlns:xlink="http://www.w3.org/1999/xlink" x="0px" y="0px"
	 width="32px" height="32px" viewBox="0 0 32 32" enable-background="new 0 0 32 32" xml:space="preserve">
<path fill="#DF4526" d="M1.073,22.375c0,0.371,0.135,0.651,0.404,0.842c0.271,0.191,0.558,0.258,0.864,0.203
	c0.288-0.056,0.49-0.158,0.606-0.308c0.116-0.149,0.173-0.395,0.173-0.737v-4.041c0-0.288-0.099-0.531-0.299-0.731
	s-0.443-0.3-0.731-0.3c-0.278,0-0.519,0.1-0.718,0.3c-0.2,0.2-0.3,0.443-0.3,0.731V22.375L1.073,22.375z M4.278,24.102
	c0,0.27,0.095,0.471,0.286,0.605s0.434,0.202,0.731,0.202c0.307,0,0.555-0.067,0.746-0.202s0.286-0.336,0.286-0.605v-9.417
	c0-0.279-0.1-0.518-0.3-0.718s-0.443-0.3-0.731-0.3c-0.278,0-0.518,0.1-0.718,0.3c-0.2,0.2-0.299,0.439-0.299,0.718V24.102z
	 M7.468,24.548c0,0.27,0.098,0.472,0.292,0.606c0.195,0.135,0.446,0.202,0.753,0.202c0.297,0,0.541-0.067,0.731-0.202
	c0.19-0.135,0.286-0.337,0.286-0.606v-8.596c0-0.288-0.1-0.534-0.3-0.738c-0.2-0.205-0.438-0.307-0.717-0.307
	c-0.288,0-0.535,0.102-0.739,0.307c-0.204,0.205-0.306,0.45-0.306,0.738V24.548z M10.672,24.589c0,0.511,0.344,0.768,1.031,0.768
	c0.688,0,1.031-0.257,1.031-0.768V10.658c0-0.781-0.236-1.222-0.71-1.324c-0.306-0.074-0.608,0.014-0.906,0.265
	c-0.297,0.251-0.446,0.604-0.446,1.059V24.589z M13.933,24.993V9.835c0-0.483,0.144-0.771,0.432-0.864
	c0.622-0.148,1.24-0.223,1.853-0.223c1.421,0,2.744,0.334,3.971,1.003s2.218,1.582,2.975,2.738c0.756,1.156,1.195,2.431,1.316,3.824
	c0.566-0.241,1.17-0.362,1.812-0.362c1.3,0,2.412,0.459,3.336,1.378c0.925,0.92,1.386,2.026,1.386,3.316
	c0,1.3-0.461,2.41-1.386,3.33c-0.924,0.92-2.031,1.38-3.322,1.38l-12.121-0.015c-0.083-0.028-0.146-0.079-0.188-0.153
	S13.933,25.049,13.933,24.993L13.933,24.993z"/>
</svg>
