<?xml version="1.0" encoding="utf-8"?>
<!-- Generator: Adobe Illustrator 16.0.0, SVG Export Plug-In . SVG Version: 6.00 Build 0)  -->
<!DOCTYPE svg PUBLIC "-//W3C//DTD SVG 1.1//EN" "http://www.w3.org/Graphics/SVG/1.1/DTD/svg11.dtd">
<svg version="1.1" id="Layer_1" xmlns="http://www.w3.org/2000/svg" xmlns:xlink="http://www.w3.org/1999/xlink" x="0px" y="0px"
	 width="32px" height="32px" viewBox="0 0 32 32" enable-background="new 0 0 32 32" xml:space="preserve">
<path fill="#84BE41" d="M16,1C7.865,1,1.208,7.656,1.208,15.791c0,8.136,6.656,14.791,14.792,14.791
	c8.136,0,14.791-6.655,14.791-14.791C30.791,7.656,24.208,1,16,1z M22.804,22.374c-0.297,0.442-0.813,0.591-1.257,0.296
	c-3.478-2.145-7.839-2.589-13.018-1.406c-0.517,0.148-0.961-0.222-1.109-0.666c-0.148-0.517,0.222-0.961,0.667-1.109
	c5.621-1.256,10.502-0.74,14.348,1.627C22.951,21.338,23.023,21.93,22.804,22.374z M24.58,18.305
	c-0.372,0.52-1.036,0.74-1.557,0.371c-3.99-2.44-10.056-3.181-14.715-1.7c-0.592,0.147-1.257-0.148-1.405-0.74
	c-0.148-0.592,0.148-1.258,0.739-1.406c5.398-1.627,12.055-0.813,16.642,1.998C24.728,17.048,24.948,17.788,24.58,18.305z
	 M24.728,14.164c-4.733-2.81-12.649-3.106-17.159-1.701c-0.739,0.221-1.479-0.222-1.701-0.887c-0.222-0.74,0.222-1.48,0.888-1.702
	c5.251-1.553,13.903-1.256,19.377,1.997c0.664,0.37,0.885,1.258,0.517,1.923C26.28,14.313,25.393,14.534,24.728,14.164z"/>
</svg>
