<?xml version="1.0" encoding="utf-8"?>
<!-- Generator: Adobe Illustrator 16.0.0, SVG Export Plug-In . SVG Version: 6.00 Build 0)  -->
<!DOCTYPE svg PUBLIC "-//W3C//DTD SVG 1.1//EN" "http://www.w3.org/Graphics/SVG/1.1/DTD/svg11.dtd">
<svg version="1.1" id="Layer_1" xmlns="http://www.w3.org/2000/svg" xmlns:xlink="http://www.w3.org/1999/xlink" x="0px" y="0px"
	 width="16px" height="256px" viewBox="0 0 16 256" enable-background="new 0 0 16 256" xml:space="preserve">
<g>
	<g>
		<path fill="#FFFFFF" d="M4.417,3.34l7.153,4.748l-7.153,4.748V3.34 M3,0.698v14.78l11.133-7.39L3,0.698L3,0.698z"/>
	</g>
</g>
<g>
	<path fill="#FFFFFF" d="M8,18.251c3.216,0,5.833,2.617,5.833,5.833c0,3.216-2.617,5.832-5.833,5.832S2.168,27.3,2.168,24.084
		C2.168,20.868,4.784,18.251,8,18.251 M8,16.833c-4.004,0-7.25,3.246-7.25,7.25c0,4.004,3.245,7.25,7.25,7.25
		c4.004,0,7.25-3.246,7.25-7.25C15.25,20.079,12.004,16.833,8,16.833L8,16.833z"/>
</g>
<g>
	<path fill="#FFFFFF" d="M8.261,146.167c3.216,0,5.833,2.617,5.833,5.833s-2.617,5.833-5.833,5.833S2.429,155.216,2.429,152
		S5.045,146.167,8.261,146.167 M8.261,144.75c-4.004,0-7.25,3.246-7.25,7.25s3.245,7.25,7.25,7.25c4.004,0,7.25-3.246,7.25-7.25
		S12.265,144.75,8.261,144.75L8.261,144.75z"/>
</g>
<g>
	<path fill="#FFFFFF" d="M8.261,150.562c0.793,0,1.438,0.646,1.438,1.438s-0.646,1.438-1.438,1.438S6.823,152.793,6.823,152
		S7.468,150.562,8.261,150.562 M8.261,149.145c-1.577,0-2.855,1.278-2.855,2.855s1.278,2.855,2.855,2.855s2.855-1.278,2.855-2.855
		S9.838,149.145,8.261,149.145L8.261,149.145z"/>
</g>
<path fill="none" stroke="#FFFFFF" stroke-width="0.7087" stroke-miterlimit="10" d="M4.975,149.143
	c0.798-0.918,1.974-1.498,3.286-1.498"/>
<path fill="none" stroke="#FFFFFF" stroke-width="0.7087" stroke-miterlimit="10" d="M11.547,154.857
	c-0.797,0.918-1.974,1.498-3.286,1.498"/>
<path fill="#FFFFFF" d="M6.49,22.573l-2.07,5.09l5.091-2.07l2.069-5.091L6.49,22.573z M8,24.92c-0.462,0-0.837-0.375-0.837-0.836
	c0-0.463,0.375-0.838,0.837-0.838s0.837,0.375,0.837,0.838C8.837,24.546,8.462,24.92,8,24.92z"/>
<circle fill="none" stroke="#FFFFFF" stroke-width="1.4173" stroke-miterlimit="10" cx="8.261" cy="44.34" r="2.41"/>
<polyline fill="none" stroke="#FFFFFF" stroke-width="1.4173" stroke-linejoin="round" stroke-miterlimit="10" points="
	10.671,44.34 10.671,34.165 14.688,38.182 "/>
<circle fill="none" stroke="#FFFFFF" stroke-width="1.4173" stroke-miterlimit="10" cx="12.146" cy="58.667" r="2.41"/>
<circle fill="none" stroke="#FFFFFF" stroke-width="1.4173" stroke-miterlimit="10" cx="3.627" cy="60.667" r="2.41"/>
<polyline fill="none" stroke="#FFFFFF" stroke-width="1.4173" stroke-linejoin="round" stroke-miterlimit="10" points="
	6.037,60.667 6.037,51.491 14.557,49.491 14.557,58.667 "/>
<line fill="none" stroke="#FFFFFF" stroke-width="1.4173" stroke-linejoin="round" stroke-miterlimit="10" x1="1.75" y1="34.433" x2="7.886" y2="34.433"/>
<line fill="none" stroke="#FFFFFF" stroke-width="1.4173" stroke-linejoin="round" stroke-miterlimit="10" x1="1.75" y1="36.843" x2="7.886" y2="36.843"/>
<line fill="none" stroke="#FFFFFF" stroke-width="1.4173" stroke-linejoin="round" stroke-miterlimit="10" x1="1.75" y1="39.253" x2="7.886" y2="39.253"/>
<rect x="1.97" y="162.188" fill="none" stroke="#FFFFFF" stroke-width="1.4173" stroke-miterlimit="10" width="4.969" height="4.97"/>
<rect x="9.061" y="169.28" fill="none" stroke="#FFFFFF" stroke-width="1.4173" stroke-miterlimit="10" width="4.97" height="4.968"/>
<rect x="1.97" y="169.28" fill="none" stroke="#FFFFFF" stroke-width="1.4173" stroke-miterlimit="10" width="4.968" height="4.968"/>
<rect x="9.061" y="162.188" fill="none" stroke="#FFFFFF" stroke-width="1.4173" stroke-miterlimit="10" width="4.969" height="4.971"/>
<g>
	<path fill="#FFFFFF" d="M8.262,71.283c0.533,0,0.967,0.434,0.967,0.967s-0.434,0.967-0.967,0.967s-0.967-0.434-0.967-0.967
		S7.729,71.283,8.262,71.283 M8.262,70.149c-1.16,0-2.101,0.941-2.101,2.101s0.94,2.101,2.101,2.101c1.16,0,2.101-0.941,2.101-2.101
		S9.422,70.149,8.262,70.149L8.262,70.149z"/>
</g>
<g>
	<path fill="#FFFFFF" d="M8.262,68.569c2.03,0,3.682,1.651,3.682,3.681s-1.651,3.681-3.682,3.681c-2.029,0-3.68-1.651-3.68-3.681
		S6.232,68.569,8.262,68.569 M8.262,67.151c-2.815,0-5.097,2.283-5.097,5.099s2.282,5.099,5.097,5.099
		c2.816,0,5.099-2.283,5.099-5.099S11.078,67.151,8.262,67.151L8.262,67.151z"/>
</g>
<g>
	<g>
		<polygon fill="#FFFFFF" points="9.642,77.123 6.872,77.124 6.872,79.25 9.642,79.25 9.642,77.123 		"/>
	</g>
	<g>
		<polygon fill="#FFFFFF" points="9.642,65.293 6.872,65.293 6.872,67.42 9.642,67.42 9.642,65.293 		"/>
	</g>
	<g>
		<polygon fill="#FFFFFF" points="3.404,70.886 1.277,70.886 1.278,73.656 3.405,73.656 3.404,70.886 		"/>
	</g>
	<g>
		<polygon fill="#FFFFFF" points="15.422,70.886 13.106,70.886 13.107,73.656 15.423,73.656 15.422,70.886 		"/>
	</g>
	<g>
		<polygon fill="#FFFFFF" points="3.847,74.724 2.342,76.228 4.302,78.187 5.806,76.683 3.847,74.724 		"/>
	</g>
	<g>
		<polygon fill="#FFFFFF" points="12.211,66.358 10.707,67.862 12.666,69.821 14.171,68.317 12.211,66.358 		"/>
	</g>
	<g>
		<polygon fill="#FFFFFF" points="4.301,66.357 2.342,68.316 3.847,69.821 5.805,67.861 4.301,66.357 		"/>
	</g>
	<g>
		<polygon fill="#FFFFFF" points="12.666,74.722 10.707,76.682 12.211,78.186 14.17,76.226 12.666,74.722 		"/>
	</g>
</g>
<g>
	<path fill="none" stroke="#FFFFFF" stroke-width="1.4173" stroke-miterlimit="10" d="M14.257,93.25c0,0.275-0.225,0.5-0.5,0.5
		H2.928c-0.275,0-0.5-0.225-0.5-0.5V85.5c0-0.275,0.225-0.5,0.5-0.5h10.829c0.275,0,0.5,0.225,0.5,0.5V93.25z"/>
</g>
<rect x="3.023" y="82.375" fill="none" stroke="#FFFFFF" stroke-width="1.4173" stroke-miterlimit="10" width="4.854" height="2.625"/>
<g>
	<path fill="#FFFFFF" d="M8.05,115.438l1.198,2.422l0.33,0.668l0.736,0.106l2.673,0.389l-1.936,1.888l-0.534,0.521l0.127,0.734
		l0.457,2.662l-2.392-1.257l-0.659-0.347l-0.659,0.347l-2.393,1.258l0.458-2.663l0.126-0.736l-0.536-0.521l-1.939-1.885l2.678-0.39
		l0.736-0.106l0.33-0.668L8.05,115.438 M8.051,112.765c-0.18,0-0.328,0.122-0.441,0.369l-2.027,4.099l-4.521,0.657
		c-0.336,0.055-0.504,0.192-0.504,0.414c0,0.127,0.074,0.271,0.224,0.434l3.279,3.188l-0.774,4.503
		c-0.012,0.084-0.018,0.144-0.018,0.182c0,0.125,0.032,0.231,0.095,0.318c0.063,0.088,0.158,0.131,0.284,0.131
		c0.107,0,0.228-0.037,0.36-0.108l4.044-2.125l4.044,2.125c0.126,0.071,0.246,0.108,0.359,0.108c0.12,0,0.213-0.043,0.275-0.131
		c0.063-0.087,0.096-0.193,0.096-0.318c0-0.079-0.005-0.141-0.011-0.182l-0.773-4.503l3.27-3.188c0.155-0.158,0.233-0.3,0.233-0.434
		c0-0.222-0.167-0.359-0.503-0.414l-4.522-0.657l-2.026-4.099C8.377,112.887,8.231,112.765,8.051,112.765L8.051,112.765z"/>
</g>
<polyline fill="none" stroke="#FFFFFF" stroke-width="1.4173" stroke-linecap="round" stroke-miterlimit="10" points="
	11.319,136.742 4.934,141.675 2.958,139.697 8.125,133.547 "/>
<path fill="none" stroke="#FFFFFF" stroke-width="0.8504" stroke-linecap="round" stroke-miterlimit="10" d="M3.966,140.705
	c-1.803,0.97-0.776,2.625-2.843,2.625"/>
<circle fill="none" stroke="#FFFFFF" stroke-width="1.4173" stroke-miterlimit="10" cx="11.041" cy="133.631" r="2.9"/>
<line fill="none" stroke="#FFFFFF" stroke-width="1.4173" stroke-miterlimit="10" x1="8.99" y1="131.581" x2="13.091" y2="135.682"/>
<path fill="#FFFFFF" d="M1.383,100.219c0,0,4.206-3.785,8.233-1.403c4.027,2.381,5.229,5.486,3.476,7.74
	c-2.023-3.173-3.096-4.701-7.328-6.003c0,0,6.63,4.153,7.779,9.057c-0.175,1.047-1.153,0.289-1.153,0.289l-1.067-1.769
	c0,0-2.049,1.583-4.471-0.508C2.747,104.075,6.048,100.109,1.383,100.219z"/>
<circle fill="none" stroke="#FFFFFF" stroke-width="1.4173" stroke-miterlimit="10" cx="6.752" cy="183.413" r="5.061"/>
<line fill="none" stroke="#FFFFFF" stroke-width="1.4173" stroke-miterlimit="10" x1="10.208" y1="186.436" x2="14.605" y2="190.833"/>
<polyline fill="none" stroke="#FFFFFF" stroke-width="1.8546" stroke-linecap="round" stroke-linejoin="round" stroke-miterlimit="10" points="
	5.13,193.774 11.491,200.136 5.13,206.497 "/>
<polyline fill="none" stroke="#FFFFFF" stroke-width="1.8546" stroke-linecap="round" stroke-linejoin="round" stroke-miterlimit="10" points="
	11.491,222.611 5.13,216.25 11.491,209.889 "/>
</svg>
