<?xml version="1.0" encoding="utf-8"?>
<!-- Generator: Adobe Illustrator 16.0.0, SVG Export Plug-In . SVG Version: 6.00 Build 0)  -->
<!DOCTYPE svg PUBLIC "-//W3C//DTD SVG 1.1//EN" "http://www.w3.org/Graphics/SVG/1.1/DTD/svg11.dtd">
<svg version="1.1" id="Layer_1" xmlns="http://www.w3.org/2000/svg" xmlns:xlink="http://www.w3.org/1999/xlink" x="0px" y="0px"
	 width="32px" height="256px" viewBox="0 0 32 256" enable-background="new 0 0 32 256" xml:space="preserve">
<path fill="#D1D3D4" d="M14.226,4.168H9.608l-1.54-1.539H3.452v1.539H1.913v9.235h10.773v-1.539h1.539V4.168z M13.457,11.094h-0.771
	V5.708H8.068L6.53,4.167H4.222V3.399h3.529L9.29,4.938h4.167V11.094z"/>
<path fill="#D1D3D4" d="M0,27.111c0,0.198,0.072,0.347,0.215,0.449c0.144,0.103,0.297,0.138,0.461,0.108
	C0.831,27.638,0.938,27.584,1,27.504c0.062-0.079,0.092-0.21,0.092-0.393v-2.156c0-0.154-0.053-0.284-0.16-0.391
	c-0.107-0.107-0.237-0.161-0.39-0.161c-0.148,0-0.276,0.054-0.382,0.161C0.054,24.671,0,24.801,0,24.955V27.111L0,27.111z
	 M1.709,28.032c0,0.144,0.052,0.251,0.153,0.323c0.101,0.072,0.23,0.108,0.389,0.108c0.165,0,0.297-0.037,0.397-0.108
	c0.102-0.072,0.153-0.179,0.153-0.323v-5.024c0-0.149-0.054-0.276-0.159-0.383c-0.107-0.107-0.237-0.161-0.392-0.161
	c-0.148,0-0.276,0.054-0.382,0.161c-0.106,0.106-0.16,0.234-0.16,0.383V28.032z M3.411,28.27c0,0.144,0.053,0.252,0.156,0.324
	c0.105,0.071,0.238,0.107,0.402,0.107c0.158,0,0.288-0.036,0.391-0.107c0.101-0.072,0.152-0.181,0.152-0.324v-4.586
	c0-0.153-0.054-0.285-0.16-0.394c-0.107-0.108-0.234-0.164-0.382-0.164c-0.154,0-0.285,0.056-0.395,0.164
	c-0.108,0.109-0.164,0.24-0.164,0.394V28.27z M5.121,28.292c0,0.272,0.185,0.41,0.551,0.41c0.367,0,0.55-0.137,0.55-0.41V20.86
	c0-0.418-0.127-0.653-0.379-0.707c-0.163-0.039-0.324,0.007-0.483,0.141C5.2,20.428,5.121,20.616,5.121,20.86V28.292z M6.86,28.508
	v-8.086c0-0.258,0.077-0.412,0.23-0.461c0.333-0.08,0.663-0.12,0.99-0.12c0.758,0,1.462,0.179,2.117,0.535
	c0.655,0.357,1.185,0.844,1.589,1.461c0.401,0.616,0.637,1.296,0.701,2.039c0.302-0.128,0.624-0.193,0.968-0.193
	c0.691,0,1.285,0.246,1.778,0.735c0.493,0.491,0.739,1.082,0.739,1.77c0,0.693-0.246,1.286-0.739,1.777
	c-0.493,0.49-1.085,0.736-1.771,0.736l-6.468-0.007c-0.043-0.016-0.077-0.042-0.101-0.082C6.871,28.572,6.86,28.537,6.86,28.508
	L6.86,28.508z"/>
<path fill="#D1D3D4" d="M8.065,33.933c-3.389,0-6.16,2.772-6.16,6.161s2.771,6.161,6.16,6.161c3.388,0,6.16-2.772,6.16-6.161
	S11.483,33.933,8.065,33.933z M10.898,42.835c-0.123,0.185-0.339,0.246-0.522,0.123c-1.449-0.893-3.267-1.078-5.422-0.585
	c-0.215,0.062-0.399-0.092-0.461-0.278c-0.063-0.215,0.09-0.399,0.276-0.461c2.34-0.523,4.374-0.308,5.975,0.678
	C10.961,42.404,10.991,42.65,10.898,42.835z M11.639,41.14c-0.155,0.217-0.433,0.309-0.647,0.155
	c-1.663-1.017-4.189-1.325-6.129-0.708c-0.247,0.061-0.524-0.062-0.586-0.309c-0.063-0.247,0.062-0.523,0.307-0.585
	c2.25-0.678,5.021-0.339,6.933,0.832C11.699,40.617,11.792,40.925,11.639,41.14z M11.699,39.416
	c-1.97-1.171-5.267-1.295-7.145-0.709c-0.309,0.093-0.618-0.092-0.71-0.369c-0.092-0.309,0.092-0.617,0.369-0.709
	c2.188-0.646,5.791-0.523,8.071,0.832c0.277,0.154,0.37,0.524,0.215,0.801C12.348,39.478,11.977,39.569,11.699,39.416z"/>
<path fill="#FDB913" d="M30.226,4.168h-4.617l-1.54-1.539h-4.616v1.539h-1.539v9.235h10.773v-1.539h1.539V4.168z M29.457,11.094
	h-0.771V5.708h-4.618L22.53,4.167h-2.309V3.399h3.529l1.539,1.539h4.167V11.094z"/>
<path fill="#DF4526" d="M16,27.111c0,0.198,0.072,0.347,0.215,0.449c0.145,0.103,0.298,0.138,0.462,0.108
	c0.153-0.029,0.261-0.083,0.323-0.164c0.063-0.079,0.093-0.21,0.093-0.393v-2.156c0-0.154-0.053-0.284-0.159-0.391
	c-0.107-0.107-0.237-0.161-0.391-0.161c-0.147,0-0.275,0.054-0.382,0.161C16.054,24.671,16,24.801,16,24.955V27.111L16,27.111z
	 M17.709,28.032c0,0.144,0.053,0.251,0.154,0.323c0.101,0.072,0.23,0.108,0.389,0.108c0.165,0,0.297-0.037,0.397-0.108
	c0.103-0.072,0.153-0.179,0.153-0.323v-5.024c0-0.149-0.055-0.276-0.159-0.383c-0.107-0.107-0.237-0.161-0.392-0.161
	c-0.148,0-0.275,0.054-0.383,0.161c-0.105,0.106-0.16,0.234-0.16,0.383V28.032z M19.411,28.27c0,0.144,0.054,0.252,0.156,0.324
	c0.105,0.071,0.238,0.107,0.402,0.107c0.157,0,0.288-0.036,0.391-0.107c0.101-0.072,0.151-0.181,0.151-0.324v-4.586
	c0-0.153-0.054-0.285-0.16-0.394c-0.107-0.108-0.234-0.164-0.382-0.164c-0.154,0-0.285,0.056-0.395,0.164
	c-0.108,0.109-0.164,0.24-0.164,0.394V28.27z M21.121,28.292c0,0.272,0.185,0.41,0.551,0.41c0.367,0,0.55-0.137,0.55-0.41V20.86
	c0-0.418-0.128-0.653-0.38-0.707c-0.162-0.039-0.324,0.007-0.482,0.141c-0.159,0.133-0.238,0.322-0.238,0.566V28.292z M22.86,28.508
	v-8.086c0-0.258,0.077-0.412,0.23-0.461c0.333-0.08,0.663-0.12,0.989-0.12c0.758,0,1.463,0.179,2.117,0.535
	c0.655,0.357,1.185,0.844,1.589,1.461c0.401,0.616,0.637,1.296,0.701,2.039c0.302-0.128,0.624-0.193,0.968-0.193
	c0.691,0,1.285,0.246,1.778,0.735c0.493,0.491,0.739,1.082,0.739,1.77c0,0.693-0.246,1.286-0.739,1.777
	c-0.493,0.49-1.085,0.736-1.771,0.736l-6.468-0.007c-0.043-0.016-0.077-0.042-0.102-0.082C22.871,28.572,22.86,28.537,22.86,28.508
	L22.86,28.508z"/>
<path fill="#84BE41" d="M24.065,33.933c-3.389,0-6.16,2.772-6.16,6.161s2.771,6.161,6.16,6.161c3.388,0,6.16-2.772,6.16-6.161
	S27.483,33.933,24.065,33.933z M26.898,42.835c-0.123,0.185-0.339,0.246-0.522,0.123c-1.449-0.893-3.267-1.078-5.422-0.585
	c-0.215,0.062-0.399-0.092-0.461-0.278c-0.063-0.215,0.09-0.399,0.276-0.461c2.34-0.523,4.374-0.308,5.975,0.678
	C26.961,42.404,26.991,42.65,26.898,42.835z M27.639,41.14c-0.155,0.217-0.433,0.309-0.647,0.155
	c-1.663-1.017-4.189-1.325-6.129-0.708c-0.247,0.061-0.524-0.062-0.586-0.309c-0.063-0.247,0.062-0.523,0.307-0.585
	c2.25-0.678,5.021-0.339,6.933,0.832C27.699,40.617,27.792,40.925,27.639,41.14z M27.699,39.416
	c-1.97-1.171-5.267-1.295-7.145-0.709c-0.309,0.093-0.618-0.092-0.71-0.369c-0.092-0.309,0.092-0.617,0.369-0.709
	c2.188-0.646,5.791-0.523,8.071,0.832c0.277,0.154,0.37,0.524,0.215,0.801C28.348,39.478,27.977,39.569,27.699,39.416z"/>
</svg>
